<svg width="955" height="541" viewBox="0 0 955 541" fill="none" xmlns="http://www.w3.org/2000/svg">
<path d="M382.997 -9.98127L184.319 -14.5713C222.797 8.40389 211.304 308.479 463.797 265.483C600.907 298.716 494.542 353.605 615.304 450.109C673.859 496.889 796 433.5 832.5 484C891.5 565.63 552.891 848.299 552.891 848.299L668.962 907.424C742.567 813.578 1024.43 667.637 1066.67 613.235C1134.38 526.004 1017.79 485.304 1049.86 409.045C1080.16 336.952 1342.29 263.019 1286.22 185.308C1114.94 -52.0439 1318.33 -15.3026 1317.42 -55.5968C1316.83 -82.225 1328.59 -94.6472 1343.41 -106.785L383.001 -9.99998L382.997 -9.98127Z" fill="white" fill-opacity="0.2"/>
<path d="M904.961 234.297C910.512 218.031 902.932 199.871 886.946 192.532C874.134 186.65 859.573 189.395 849.808 198.34C850.226 185.104 842.817 172.272 830.006 166.39C814.019 159.051 795.305 165.139 786.59 179.952C786.009 180.939 785.472 181.967 784.984 183.031C767.795 220.47 805.719 259.277 807.563 290.357C832.334 271.497 886.484 274.962 903.673 237.521C904.161 236.457 904.591 235.38 904.961 234.297Z" fill="#FFBF3B"/>
<path d="M711.707 300.18V-14" stroke="#FBFFFF" stroke-width="2.65256" stroke-miterlimit="10" stroke-linecap="round" stroke-linejoin="round"/>
<path d="M752.598 380.441C780.549 358.354 785.303 317.789 763.215 289.837C741.128 261.885 700.563 257.132 672.611 279.219C644.659 301.307 639.906 341.872 661.993 369.824C684.081 397.776 724.646 402.529 752.598 380.441Z" fill="#FF953B"/>
<path d="M730.024 378.991C723.936 383.333 718.728 388.702 713.682 394.277C718.611 394.189 723.613 393.558 728.587 392.282C735.276 390.566 741.438 387.866 746.983 384.375C755.888 372.976 764.368 359.949 760.392 352.775C754.627 347.596 744.343 368.765 730.024 378.991Z" fill="#FDD89E"/>
<path d="M775.088 313.795C773.665 308.206 771.523 302.983 768.838 298.186C741.082 313.165 704.421 335.361 701.134 330.754C695.12 322.319 726.822 296.03 731.487 292.025C734.818 289.164 742.431 283.706 750.163 277.369C745.776 274.229 740.994 271.647 735.947 269.682C720.558 279.496 705.433 289.692 690.308 299.903C676.43 309.277 662.038 318.328 648.101 327.967C647.94 333.835 648.556 339.806 650.082 345.777C651.461 351.146 653.471 356.178 656.008 360.814C666.087 355.415 677.853 349.107 680.713 351.483C683.017 353.405 675.329 364.408 666.615 375.015C673.451 381.954 681.784 387.279 690.939 390.551C716.098 368.09 751.674 337.106 775.293 314.646C775.22 314.367 775.161 314.074 775.088 313.795Z" fill="#FDD89E"/>
<path d="M776.701 337.003C776.921 335.096 777.038 333.159 777.082 331.223C761.575 338.661 740.788 345.893 718.195 351.673C695.603 357.453 673.891 361.091 656.727 362.016C657.709 363.703 658.751 365.346 659.866 366.93C677.206 365.742 698.596 361.928 719.457 356.588C741.125 351.042 761.209 344.162 776.701 337.003Z" fill="#F3BB44"/>
<path d="M772.996 307.121C773.613 308.764 774.155 310.437 774.64 312.153C794.4 311.376 800.621 314.779 801.164 316.936C801.721 319.092 797.863 325.122 779.936 333.997C764.253 341.758 742.673 349.357 719.156 355.372C695.64 361.387 673.062 365.098 655.575 365.817C635.579 366.639 629.315 363.206 628.758 361.049C628.215 358.907 632.029 352.922 649.722 344.12C649.326 342.403 648.988 340.672 648.739 338.956C648.401 339.117 648.049 339.279 647.726 339.455C630.21 348.125 622.171 355.827 623.843 362.326C627.423 376.306 675.131 371.891 720.403 360.316C744.257 354.213 766.189 346.496 782.18 338.574C799.697 329.904 807.736 322.202 806.078 315.718C804.274 308.632 791.261 306.256 772.996 307.121Z" fill="#FBFFFF"/>
<path fill-rule="evenodd" clip-rule="evenodd" d="M433.6 134.281C433.517 110.485 414.924 91.2206 392 91.2206C414.975 91.2206 433.6 71.8699 433.6 48C433.683 71.7966 452.276 91.0607 475.2 91.0607C452.225 91.0607 433.6 110.412 433.6 134.281Z" fill="white"/>
<g filter="url(#filter0_ddiiii_92_1444)">
<path fill-rule="evenodd" clip-rule="evenodd" d="M474.813 75.7333C474.787 68.0844 469.106 61.8923 462.102 61.8923C469.122 61.8923 474.813 55.6725 474.813 48C474.838 55.6489 480.519 61.841 487.524 61.841C480.503 61.841 474.813 68.0608 474.813 75.7333Z" fill="white"/>
</g>
<g filter="url(#filter1_ddiiii_92_1444)">
<path fill-rule="evenodd" clip-rule="evenodd" d="M470.195 127.348C470.17 119.487 464.489 113.123 457.484 113.123C464.505 113.123 470.195 106.73 470.195 98.8447C470.221 106.706 475.902 113.07 482.907 113.07C475.886 113.07 470.195 119.463 470.195 127.348Z" fill="white"/>
</g>
<path d="M604.217 426.314H584.371V466.005H604.217V426.314Z" fill="#F9CE8B"/>
<path d="M604.217 444.661H584.371V466.006H604.217V444.661Z" fill="#E40023"/>
<path d="M531.428 426.81L529.213 466.439L549.027 467.546L551.242 427.918L531.428 426.81Z" fill="#F9CE8B"/>
<path fill-rule="evenodd" clip-rule="evenodd" d="M549.025 472.046L529.221 470.726L530.541 442.408L550.359 443.729L549.025 472.046Z" fill="#E40023"/>
<path fill-rule="evenodd" clip-rule="evenodd" d="M549.579 462.459L551.325 481.549C551.408 482.429 551.147 483.227 550.542 483.887C549.95 484.547 549.18 484.891 548.3 484.891L489.794 485.304C488.129 485.317 486.768 483.997 486.713 482.333C486.589 477.932 487.098 470.161 492.214 469.432C499.393 468.401 514.536 465.939 514.536 465.939L529.98 455.899L530.228 448.514L550.074 449.93L549.579 462.459Z" fill="black"/>
<path fill-rule="evenodd" clip-rule="evenodd" d="M584.221 459.376L578.527 481.395C578.28 482.344 578.472 483.252 579.064 484.036C579.655 484.806 580.508 485.219 581.484 485.219L625.206 485.301C626.058 485.301 626.801 484.998 627.392 484.38C627.998 483.761 628.286 483.018 628.259 482.165C628.176 478.589 627.516 473.033 624.422 471.314C619.746 468.715 610.737 465.964 610.737 465.964L604.37 457.313L604.232 449.749L584.386 449.598L584.221 459.376Z" fill="black"/>
<path fill-rule="evenodd" clip-rule="evenodd" d="M514.422 465.869C514.422 465.869 520.625 454.757 524.035 452.295C528.258 449.242 532.04 453.437 527.529 457.563C523.004 461.702 514.422 465.869 514.422 465.869Z" fill="black"/>
<path fill-rule="evenodd" clip-rule="evenodd" d="M610.159 461.883C610.159 461.883 611.411 454.401 607.147 452.929C602.884 451.458 600.504 452.751 600.752 456.808C601 460.865 607.862 470.547 607.862 470.547L613.914 469.186L610.159 461.883Z" fill="black"/>
<path fill-rule="evenodd" clip-rule="evenodd" d="M487.055 479.224C487.784 469.363 492.075 468.675 499.915 467.795V479.183H551.104L551.324 481.534C551.407 482.415 551.146 483.212 550.54 483.872C549.949 484.533 549.179 484.876 548.299 484.876L499.928 485.193L490.26 485.275C490.26 485.275 488.376 485.165 487.564 483.817C486.904 482.772 486.973 480.668 487.055 479.224Z" fill="white"/>
<path fill-rule="evenodd" clip-rule="evenodd" d="M489.199 485.456C486.971 484.892 486.806 483.435 486.778 483.228C486.764 483.104 486.421 482.444 486.613 479.171C487.191 469.434 491.578 468.457 499.857 467.371C499.981 467.357 500.105 467.398 500.201 467.481C500.298 467.563 500.353 467.687 500.353 467.811V478.772H551.102C551.322 478.772 551.515 478.937 551.528 479.157L551.721 481.193C551.776 481.825 551.79 482.527 551.556 483.159C551.157 484.26 550.098 485.264 547.884 485.332C527.79 485.47 510.86 485.608 490.835 485.608C490.216 485.594 489.818 485.608 489.199 485.456ZM487.425 482.155C487.452 483.82 488.827 484.865 490.505 484.851L547.815 484.439C548.709 484.439 549.74 484.136 550.332 483.49C550.923 482.829 550.909 481.99 550.827 481.11L550.689 479.625H499.913C499.679 479.625 499.472 479.432 499.472 479.185V468.292C489.914 468.732 487.273 472.294 487.425 482.155Z" fill="black"/>
<path fill-rule="evenodd" clip-rule="evenodd" d="M578.527 481.399L579.105 479.184H601.66C601.963 476.31 602.747 473.257 604.425 471.001C606.969 467.604 609.857 466.586 611.975 466.353C614.602 467.205 620.805 469.296 624.422 471.304C626.732 472.583 627.681 476.021 628.053 479.171H628.08C628.121 479.569 628.149 480.009 628.163 480.436C628.204 481.041 628.231 481.619 628.245 482.155C628.273 483.008 627.97 483.75 627.379 484.369C626.787 484.988 626.045 485.291 625.192 485.291H601.674C601.674 485.277 601.674 485.263 601.674 485.236L581.484 485.194C580.508 485.194 579.669 484.782 579.064 484.012C578.472 483.255 578.28 482.348 578.527 481.399Z" fill="white"/>
<path fill-rule="evenodd" clip-rule="evenodd" d="M624.56 485.744C609.72 485.744 595.568 485.552 580.728 485.593C578.61 485.593 577.771 483.434 578.033 481.577L578.679 479.074C578.734 478.881 578.899 478.744 579.105 478.744H601.276C601.564 476.351 602.28 473.132 604.081 470.739C606.749 467.164 609.83 466.146 611.934 465.926C611.989 465.926 612.058 465.926 612.113 465.94C614.657 466.765 620.97 468.896 624.642 470.932C627.503 472.527 628.466 477.217 628.617 480.422C628.837 483.434 628.658 485.827 624.56 485.744ZM627.806 481.701C627.792 481.316 627.764 480.903 627.737 480.49C627.599 477.63 626.705 473.091 624.202 471.702C620.64 469.722 614.492 467.645 611.921 466.806C609.981 467.026 607.203 467.989 604.755 471.262C602.981 473.641 602.321 476.901 602.073 479.225C602.046 479.445 601.867 479.61 601.647 479.61H579.422L579.078 480.958C578.83 481.907 578.72 482.952 579.312 483.722C579.669 484.176 580.041 484.534 580.632 484.699C581.031 484.809 581.636 484.795 582.021 484.795C596.269 484.823 610.49 484.878 624.739 484.878C625.605 484.878 626.54 484.699 627.132 484.08C627.751 483.461 627.847 482.567 627.806 481.701Z" fill="black"/>
<path fill-rule="evenodd" clip-rule="evenodd" d="M529.77 340.577L519.538 436.121C519.442 436.987 519.689 437.771 520.253 438.431C520.817 439.092 521.56 439.449 522.44 439.49L555.943 441.031C557.538 441.1 558.9 439.958 559.12 438.376L569.132 363.531L575.335 364.549L576.903 438.198C576.916 439.037 577.233 439.765 577.852 440.343C578.457 440.921 579.199 441.21 580.038 441.182L611.107 440.412C612.647 440.371 613.913 439.215 614.078 437.675L624.2 341.554L529.77 340.577Z" fill="#2F2483"/>
<path fill-rule="evenodd" clip-rule="evenodd" d="M583.782 79.0327C588.719 78.7714 592.818 80.1054 592.914 82.0034C593.01 83.9013 589.091 85.648 584.14 85.9093C579.202 86.1706 575.104 84.8366 575.007 82.9386C574.911 81.0544 578.831 79.294 583.782 79.0327Z" fill="#2F2483"/>
<path fill-rule="evenodd" clip-rule="evenodd" d="M535.396 263.518L547.266 249.544C552.561 243.314 561.459 240.949 568.982 238.721L569.848 238.459C569.958 238.459 570.041 238.473 570.096 238.473C571.237 238.528 572.393 238.556 573.562 238.556C584.812 238.556 595.402 235.887 604.63 231.198L604.74 231.143L628.382 241.444C636.235 244.868 632.604 277.161 631.559 278.729L629.579 364.838C629.524 367.368 629.18 369.638 627.516 371.536C625.838 373.433 623.665 374.424 621.134 374.424H549.741C545.051 374.424 541.489 370.587 541.228 365.897L535.396 263.518Z" fill="#E40023"/>
<path fill-rule="evenodd" clip-rule="evenodd" d="M628.519 263.517L616.65 249.544C611.355 243.314 602.457 240.948 594.934 238.72L594.067 238.459C593.957 238.459 593.875 238.473 593.82 238.473C592.678 238.528 596.57 238.555 590.354 238.555C584.151 238.555 568.514 239.559 559.285 234.869L559.175 234.814L535.534 241.444C532.549 242.282 526.181 248.183 526.181 252.116L510.75 364.837C510.406 367.341 511.149 369.637 512.813 371.535C514.491 373.433 516.678 374.423 519.195 374.423H599.101C603.791 374.423 606.679 370.504 607.614 365.896L628.519 263.517Z" fill="#E40023"/>
<path fill-rule="evenodd" clip-rule="evenodd" d="M633.058 144.731C634.035 154.758 633.058 177.657 633.058 187.71C633.058 217.651 606.968 241.926 574.8 241.926C542.617 241.926 516.541 217.651 516.541 187.71C516.541 183.062 517.174 178.551 518.356 174.246C540.444 173.847 568.679 172.554 583.794 172.087C586.779 171.99 589.323 171.33 591.854 169.735L619.168 152.557C623.94 151.388 630.459 148.459 633.058 144.731Z" fill="#FDD89E"/>
<path fill-rule="evenodd" clip-rule="evenodd" d="M651.213 167.273C669.436 178.083 655.504 215.505 633.788 213.346C628.451 212.823 623.899 210.623 621.203 205.878L621.148 205.782C624.339 199.565 626.127 192.592 626.127 185.235C626.127 182.085 626.237 177.505 626.333 172.513C633.65 164.811 644.006 162.996 651.213 167.273Z" fill="#FDD89E"/>
<path fill-rule="evenodd" clip-rule="evenodd" d="M523.528 213.484C521.575 213.47 519.622 212.989 517.724 211.916C512.333 208.863 507.107 201.643 506.515 192.497C505.993 184.547 509.156 178.028 513.791 174.315C515.276 174.301 516.789 174.274 518.343 174.246C517.16 178.551 516.528 183.062 516.528 187.711C516.541 197.035 519.072 205.824 523.528 213.484Z" fill="#F9CE8B"/>
<path fill-rule="evenodd" clip-rule="evenodd" d="M586.489 84.9334C623.94 84.8509 633.058 114.723 633.058 144.732C630.445 148.473 623.94 151.389 619.153 152.558C581.703 158.431 545.642 158.266 513.295 158.431V128.504C516.541 95.8947 559.671 83.7369 586.489 84.9334Z" fill="#009EE3"/>
<path fill-rule="evenodd" clip-rule="evenodd" d="M513.297 158.445C507.191 160.838 492.035 165.817 488.431 169.695C486.437 171.841 487.868 173.436 489.766 173.725C502.969 175.65 559.838 172.858 583.783 172.102C586.767 172.006 589.311 171.345 591.842 169.75L619.156 152.572C581.72 158.445 545.659 158.266 513.297 158.445Z" fill="#2F2483"/>
<path fill-rule="evenodd" clip-rule="evenodd" d="M584.895 84.8762C585.431 84.89 585.967 84.9037 586.504 84.9312C623.954 84.8487 633.072 114.721 633.072 144.73C635.754 144.263 654.28 145.666 658.804 142.09C653.853 91.2302 621.093 81.0941 584.895 84.8762Z" fill="#2F2483"/>
<path fill-rule="evenodd" clip-rule="evenodd" d="M633.058 144.745L633.237 144.704C635.685 144.36 649.397 143.686 658.79 142.077C661.005 150.907 660.592 162.982 656.7 172.444C654.788 168.593 641.31 158.43 625.109 185.249C626.278 160.589 624.627 157.426 623.555 151.127C627.351 149.655 631.188 147.4 633.058 144.745Z" fill="#C67004"/>
<path fill-rule="evenodd" clip-rule="evenodd" d="M600.039 170.298C608.401 170.298 614.246 174.369 615.181 183.515C616.13 192.661 610.203 195.824 601.841 195.824C596.023 195.824 588.5 195.769 585.956 191.299C584.842 189.332 584.883 185.88 584.883 183.515C584.897 175.73 591.677 170.298 600.039 170.298Z" fill="white"/>
<path fill-rule="evenodd" clip-rule="evenodd" d="M600.037 170.298C608.399 170.298 614.244 174.369 615.179 183.515C615.551 187.077 614.877 189.731 613.419 191.643C614.216 189.91 614.533 187.737 614.258 185.041C613.309 175.895 607.477 171.824 599.115 171.824C593.642 171.824 588.856 174.149 586.187 177.931C588.553 173.255 593.862 170.298 600.037 170.298Z" fill="black"/>
<path fill-rule="evenodd" clip-rule="evenodd" d="M542.342 173.722C533.98 173.722 528.135 177.793 527.199 186.939C526.25 196.084 532.178 199.248 540.54 199.248C546.358 199.248 551.914 197.914 554.458 193.444C555.572 191.477 555.531 188.025 555.531 185.659C555.531 177.861 550.704 173.722 542.342 173.722Z" fill="white"/>
<path fill-rule="evenodd" clip-rule="evenodd" d="M542.342 173.722C533.98 173.722 528.135 177.793 527.2 186.939C526.829 190.501 527.503 193.155 528.96 195.067C528.163 193.334 527.846 191.161 528.122 188.465C529.07 179.319 534.902 175.248 543.264 175.248C548.366 175.248 552.148 176.789 554.321 179.759C552.396 175.785 548.256 173.722 542.342 173.722Z" fill="black"/>
<path fill-rule="evenodd" clip-rule="evenodd" d="M600.561 192.689C605.705 192.689 609.9 188.577 609.9 183.53C609.9 178.482 605.705 174.37 600.561 174.37C595.417 174.37 591.223 178.482 591.223 183.53C591.223 188.577 595.417 192.689 600.561 192.689Z" fill="#2F2483"/>
<path fill-rule="evenodd" clip-rule="evenodd" d="M606.432 180.82C608.152 180.82 609.541 179.445 609.541 177.767C609.541 176.089 608.138 174.714 606.432 174.714C604.713 174.714 603.324 176.089 603.324 177.767C603.324 179.459 604.713 180.82 606.432 180.82Z" fill="white"/>
<path fill-rule="evenodd" clip-rule="evenodd" d="M544.655 194.753C549.799 194.753 553.993 190.641 553.993 185.593C553.993 180.546 549.799 176.434 544.655 176.434C539.511 176.434 535.316 180.546 535.316 185.593C535.316 190.641 539.511 194.753 544.655 194.753Z" fill="#2F2483"/>
<path fill-rule="evenodd" clip-rule="evenodd" d="M568.749 200.915C571.747 200.598 574.002 198.687 573.782 196.665C573.562 194.643 570.963 193.268 567.965 193.584C564.966 193.901 562.711 195.812 562.931 197.834C563.137 199.856 565.75 201.245 568.749 200.915Z" fill="#F8B672"/>
<path fill-rule="evenodd" clip-rule="evenodd" d="M646.387 196.305C647.707 192.262 647.996 189.044 644.021 185.894C640.06 182.759 634.105 188.906 632.785 192.95C631.464 196.993 632.716 200.569 635.632 201.862C638.561 203.155 645.066 200.335 646.387 196.305Z" fill="#F8B672"/>
<path fill-rule="evenodd" clip-rule="evenodd" d="M516.61 184.905C511.934 186.377 511.782 195.11 513.612 199.209C514.946 202.193 517.119 204.105 519.443 204.669C517.559 199.332 516.527 193.625 516.527 187.711C516.541 186.762 516.569 185.827 516.61 184.905Z" fill="#F8B672"/>
<path fill-rule="evenodd" clip-rule="evenodd" d="M560.978 210.198C560.662 209.414 561.047 208.534 561.831 208.218C562.615 207.901 563.495 208.286 563.811 209.07C564.636 211.133 566.424 212.343 568.528 212.866C570.151 213.265 571.939 213.279 573.645 212.962C575.35 212.646 576.959 212.027 578.211 211.147C579.614 210.17 580.535 208.905 580.535 207.475C580.535 206.636 581.223 205.948 582.062 205.948C582.901 205.948 583.588 206.636 583.588 207.475C583.588 210.005 582.144 212.123 579.957 213.65C578.348 214.764 576.327 215.562 574.195 215.961C572.077 216.346 569.821 216.332 567.786 215.823C564.788 215.067 562.216 213.292 560.978 210.198Z" fill="black"/>
<path fill-rule="evenodd" clip-rule="evenodd" d="M549.438 183.874C551.157 183.874 552.547 182.499 552.547 180.821C552.547 179.143 551.144 177.768 549.438 177.768C547.719 177.768 546.33 179.143 546.33 180.821C546.33 182.512 547.733 183.874 549.438 183.874Z" fill="white"/>
<path fill-rule="evenodd" clip-rule="evenodd" d="M441.16 229.15C440.349 228.944 439.84 228.119 440.046 227.307C440.252 226.482 441.077 225.987 441.889 226.193L458.324 230.264C459.135 230.471 459.644 231.296 459.438 232.107C459.232 232.919 458.406 233.427 457.595 233.221L441.16 229.15Z" fill="black"/>
<path fill-rule="evenodd" clip-rule="evenodd" d="M445.658 245.447C444.861 245.708 443.994 245.282 443.733 244.484C443.472 243.686 443.898 242.82 444.696 242.558L457.074 238.391C457.871 238.13 458.738 238.556 458.999 239.354C459.26 240.152 458.834 241.018 458.036 241.279L445.658 245.447Z" fill="black"/>
<path fill-rule="evenodd" clip-rule="evenodd" d="M450.843 216.51C450.224 215.933 450.197 214.97 450.761 214.351C451.338 213.732 452.301 213.705 452.92 214.268L462.478 223.167C463.097 223.744 463.125 224.707 462.561 225.326C461.983 225.945 461.021 225.972 460.402 225.409L450.843 216.51Z" fill="black"/>
<path fill-rule="evenodd" clip-rule="evenodd" d="M473.77 313.498L476.974 303.871C482.97 305.493 490.328 304.544 495.706 301.821L497.356 311.215C489.682 314.571 480.632 314.887 473.77 313.498Z" fill="#009EE3"/>
<path fill-rule="evenodd" clip-rule="evenodd" d="M577.812 292.498L571.334 300.282C566.3 296.637 558.832 294.712 552.85 295.358L554.624 285.979C562.972 285.552 571.87 288.757 577.812 292.498Z" fill="#009EE3"/>
<path fill-rule="evenodd" clip-rule="evenodd" d="M586.874 317.375L578.691 313.992L570.494 310.609L571.182 301.779L571.869 292.949L580.479 290.873L589.088 288.796L593.723 296.346L598.358 303.897L595.965 306.703L589.047 301.311L583.298 302.852L581.964 308.243L588.525 315.422L586.874 317.375Z" fill="#009EE3"/>
<path fill-rule="evenodd" clip-rule="evenodd" d="M511.467 285.013L530.941 280.585C531.739 280.406 532.509 280.915 532.66 281.712L533.444 285.825C533.596 286.622 533.073 287.434 532.275 287.613L512.801 292.041C512.003 292.22 511.233 291.711 511.081 290.913L510.298 286.801C510.146 286.003 510.669 285.192 511.467 285.013Z" fill="#009EE3"/>
<path fill-rule="evenodd" clip-rule="evenodd" d="M463.164 257.274C465.667 256.6 468.446 258.856 469.367 262.308C470.288 265.76 468.996 269.102 466.479 269.776C463.976 270.45 461.198 268.194 460.276 264.742C459.368 261.29 460.647 257.948 463.164 257.274Z" fill="#F28C27"/>
<path fill-rule="evenodd" clip-rule="evenodd" d="M466.851 250.645C469.312 249.82 472.764 254.455 474.552 261.015C476.34 267.575 475.79 273.558 473.328 274.383C470.866 275.208 467.414 270.573 465.627 264.013C463.839 257.453 464.389 251.47 466.851 250.645Z" fill="#009EE3"/>
<path fill-rule="evenodd" clip-rule="evenodd" d="M559.411 230.306C556.895 230.952 555.602 234.294 556.496 237.746C557.404 241.198 560.168 243.467 562.685 242.821C565.202 242.175 566.494 238.833 565.6 235.381C564.693 231.915 561.928 229.645 559.411 230.306Z" fill="#F28C27"/>
<path fill-rule="evenodd" clip-rule="evenodd" d="M553.495 226.317C550.937 226.812 550.236 232.547 551.914 239.121C553.592 245.709 557.016 250.646 559.574 250.151C562.132 249.656 562.834 243.921 561.156 237.347C559.478 230.773 556.04 225.835 553.495 226.317Z" fill="#009EE3"/>
<path fill-rule="evenodd" clip-rule="evenodd" d="M473.426 228.213L535.219 211.42C541.669 209.674 548.477 213.483 550.348 219.892L562.175 260.409C564.046 266.818 560.305 273.502 553.855 275.263L492.061 292.055C485.611 293.802 478.803 289.992 476.933 283.583L465.105 243.066C463.235 236.644 466.975 229.96 473.426 228.213Z" fill="#FF8002"/>
<path fill-rule="evenodd" clip-rule="evenodd" d="M479.323 202.729C481.441 202.316 483.49 203.705 483.903 205.837C484.315 207.955 482.926 210.004 480.795 210.417C478.677 210.829 476.627 209.44 476.215 207.322C475.816 205.191 477.205 203.141 479.323 202.729Z" fill="black"/>
<path fill-rule="evenodd" clip-rule="evenodd" d="M482.911 209.234C482.499 209.674 481.99 210.018 481.398 210.238L487.711 224.322L493.199 222.836L482.911 209.234Z" fill="black"/>
<path fill-rule="evenodd" clip-rule="evenodd" d="M513.364 194.049C511.329 194.751 510.242 196.979 510.944 199.028C511.645 201.063 513.873 202.15 515.922 201.448C517.958 200.747 519.044 198.519 518.343 196.47C517.628 194.434 515.4 193.348 513.364 194.049Z" fill="black"/>
<path fill-rule="evenodd" clip-rule="evenodd" d="M513.502 201.489C514.08 201.668 514.685 201.709 515.304 201.599L516.817 216.412L511.439 217.869L513.502 201.489Z" fill="black"/>
<path fill-rule="evenodd" clip-rule="evenodd" d="M506.692 275.593C506.239 274.878 506.445 273.943 507.146 273.489C507.861 273.035 508.797 273.241 509.25 273.943C510.117 275.29 511.121 276.157 512.152 276.652C513.005 277.051 513.885 277.202 514.738 277.12C515.591 277.051 516.402 276.748 517.131 276.281C517.998 275.73 518.713 274.933 519.153 273.97C519.51 273.214 520.418 272.884 521.188 273.241C521.945 273.599 522.275 274.506 521.917 275.277C521.216 276.762 520.116 277.986 518.781 278.852C517.654 279.581 516.361 280.035 514.999 280.159C513.638 280.283 512.221 280.063 510.86 279.416C509.333 278.687 507.889 277.45 506.692 275.593Z" fill="black"/>
<path fill-rule="evenodd" clip-rule="evenodd" d="M508.331 232.436C528.246 227.031 546.552 231.047 549.22 241.43C551.888 251.8 537.901 264.604 517.986 270.009C498.071 275.414 479.766 271.398 477.098 261.015C474.43 250.645 488.417 237.841 508.331 232.436Z" fill="black"/>
<path fill-rule="evenodd" clip-rule="evenodd" d="M494.234 242.299C501.757 240.593 509.239 245.297 510.958 252.82C512.663 260.343 507.96 267.825 500.437 269.544C492.914 271.249 485.432 266.545 483.713 259.022C482.007 251.499 486.711 244.018 494.234 242.299Z" fill="white"/>
<path fill-rule="evenodd" clip-rule="evenodd" d="M525.564 233.99C533.087 232.285 540.569 236.988 542.288 244.511C543.994 252.034 539.29 259.516 531.767 261.235C524.244 262.94 516.762 258.237 515.043 250.714C513.324 243.191 518.041 235.709 525.564 233.99Z" fill="white"/>
<path fill-rule="evenodd" clip-rule="evenodd" d="M493.957 248.348C494.755 248.169 495.566 248.114 496.337 248.197C495.126 249.132 494.494 250.727 494.851 252.323C495.346 254.509 497.533 255.885 499.72 255.39C501.068 255.087 502.113 254.138 502.594 252.942C502.732 253.285 502.842 253.643 502.924 254.001C503.846 258.044 501.315 262.06 497.272 262.981C493.228 263.903 489.212 261.372 488.291 257.329C487.397 253.272 489.928 249.256 493.957 248.348Z" fill="black"/>
<path fill-rule="evenodd" clip-rule="evenodd" d="M525.288 240.03C526.086 239.851 526.897 239.796 527.668 239.878C526.457 240.814 525.825 242.409 526.182 244.004C526.677 246.191 528.864 247.566 531.051 247.071C532.399 246.769 533.444 245.82 533.925 244.623C534.063 244.967 534.173 245.325 534.255 245.682C535.177 249.726 532.646 253.742 528.603 254.663C524.559 255.585 520.543 253.054 519.622 249.01C518.714 244.967 521.245 240.951 525.288 240.03Z" fill="black"/>
<path fill-rule="evenodd" clip-rule="evenodd" d="M591.249 290.408C589.131 289.074 570.812 283.242 570.564 287.946C570.358 291.824 579.806 292.141 579.16 294.093C578.486 296.129 574.896 296.225 571.486 295.95C567.071 295.593 558.516 291.975 557.787 294.066C557.402 295.18 559.424 297.229 562.326 298.825C562.298 299.815 562.505 300.64 562.904 301.328C562.587 304.422 563.908 306.086 565.641 306.98L565.365 306.925C564.155 312.385 575.089 311.739 575.089 311.739L590.699 312.289L591.249 290.408Z" fill="#FDD89E"/>
<path fill-rule="evenodd" clip-rule="evenodd" d="M562.052 298.549C562.08 298.521 562.107 298.494 562.121 298.48C562.204 298.411 562.314 298.37 562.424 298.356C562.534 298.342 562.644 298.37 562.74 298.425C563.909 299.057 565.436 299.745 567.114 300.158C568.393 300.474 569.754 300.639 571.143 300.529C571.295 300.515 571.432 300.57 571.542 300.653C571.652 300.749 571.721 300.873 571.735 301.024C571.748 301.175 571.693 301.313 571.611 301.423C571.515 301.533 571.391 301.602 571.24 301.616C569.727 301.739 568.255 301.561 566.88 301.217C565.119 300.777 563.524 300.075 562.3 299.415L562.231 299.374C562.094 299.305 562.011 299.181 561.97 299.044C561.942 298.934 561.942 298.824 561.97 298.714V298.7L562.011 298.631C561.997 298.617 562.025 298.59 562.052 298.549ZM564.748 306.319L564.789 306.278C564.886 306.209 564.996 306.154 565.106 306.154C565.216 306.154 565.326 306.182 565.436 306.237C566.343 306.814 567.361 307.131 568.365 307.282C569.823 307.516 571.253 307.406 572.175 307.282C572.326 307.268 572.464 307.309 572.574 307.392C572.684 307.474 572.766 307.598 572.78 307.75C572.794 307.901 572.752 308.038 572.67 308.148C572.587 308.258 572.464 308.341 572.312 308.355C571.308 308.492 569.754 308.602 568.159 308.355C567.031 308.176 565.876 307.805 564.831 307.144C564.707 307.062 564.624 306.938 564.597 306.801C564.569 306.663 564.583 306.512 564.665 306.388L564.72 306.319H564.748ZM562.231 300.969C562.204 301.079 562.217 301.203 562.272 301.327C562.479 301.753 562.754 302.166 563.084 302.537C563.414 302.908 563.813 303.238 564.267 303.541C565.147 304.132 566.22 304.586 567.416 304.889C568.613 305.191 569.933 305.356 571.322 305.356C571.473 305.356 571.611 305.301 571.707 305.191C571.803 305.095 571.872 304.958 571.872 304.806C571.872 304.655 571.817 304.517 571.707 304.421C571.611 304.325 571.473 304.256 571.322 304.256C570.029 304.256 568.805 304.105 567.705 303.83C566.618 303.555 565.656 303.142 564.872 302.62C564.5 302.372 564.17 302.097 563.909 301.794C563.634 301.506 563.428 301.175 563.263 300.845C563.194 300.708 563.084 300.612 562.946 300.57C562.809 300.529 562.658 300.529 562.534 300.598C562.492 300.625 562.465 300.639 562.424 300.667C562.327 300.735 562.259 300.845 562.231 300.969Z" fill="black"/>
<path fill-rule="evenodd" clip-rule="evenodd" d="M465.627 274.604C467.635 269.474 476.176 264.894 479.861 272.252L480.068 272.871C480.233 272.83 481.691 274.288 481.801 276.419C483.231 277.877 483.492 279.761 483.176 281.549L483.561 281.769C486.394 283.42 485.803 290.585 482.612 290.475C482.667 293.817 475.199 295.949 473.865 294.684C469.23 291.094 463.083 281.095 465.627 274.604Z" fill="#FDD89E"/>
<path fill-rule="evenodd" clip-rule="evenodd" d="M481.773 273.984C482.158 274.741 482.296 275.566 482.337 276.198V276.336C482.805 276.735 483.121 277.244 483.341 277.766C483.603 278.413 483.726 279.1 483.768 279.719C483.795 280.077 483.795 280.407 483.781 280.696C483.754 281.177 483.699 281.535 483.685 281.631V281.645L483.671 281.686V281.7L483.63 281.755V281.768L483.616 281.782L483.589 281.796L483.575 281.81L483.561 281.823L483.534 281.837L483.52 281.851C483.506 281.865 483.493 281.865 483.465 281.865L483.438 281.878H483.424H483.396H483.383C483.355 281.878 483.341 281.865 483.314 281.865H483.3L483.245 281.837C482.42 281.356 481.608 281.26 480.879 281.342C479.408 281.507 478.321 282.401 478.294 282.415C478.184 282.511 478.046 282.539 477.922 282.539C477.785 282.525 477.661 282.47 477.565 282.36C477.469 282.25 477.441 282.112 477.441 281.988C477.455 281.865 477.51 281.727 477.62 281.645C477.634 281.631 478.968 280.531 480.769 280.338C481.485 280.256 482.269 280.324 483.066 280.641C483.08 280.311 483.094 279.912 483.052 279.472C482.97 278.55 482.667 277.491 481.87 276.886L481.842 276.872C481.815 276.845 481.773 276.831 481.746 276.804C481.155 276.405 480.398 276.363 479.655 276.487C478.225 276.721 476.863 277.546 476.657 277.656L476.63 277.67C476.506 277.752 476.368 277.766 476.245 277.739C476.135 277.711 476.025 277.656 475.942 277.546L475.915 277.505C475.832 277.381 475.818 277.244 475.846 277.12C475.873 276.996 475.956 276.872 476.066 276.79C476.162 276.721 477.785 275.69 479.545 275.428C480.219 275.332 480.921 275.346 481.567 275.566C481.512 275.194 481.402 274.809 481.251 274.452C481.031 273.97 480.701 273.516 480.206 273.186C479.614 272.788 478.858 272.746 478.115 272.87C476.575 273.118 475.117 274.053 475.089 274.067L475.076 274.08C474.952 274.149 474.828 274.177 474.704 274.149C474.58 274.122 474.457 274.053 474.388 273.929V273.915C474.319 273.792 474.292 273.654 474.319 273.53C474.347 273.406 474.429 273.283 474.539 273.214C474.635 273.145 476.258 272.114 478.019 271.852C478.954 271.715 479.944 271.797 480.769 272.347C481.058 272.87 481.485 273.406 481.773 273.984ZM482.956 290.117C483.039 290.199 483.107 290.323 483.107 290.447V290.502C483.107 290.639 483.039 290.777 482.942 290.859C482.846 290.942 482.722 290.997 482.571 290.997C481.347 290.956 480.536 290.502 479.999 289.938C479.765 289.69 479.6 289.429 479.463 289.154C478.995 289.236 478.404 289.346 478.101 289.346C477.977 289.36 477.854 289.319 477.757 289.25C477.661 289.181 477.579 289.058 477.565 288.934L477.551 288.879C477.537 288.755 477.579 288.631 477.647 288.535C477.716 288.439 477.84 288.356 477.964 288.342C478.266 288.274 478.693 288.219 479.105 288.164C478.981 287.614 478.995 287.187 478.995 287.173C478.995 287.036 479.064 286.898 479.16 286.816C479.257 286.72 479.394 286.678 479.532 286.678C479.669 286.678 479.807 286.747 479.889 286.843C479.972 286.94 480.027 287.063 480.027 287.215C480.027 287.256 480.013 287.779 480.219 288.356C480.247 288.397 480.261 288.452 480.274 288.508C480.384 288.769 480.536 289.016 480.742 289.25C481.113 289.663 481.705 289.965 482.612 290.007C482.75 289.965 482.874 290.02 482.956 290.117Z" fill="black"/>
<path fill-rule="evenodd" clip-rule="evenodd" d="M631.559 278.743C633.499 268.799 631.958 251.319 629.373 241.981C646.028 250.604 666.726 282.979 670.316 293.968C671.444 297.434 671.279 302.646 668.886 305.576C657.759 319.287 617.036 317.885 590.699 312.287C586.05 309.963 587.15 298.52 588.718 293.473C589.653 290.461 593.284 289.429 596.75 289.195L639.151 286.362L631.559 278.743Z" fill="#2F2483"/>
<path fill-rule="evenodd" clip-rule="evenodd" d="M456.121 292.537L464.978 292.812L473.822 293.087L476.297 301.587L478.773 310.086L471.456 315.065L464.139 320.044L457.139 314.625L450.139 309.206L451.39 305.726L459.752 308.326L464.58 304.86L463.933 299.345L455.255 294.944L456.121 292.537Z" fill="#009EE3"/>
<path fill-rule="evenodd" clip-rule="evenodd" d="M500.189 292.278L546.565 280.34C551.64 279.034 554.514 282.499 555.436 287.657L561.831 323.058C562.766 328.215 559.782 330.044 554.817 331.708C541.009 336.343 526.059 339.96 510.614 340.896C505.388 341.212 502.555 340.359 500.945 333.166L495.155 303.047C494.151 297.889 495.114 293.584 500.189 292.278Z" fill="#FF8002"/>
<path fill-rule="evenodd" clip-rule="evenodd" d="M525.152 298.589C532.537 297.173 539.662 302 541.092 309.386C542.508 316.771 537.681 323.895 530.296 325.326C522.91 326.742 515.786 321.915 514.356 314.529C512.939 307.144 517.78 300.006 525.152 298.589Z" fill="#009EE3"/>
<path d="M599.803 152.035C608.196 152.035 615 145.231 615 136.838C615 128.445 608.196 121.641 599.803 121.641C591.41 121.641 584.605 128.445 584.605 136.838C584.605 145.231 591.41 152.035 599.803 152.035Z" fill="#EF7C00"/>
<path fill-rule="evenodd" clip-rule="evenodd" d="M519.196 392.909C514.465 385.138 509.184 358.704 506.199 344.855L530.212 342.146C536.855 356.133 546.62 374.122 548.779 384.162C549.302 389.539 530.061 396.017 522.772 395.315C520.819 395.137 520.296 394.71 519.196 392.909Z" fill="#009EE3"/>
<path fill-rule="evenodd" clip-rule="evenodd" d="M562.779 369.033C557.581 367.974 548.93 352.97 541.943 338.501L564.155 331.845C565.544 334.747 568.033 339.877 569.972 343.356C572.517 342.751 585.637 334.967 589.956 335.544C595.278 337.236 600.367 355.789 598.854 358.182C596.832 361.469 569.904 370.821 562.779 369.033Z" fill="#009EE3"/>
<path fill-rule="evenodd" clip-rule="evenodd" d="M506.199 344.855C506.983 348.444 507.712 352.02 508.496 355.61C509.321 359.365 510.201 363.119 511.013 366.888L517.491 365.072L516.019 358.787L527.558 355.431L530.212 361.097L537.969 357.989L530.212 342.146L506.199 344.855Z" fill="#FF8002"/>
<path fill-rule="evenodd" clip-rule="evenodd" d="M541.943 338.501C543.608 341.857 545.258 345.227 547.046 348.527C548.71 351.608 550.443 354.689 552.341 357.701L555.256 354.386L553.07 351.512L559.355 344.842L563.646 347.166L569.986 343.356L564.169 331.845L541.943 338.501Z" fill="#FF8002"/>
<path fill-rule="evenodd" clip-rule="evenodd" d="M510.82 366.145L516.583 364.536L515.111 358.264L527.971 354.523L530.597 360.121L537.694 357.274L538.258 358.691L529.827 362.074L527.145 356.353L516.927 359.323L518.412 365.609L511.233 367.617L510.82 366.145Z" fill="black"/>
<path fill-rule="evenodd" clip-rule="evenodd" d="M551.764 357.206L554.267 354.345L552.053 351.457L559.19 343.879L563.619 346.272L569.574 342.696L570.358 344.003L563.646 348.033L559.493 345.777L554.06 351.553L556.233 354.414L552.919 358.21L551.764 357.206Z" fill="black"/>
<path fill-rule="evenodd" clip-rule="evenodd" d="M540.47 468.016C542.918 468.016 544.912 466.022 544.912 463.574C544.912 461.126 542.918 459.132 540.47 459.132C538.022 459.132 536.027 461.126 536.027 463.574C536.014 466.022 538.022 468.016 540.47 468.016Z" fill="white"/>
<path fill-rule="evenodd" clip-rule="evenodd" d="M589.42 463.684C591.249 463.684 592.748 461.937 592.748 459.805C592.748 457.673 591.249 455.927 589.42 455.927C587.591 455.927 586.092 457.673 586.092 459.805C586.092 461.937 587.591 463.684 589.42 463.684Z" fill="white"/>
<path fill-rule="evenodd" clip-rule="evenodd" d="M534.448 306.236C535.026 307.061 534.902 307.776 534.077 308.354L527.173 313.195L535.452 314.487C535.851 314.556 536.154 314.694 536.36 314.914H536.387L536.401 314.955C536.663 315.258 536.731 315.698 536.621 316.248C536.429 317.238 535.837 317.609 534.847 317.458L524.175 315.794L524.739 318.283C524.959 319.274 524.573 319.893 523.597 320.113C522.607 320.333 522.002 319.948 521.782 318.957C520.791 314.515 519.884 310.458 518.811 305.603C518.591 304.64 518.99 304.049 519.966 303.829C520.943 303.609 521.534 303.994 521.754 304.956L523.363 312.163L532.344 305.864C533.183 305.273 533.871 305.41 534.448 306.236Z" fill="white" stroke="white" stroke-width="1.94925" stroke-miterlimit="22.9256"/>
<path fill-rule="evenodd" clip-rule="evenodd" d="M595.321 137.526L603.339 136.879C604.385 136.797 604.866 136.219 604.783 135.146L604.522 131.942C604.44 130.869 603.862 130.388 602.789 130.47L594.826 131.103L595.321 137.526ZM594.207 127.94L599.667 127.5L602.528 127.266C605.732 127.005 607.465 128.476 607.727 131.694L607.988 134.899C608.249 138.103 606.778 139.836 603.587 140.084L595.569 140.73L595.789 143.907L595.858 144.705C595.94 145.764 595.459 146.355 594.4 146.438C593.382 146.52 592.722 145.957 592.639 144.911L591.608 131.021C591.484 129.356 592.777 128.05 594.207 127.94Z" fill="white" stroke="white" stroke-width="1.94925" stroke-miterlimit="22.9256"/>
<path fill-rule="evenodd" clip-rule="evenodd" d="M539.055 463.794L541.572 463.588C541.902 463.56 542.053 463.381 542.025 463.051L541.943 462.047C541.915 461.717 541.737 461.552 541.393 461.58L538.89 461.786L539.055 463.794ZM538.711 460.768L540.43 460.631L541.338 460.562C542.342 460.48 542.892 460.947 542.974 461.951L543.057 462.955C543.139 463.959 542.672 464.509 541.668 464.592L539.151 464.798L539.22 465.802L539.234 466.05C539.261 466.38 539.11 466.572 538.78 466.6C538.463 466.627 538.257 466.448 538.23 466.118L537.899 461.745C537.844 461.222 538.257 460.81 538.711 460.768Z" fill="black" stroke="black" stroke-width="0.779671" stroke-miterlimit="22.9256"/>
<path fill-rule="evenodd" clip-rule="evenodd" d="M588.278 459.981L590.327 459.816C590.588 459.789 590.712 459.651 590.698 459.376L590.629 458.565C590.602 458.29 590.464 458.166 590.189 458.193L588.154 458.358L588.278 459.981ZM587.989 457.533L589.378 457.423L590.107 457.368C590.918 457.299 591.358 457.685 591.427 458.496L591.496 459.307C591.565 460.119 591.193 460.559 590.368 460.628L588.319 460.793L588.374 461.604L588.388 461.81C588.415 462.086 588.291 462.237 588.016 462.251C587.755 462.264 587.59 462.127 587.576 461.866L587.315 458.317C587.301 457.891 587.631 457.561 587.989 457.533Z" fill="black" stroke="black" stroke-width="0.779671" stroke-miterlimit="22.9256"/>
<defs>
<filter id="filter0_ddiiii_92_1444" x="442.445" y="35.3633" width="64.7363" height="67.0473" filterUnits="userSpaceOnUse" color-interpolation-filters="sRGB">
<feFlood flood-opacity="0" result="BackgroundImageFix"/>
<feColorMatrix in="SourceAlpha" type="matrix" values="0 0 0 0 0 0 0 0 0 0 0 0 0 0 0 0 0 0 127 0" result="hardAlpha"/>
<feOffset dy="7.02037"/>
<feGaussianBlur stdDeviation="9.82852"/>
<feColorMatrix type="matrix" values="0 0 0 0 0.625 0 0 0 0 0.819999 0 0 0 0 1 0 0 0 0.16 0"/>
<feBlend mode="normal" in2="BackgroundImageFix" result="effect1_dropShadow_92_1444"/>
<feColorMatrix in="SourceAlpha" type="matrix" values="0 0 0 0 0 0 0 0 0 0 0 0 0 0 0 0 0 0 127 0" result="hardAlpha"/>
<feOffset dy="2.23063"/>
<feGaussianBlur stdDeviation="4.96821"/>
<feComposite in2="hardAlpha" operator="out"/>
<feColorMatrix type="matrix" values="0 0 0 0 1 0 0 0 0 1 0 0 0 0 1 0 0 0 0.56 0"/>
<feBlend mode="normal" in2="effect1_dropShadow_92_1444" result="effect2_dropShadow_92_1444"/>
<feBlend mode="normal" in="SourceGraphic" in2="effect2_dropShadow_92_1444" result="shape"/>
<feColorMatrix in="SourceAlpha" type="matrix" values="0 0 0 0 0 0 0 0 0 0 0 0 0 0 0 0 0 0 127 0" result="hardAlpha"/>
<feOffset dy="0.811137"/>
<feGaussianBlur stdDeviation="0.304176"/>
<feComposite in2="hardAlpha" operator="arithmetic" k2="-1" k3="1"/>
<feColorMatrix type="matrix" values="0 0 0 0 1 0 0 0 0 1 0 0 0 0 1 0 0 0 1 0"/>
<feBlend mode="normal" in2="shape" result="effect3_innerShadow_92_1444"/>
<feColorMatrix in="SourceAlpha" type="matrix" values="0 0 0 0 0 0 0 0 0 0 0 0 0 0 0 0 0 0 127 0" result="hardAlpha"/>
<feOffset dy="2.23063"/>
<feGaussianBlur stdDeviation="2.12923"/>
<feComposite in2="hardAlpha" operator="arithmetic" k2="-1" k3="1"/>
<feColorMatrix type="matrix" values="0 0 0 0 1 0 0 0 0 1 0 0 0 0 1 0 0 0 0.6 0"/>
<feBlend mode="normal" in2="effect3_innerShadow_92_1444" result="effect4_innerShadow_92_1444"/>
<feColorMatrix in="SourceAlpha" type="matrix" values="0 0 0 0 0 0 0 0 0 0 0 0 0 0 0 0 0 0 127 0" result="hardAlpha"/>
<feOffset dx="2.63619" dy="-2.63619"/>
<feGaussianBlur stdDeviation="1.72367"/>
<feComposite in2="hardAlpha" operator="arithmetic" k2="-1" k3="1"/>
<feColorMatrix type="matrix" values="0 0 0 0 1 0 0 0 0 1 0 0 0 0 1 0 0 0 0.25 0"/>
<feBlend mode="normal" in2="effect4_innerShadow_92_1444" result="effect5_innerShadow_92_1444"/>
<feColorMatrix in="SourceAlpha" type="matrix" values="0 0 0 0 0 0 0 0 0 0 0 0 0 0 0 0 0 0 127 0" result="hardAlpha"/>
<feOffset dy="-1.01392"/>
<feGaussianBlur stdDeviation="1.01392"/>
<feComposite in2="hardAlpha" operator="arithmetic" k2="-1" k3="1"/>
<feColorMatrix type="matrix" values="0 0 0 0 1 0 0 0 0 1 0 0 0 0 1 0 0 0 1 0"/>
<feBlend mode="normal" in2="effect5_innerShadow_92_1444" result="effect6_innerShadow_92_1444"/>
</filter>
<filter id="filter1_ddiiii_92_1444" x="437.827" y="86.2081" width="64.7363" height="67.8177" filterUnits="userSpaceOnUse" color-interpolation-filters="sRGB">
<feFlood flood-opacity="0" result="BackgroundImageFix"/>
<feColorMatrix in="SourceAlpha" type="matrix" values="0 0 0 0 0 0 0 0 0 0 0 0 0 0 0 0 0 0 127 0" result="hardAlpha"/>
<feOffset dy="7.02037"/>
<feGaussianBlur stdDeviation="9.82852"/>
<feColorMatrix type="matrix" values="0 0 0 0 0.625 0 0 0 0 0.819999 0 0 0 0 1 0 0 0 0.16 0"/>
<feBlend mode="normal" in2="BackgroundImageFix" result="effect1_dropShadow_92_1444"/>
<feColorMatrix in="SourceAlpha" type="matrix" values="0 0 0 0 0 0 0 0 0 0 0 0 0 0 0 0 0 0 127 0" result="hardAlpha"/>
<feOffset dy="2.23063"/>
<feGaussianBlur stdDeviation="4.96821"/>
<feComposite in2="hardAlpha" operator="out"/>
<feColorMatrix type="matrix" values="0 0 0 0 1 0 0 0 0 1 0 0 0 0 1 0 0 0 0.56 0"/>
<feBlend mode="normal" in2="effect1_dropShadow_92_1444" result="effect2_dropShadow_92_1444"/>
<feBlend mode="normal" in="SourceGraphic" in2="effect2_dropShadow_92_1444" result="shape"/>
<feColorMatrix in="SourceAlpha" type="matrix" values="0 0 0 0 0 0 0 0 0 0 0 0 0 0 0 0 0 0 127 0" result="hardAlpha"/>
<feOffset dy="0.811137"/>
<feGaussianBlur stdDeviation="0.304176"/>
<feComposite in2="hardAlpha" operator="arithmetic" k2="-1" k3="1"/>
<feColorMatrix type="matrix" values="0 0 0 0 1 0 0 0 0 1 0 0 0 0 1 0 0 0 1 0"/>
<feBlend mode="normal" in2="shape" result="effect3_innerShadow_92_1444"/>
<feColorMatrix in="SourceAlpha" type="matrix" values="0 0 0 0 0 0 0 0 0 0 0 0 0 0 0 0 0 0 127 0" result="hardAlpha"/>
<feOffset dy="2.23063"/>
<feGaussianBlur stdDeviation="2.12923"/>
<feComposite in2="hardAlpha" operator="arithmetic" k2="-1" k3="1"/>
<feColorMatrix type="matrix" values="0 0 0 0 1 0 0 0 0 1 0 0 0 0 1 0 0 0 0.6 0"/>
<feBlend mode="normal" in2="effect3_innerShadow_92_1444" result="effect4_innerShadow_92_1444"/>
<feColorMatrix in="SourceAlpha" type="matrix" values="0 0 0 0 0 0 0 0 0 0 0 0 0 0 0 0 0 0 127 0" result="hardAlpha"/>
<feOffset dx="2.63619" dy="-2.63619"/>
<feGaussianBlur stdDeviation="1.72367"/>
<feComposite in2="hardAlpha" operator="arithmetic" k2="-1" k3="1"/>
<feColorMatrix type="matrix" values="0 0 0 0 1 0 0 0 0 1 0 0 0 0 1 0 0 0 0.25 0"/>
<feBlend mode="normal" in2="effect4_innerShadow_92_1444" result="effect5_innerShadow_92_1444"/>
<feColorMatrix in="SourceAlpha" type="matrix" values="0 0 0 0 0 0 0 0 0 0 0 0 0 0 0 0 0 0 127 0" result="hardAlpha"/>
<feOffset dy="-1.01392"/>
<feGaussianBlur stdDeviation="1.01392"/>
<feComposite in2="hardAlpha" operator="arithmetic" k2="-1" k3="1"/>
<feColorMatrix type="matrix" values="0 0 0 0 1 0 0 0 0 1 0 0 0 0 1 0 0 0 1 0"/>
<feBlend mode="normal" in2="effect5_innerShadow_92_1444" result="effect6_innerShadow_92_1444"/>
</filter>
</defs>
</svg>
