<svg width="930" height="653" viewBox="0 0 930 653" fill="none" xmlns="http://www.w3.org/2000/svg">
<path d="M295.937 415.875C335.115 415.875 366.875 384.115 366.875 344.937C366.875 305.76 335.115 274 295.937 274C256.76 274 225 305.76 225 344.937C225 384.115 256.76 415.875 295.937 415.875Z" fill="#FFBF3B"/>
<path d="M280.748 275.432C252.309 281.031 230.991 303.872 225.766 332.432C232.167 331.91 233.573 336.92 238.451 340.636C251.721 350.726 257.214 342.534 269.95 339.62C281.002 337.094 293.698 343.255 299.325 328.875C304.176 316.473 291.413 307.492 289.502 296.347C287.725 285.856 286.375 279.922 280.748 275.432Z" fill="#FFD980"/>
<path d="M364.373 363.593C363.504 363.152 362.568 362.658 361.553 361.949C357.436 359.089 353.253 356.67 348.95 353.356C345.916 351.017 343.685 348.639 339.702 348.251C329.118 347.249 325.469 356.751 320.952 363.794C315.072 372.948 306.158 378.32 304.768 389.386C303.899 396.362 302.723 407.187 302.95 415.5C332.539 412.613 356.768 391.538 364.373 363.593Z" fill="#FFD980"/>
<path d="M266.888 360.412C243.233 360.372 251.386 390.522 268.011 395.426C278.381 398.487 288.271 391.751 288.859 381.153C289.661 366.56 277.112 364.555 266.888 360.412Z" fill="#FFD980"/>
<path d="M331.033 309.629C330.111 309.803 329.095 311.219 328.801 311.968C327.264 315.817 327.652 320.641 331.421 323.073C334.374 324.971 340.388 325.826 341.831 321.643C342.473 319.786 342.366 317.581 341.698 315.763C340.174 311.607 336.793 310.364 332.824 309.629H331.033Z" fill="#FFD980"/>
<path d="M102.029 -79.9813L0 -7.99988C42.4932 4.89561 42.5305 259.085 244.391 161.776C400.062 181.971 196.416 285.22 340.216 337.147C403.5 360 517.377 296.346 567.058 335.22C628.121 383.002 551.278 437.448 551.278 437.448L643.284 502C692.348 396.478 785.777 448.977 813.8 387.906C858.727 289.982 736.732 278.229 749.835 198.834C762.209 123.782 925.143 146.728 933.155 56.7221C938.415 -2.36507 875.724 12.1774 865.428 -25.6855C858.633 -50.7091 867.076 -65.1393 878.532 -80H102.029V-79.9813Z" fill="#009EE3"/>
<path d="M509.123 -285.369L368.292 -313.195C393.449 -277.019 266.346 -86.9508 478.006 -25.6923C585.885 87.9714 379.776 24.6543 449.714 157.915C483.631 222.52 609.555 242.785 625.137 301.677C644.286 374.063 553.598 362.88 553.598 362.88L586.778 466.756C685.805 424.545 727.083 520.924 784.109 496.257C875.541 456.699 788.634 370.465 844.845 323.474C897.971 279.045 1009.83 399.273 1068.3 341.624C1106.68 303.779 1050.06 273.82 1064.15 240.827C1073.47 219.027 1088.35 214.364 1105.79 211.328L509.134 -285.382L509.123 -285.369Z" fill="#009EE3"/>
<path d="M788.404 310.594V-7.01172" stroke="#FBFFFF" stroke-miterlimit="10" stroke-linecap="round" stroke-linejoin="round"/>
<path d="M613.524 280.063L619.428 287.677L610.166 290.445L604.73 298.405L599.259 290.463L589.997 287.763L595.866 280.097L595.571 270.459L604.66 273.66L613.749 270.407L613.524 280.063Z" fill="#FDCE64"/>
<path d="M151.7 82.9808L161.204 86.8569L154.175 94.315L153.431 104.542L144.151 100.164L134.197 102.621L135.495 92.4461L130.076 83.7422L140.152 81.8387L146.766 74L151.7 82.9808Z" fill="white"/>
<path d="M744.15 7.63034C744.15 9.5857 742.557 11.1777 740.601 11.1777C738.645 11.1777 737.052 9.5857 737.052 7.63034C737.052 5.67498 738.645 4.08301 740.601 4.08301C742.574 4.10031 744.15 5.67498 744.15 7.63034Z" fill="#FBFFFF"/>
<path d="M496.099 69.5971C496.099 71.5525 494.506 73.1445 492.55 73.1445C490.593 73.1445 489.001 71.5525 489.001 69.5971C489.001 67.6418 490.593 66.0498 492.55 66.0498C494.506 66.0671 496.099 67.6418 496.099 69.5971Z" fill="#FBFFFF"/>
<path d="M577.787 130.175C577.787 132.131 576.194 133.723 574.238 133.723C572.282 133.723 570.689 132.131 570.689 130.175C570.689 128.22 572.282 126.628 574.238 126.628C576.212 126.628 577.787 128.22 577.787 130.175Z" fill="#FBFFFF"/>
<path d="M712.392 227.202C712.392 229.157 710.799 230.749 708.843 230.749C706.887 230.749 705.294 229.157 705.294 227.202C705.294 225.246 706.887 223.654 708.843 223.654C710.817 223.654 712.392 225.246 712.392 227.202Z" fill="#FBFFFF"/>
<path d="M411.307 71.5473C411.307 73.5027 409.715 75.0946 407.758 75.0946C405.802 75.0946 404.209 73.5027 404.209 71.5473C404.209 69.592 405.802 68 407.758 68C409.715 68 411.307 69.592 411.307 71.5473Z" fill="#FBFFFF"/>
<path d="M188.636 59.229C188.636 61.1843 187.043 62.7763 185.087 62.7763C183.131 62.7763 181.538 61.1843 181.538 59.229C181.538 57.2736 183.131 55.6816 185.087 55.6816C187.061 55.6989 188.636 57.2736 188.636 59.229Z" fill="#FBFFFF"/>
<path d="M894.449 172.5C890.301 173.614 887.06 176.854 885.945 181C884.83 176.854 881.589 173.614 877.44 172.5C881.589 171.386 884.83 168.146 885.945 164C887.06 168.146 890.301 171.386 894.449 172.5Z" fill="white"/>
<path d="M738.262 133.707C730.662 135.749 724.724 141.685 722.681 149.281C720.638 141.685 714.7 135.749 707.1 133.707C714.7 131.666 720.638 125.73 722.681 118.134C724.724 125.73 730.662 131.666 738.262 133.707Z" fill="#FBFFFF"/>
<path d="M589.447 205.08C581.847 207.121 575.909 213.057 573.866 220.653C571.823 213.057 565.885 207.121 558.285 205.08C565.885 203.038 571.823 197.102 573.866 189.506C575.909 197.085 581.847 203.02 589.447 205.08Z" fill="#FBFFFF"/>
<path d="M625.84 150.517C621.201 151.763 617.565 155.397 616.319 160.034C615.072 155.397 611.436 151.763 606.797 150.517C611.436 149.271 615.072 145.637 616.319 141C617.582 145.637 621.201 149.254 625.84 150.517Z" fill="#FBFFFF"/>
<path d="M392.058 57.568C387.418 58.8139 383.783 62.4478 382.536 67.0852C381.29 62.4478 377.654 58.8139 373.014 57.568C377.654 56.3221 381.29 52.6883 382.536 48.0508C383.783 52.6883 387.418 56.3221 392.058 57.568Z" fill="#FBFFFF"/>
<path d="M170.942 25.1403C166.302 26.3862 162.667 30.02 161.42 34.6575C160.174 30.02 156.538 26.3862 151.898 25.1403C156.538 23.8944 160.174 20.2605 161.42 15.623C162.667 20.2778 166.285 23.8944 170.942 25.1403Z" fill="#FBFFFF"/>
<path d="M675.149 293.113C670.51 294.359 666.874 297.993 665.628 302.63C664.381 297.993 660.745 294.359 656.106 293.113C660.745 291.867 664.381 288.233 665.628 283.596C666.874 288.233 670.51 291.867 675.149 293.113Z" fill="#FBFFFF"/>
<path d="M775.425 172.517C770.785 173.763 767.15 177.397 765.903 182.034C764.657 177.397 761.021 173.763 756.381 172.517C761.021 171.271 764.657 167.637 765.903 163C767.15 167.637 770.768 171.271 775.425 172.517Z" fill="white"/>
<path d="M189.252 263.574C181.651 265.616 175.713 271.551 173.67 279.147C171.627 271.551 165.689 265.616 158.089 263.574C165.689 261.532 171.627 255.596 173.67 248C175.73 255.596 181.669 261.532 189.252 263.574Z" fill="white"/>
<path d="M307.309 50.5737C299.709 52.6155 293.771 58.5508 291.728 66.1473C289.685 58.5508 283.747 52.6155 276.147 50.5737C283.747 48.5318 289.685 42.5965 291.728 35C293.788 42.5965 299.709 48.5318 307.309 50.5737Z" fill="#FBFFFF"/>
<path d="M626.406 263.96L609.18 246.12C603.883 240.635 604.039 231.827 609.527 226.549L665.169 172.872C670.657 167.577 679.469 167.733 684.749 173.218L701.975 191.058C707.273 196.544 707.117 205.352 701.629 210.629L645.987 264.306C640.499 269.584 631.687 269.428 626.406 263.96Z" fill="#0064E3"/>
<path d="M637.348 199.693L609.527 226.532C604.039 231.827 603.883 240.635 609.18 246.103L626.406 263.943C631.704 269.429 640.516 269.584 645.987 264.289L673.808 237.451L637.348 199.693Z" fill="#FFBF3B"/>
<path d="M637.354 199.693L673.814 237.468" stroke="#FBFFFF" stroke-width="3.46081" stroke-miterlimit="10"/>
<path d="M694.464 183.271C699.762 188.756 699.606 197.564 694.118 202.841L638.476 256.519C632.988 261.814 624.176 261.658 618.895 256.173" stroke="#3D4250" stroke-width="3.46081" stroke-miterlimit="10" stroke-linecap="round" stroke-linejoin="round"/>
<path d="M538.761 164.746L524.997 168.398L517.016 138.444L530.78 134.793C535.731 133.478 540.804 136.42 542.12 141.351L545.34 153.412C546.638 158.361 543.712 163.431 538.761 164.746Z" fill="#009EE3"/>
<path d="M558.921 275.545L388.393 320.899L343.882 153.759C340.939 142.684 347.535 131.298 358.615 128.356L509.061 88.332L558.921 275.545Z" fill="#0064E3"/>
<path d="M563.708 293.576L411.219 334.137C401.247 336.784 391.015 330.866 388.366 320.899C385.718 310.932 391.638 300.705 401.61 298.058L554.099 257.497L563.708 293.576Z" fill="#3C2F8E"/>
<path d="M401.622 298.075C393.728 300.168 388.396 307.021 387.824 314.721C392.152 321.124 400.185 324.411 408.08 322.3L550.527 284.404L544.07 260.179L401.622 298.075Z" fill="#5EA5FF"/>
<path d="M490.317 167.635L407.216 189.732C403.529 190.719 399.72 188.521 398.751 184.818L391.324 156.941C390.337 153.256 392.535 149.449 396.24 148.48L479.34 126.382C483.028 125.396 486.837 127.594 487.806 131.297L495.233 159.174C496.203 162.859 494.004 166.649 490.317 167.635Z" fill="#FBFFFF"/>
<path d="M408.416 158.379L474.221 140.885" stroke="#3D4250" stroke-width="3.46081" stroke-miterlimit="10" stroke-linecap="round" stroke-linejoin="round"/>
<path d="M412.121 172.326L477.926 154.814" stroke="#3D4250" stroke-width="3.46081" stroke-miterlimit="10" stroke-linecap="round" stroke-linejoin="round"/>
<path d="M550.513 284.404L554.096 257.514L544.073 260.179L550.513 284.404Z" fill="#3D4250"/>
<path d="M405.509 304.494L545.931 267.151" stroke="#3D4250" stroke-width="3.46081" stroke-miterlimit="10" stroke-linecap="round" stroke-linejoin="round"/>
<path d="M465.882 297.987L548.307 276.062" stroke="#3D4250" stroke-width="3.46081" stroke-miterlimit="10" stroke-linecap="round" stroke-linejoin="round"/>
<path d="M407.885 313.423L453.071 301.396" stroke="#3D4250" stroke-width="3.46081" stroke-miterlimit="10" stroke-linecap="round" stroke-linejoin="round"/>
<path d="M383.295 301.155C374.795 302.055 366.658 296.673 364.39 288.16C361.879 278.764 367.506 269.073 376.907 266.564C381.044 265.457 385.442 265.907 389.268 267.793C390.67 268.485 392.384 267.914 393.094 266.495C393.786 265.076 393.215 263.38 391.813 262.671C386.74 260.162 380.923 259.591 375.452 261.044C368.943 262.775 363.836 267.101 360.893 272.621C360.131 271.288 359.525 269.852 359.127 268.347C356.616 258.95 362.243 249.26 371.644 246.751C375.781 245.644 380.179 246.094 384.005 247.98C385.407 248.672 387.121 248.101 387.831 246.682C388.523 245.263 387.952 243.567 386.532 242.858C381.46 240.349 375.643 239.778 370.172 241.231C363.68 242.961 358.555 247.287 355.612 252.79C354.833 251.44 354.227 250.004 353.829 248.499C351.319 239.103 356.945 229.412 366.346 226.903C370.484 225.796 374.881 226.246 378.707 228.132C380.109 228.824 381.823 228.253 382.533 226.834C383.226 225.415 382.654 223.719 381.235 223.01C376.162 220.501 370.345 219.93 364.874 221.383C358.469 223.096 353.396 227.319 350.436 232.717C349.536 231.247 348.808 229.672 348.358 227.976C345.848 218.58 351.475 208.89 360.875 206.381C365.013 205.273 369.41 205.723 373.236 207.609C374.639 208.301 376.353 207.73 377.062 206.311C377.755 204.893 377.184 203.197 375.764 202.487C370.691 199.978 364.874 199.407 359.404 200.861C352.912 202.591 347.804 206.917 344.844 212.42C344.065 211.07 343.459 209.634 343.061 208.128C342.368 205.55 342.316 202.954 342.766 200.497C343.234 199.874 343.407 199.113 343.286 198.369C345.034 192.762 349.518 188.142 355.595 186.533C359.733 185.425 364.13 185.875 367.956 187.762C369.358 188.454 371.072 187.883 371.782 186.464C372.475 185.045 371.903 183.349 370.501 182.64C365.428 180.13 359.611 179.559 354.141 181.013C347.597 182.761 342.455 187.139 339.512 192.71C338.854 191.499 338.317 190.219 337.954 188.869C335.443 179.473 341.07 169.783 350.47 167.274C354.608 166.166 359.006 166.616 362.832 168.502C364.234 169.194 365.948 168.623 366.658 167.204C367.35 165.785 366.779 164.09 365.359 163.38C360.287 160.871 354.47 160.3 348.999 161.754C336.551 165.059 329.124 177.881 332.431 190.323C333.314 193.662 334.958 196.777 337.174 199.39C336.569 202.678 336.638 206.121 337.555 209.565C338.473 213.025 340.187 216.227 342.524 218.909C341.849 222.283 341.901 225.865 342.836 229.395C343.788 232.977 345.588 236.265 348.047 238.999C347.285 242.494 347.302 246.197 348.289 249.883C349.207 253.344 350.921 256.545 353.258 259.227C352.583 262.602 352.635 266.184 353.569 269.714C354.487 273.174 356.184 276.358 358.521 279.04C357.846 282.415 357.898 285.979 358.85 289.527C361.931 301.068 373.185 308.284 384.732 306.623L383.295 301.155Z" fill="#3D4250"/>
<path d="M748.234 79.8953C753.566 87.4399 764.456 96.0227 782.634 105.211C815.909 122.031 860.921 134.524 866.028 124.436C871.135 114.348 834.398 85.5018 801.124 68.665C782.946 59.4765 769.58 55.7908 760.335 55.9638L748.234 79.8953Z" fill="#FBE3B5"/>
<path d="M836.493 125.283L849.218 100.123C845.842 97.2508 842.119 94.3265 838.12 91.3848L822.868 121.511C827.612 122.999 832.182 124.28 836.493 125.283Z" fill="#343434"/>
<path d="M752.002 48.8376L737.545 77.4023L747.076 82.2218L761.534 53.657L752.002 48.8376Z" fill="#343434"/>
<path d="M739.591 73.3359L749.927 52.8998C749.477 48.9026 747.607 45.1649 744.127 42.1713C744.145 42.1713 744.162 42.154 744.162 42.154C744.162 42.154 744.006 42.0328 743.729 41.8252C742.552 40.8735 741.236 39.991 739.713 39.2296C739.159 38.9527 738.587 38.7278 737.981 38.5201C733.67 36.5821 727.334 34.7651 719.665 35.7169C719.665 35.7169 720.928 36.9801 722.175 38.8316C714.038 40.6658 706.905 43.9882 706.905 43.9882C706.905 43.9882 711.701 67.7467 722.504 73.2147C728.91 76.416 734.83 76.0699 739.591 73.3359Z" fill="#3D4250"/>
<path d="M748.234 79.8945C748.234 79.8945 764.525 58.2817 772.021 57.3646C772.021 57.3646 763.452 54.942 760.353 55.963L748.234 79.8945Z" fill="#FBE3B5"/>
<path d="M710.479 48.4366C709.215 49.0249 708.575 50.4612 708.696 51.8455C709.146 57.1059 710.202 74.012 706.722 87.0939C702.55 102.789 709.579 106.578 713.63 106.596C718.962 106.63 723.204 96.5419 720.936 88.8935C719.793 85.052 719.308 81.0374 719.118 77.9746C718.945 75.4136 721.334 73.4583 723.827 74.0812L726.51 74.7561C726.51 74.7561 730.284 68.7169 723.654 65.3773C717.75 62.4356 715.309 46.1871 710.479 48.4366Z" fill="#FAF47D"/>
<path d="M733.014 51.5486C735.195 54.1961 733.776 57.4493 731.594 59.2489C729.413 61.0485 725.881 60.3564 723.7 57.7089C721.519 55.0613 721.536 51.4621 723.717 49.6625C725.916 47.8628 730.85 48.9011 733.014 51.5486Z" fill="#FAF47D"/>
<path d="M681.988 119.005C696.011 91.1278 686.541 56.5716 659.447 39.9597C632.353 23.3478 597.261 30.5463 578.736 55.6718L569.872 50.2383L556.282 72.3529L677.279 146.57L690.869 124.455L681.988 119.005ZM645.874 62.0743C660.746 71.1935 666.303 89.7262 659.69 105.317L601.035 69.342C611.942 56.3813 631.003 52.9551 645.874 62.0743Z" fill="#FAF47D"/>
<path d="M564.086 60.7139L556.556 72.9478L677.553 147.165L684.582 135.744L564.086 60.7139Z" fill="#FAF47D"/>
<path d="M580.8 69.0391L572.438 82.692" stroke="#3D4250" stroke-width="3.46081" stroke-miterlimit="10" stroke-linecap="round" stroke-linejoin="round"/>
<path d="M592.845 82.5186L587.184 91.7416" stroke="#3D4250" stroke-width="3.46081" stroke-miterlimit="10" stroke-linecap="round" stroke-linejoin="round"/>
<path d="M610.305 87.1396L601.925 100.793" stroke="#3D4250" stroke-width="3.46081" stroke-miterlimit="10" stroke-linecap="round" stroke-linejoin="round"/>
<path d="M622.348 100.619L616.687 109.842" stroke="#3D4250" stroke-width="3.46081" stroke-miterlimit="10" stroke-linecap="round" stroke-linejoin="round"/>
<path d="M639.835 105.238L631.455 118.891" stroke="#3D4250" stroke-width="3.46081" stroke-miterlimit="10" stroke-linecap="round" stroke-linejoin="round"/>
<path d="M651.862 118.719L646.201 127.942" stroke="#3D4250" stroke-width="3.46081" stroke-miterlimit="10" stroke-linecap="round" stroke-linejoin="round"/>
<path d="M669.329 123.358L660.95 136.994" stroke="#3D4250" stroke-width="3.46081" stroke-miterlimit="10" stroke-linecap="round" stroke-linejoin="round"/>
<path d="M302.22 169.79L250.144 213.362L176.895 205.834L152.086 122.706L209.944 85L280.666 86.0729L302.22 169.79Z" fill="#DF5858"/>
<path d="M152.086 122.706L225.11 124.886L280.666 86.0729L209.944 85L152.086 122.706Z" fill="#E57979"/>
<path d="M250.144 213.36L225.11 124.884L280.666 86.0713L302.22 169.788L250.144 213.36Z" fill="#9F3030"/>
<path d="M213.507 155.756C214.399 158.852 214.421 161.615 213.575 164.044C212.716 166.428 211.205 168.364 209.043 169.853C210.517 170.236 211.863 170.806 213.081 171.563C214.285 172.274 215.349 173.128 216.272 174.124C217.242 175.123 218.064 176.242 218.738 177.48C219.446 178.677 219.988 179.926 220.363 181.228C221.099 183.786 221.116 185.978 220.415 187.806C219.748 189.592 218.617 191.033 217.024 192.13C215.418 193.182 213.495 193.924 211.256 194.355C209.05 194.745 206.76 194.843 204.387 194.649C203.083 194.543 201.754 194.347 200.399 194.061C199.045 193.775 197.721 193.36 196.428 192.817C195.97 192.648 195.466 192.081 194.916 191.116C194.352 190.106 193.777 188.898 193.191 187.491C192.65 186.089 192.101 184.576 191.543 182.953C190.985 181.33 190.47 179.776 189.997 178.291C189.524 176.806 189.126 175.503 188.803 174.381C188.48 173.259 188.254 172.474 188.125 172.025C187.673 170.454 187.221 168.884 186.768 167.313C186.303 165.698 185.891 164.108 185.532 162.545C185.416 162.141 185.235 161.513 184.99 160.66C184.791 159.812 184.543 158.871 184.246 157.839C183.982 156.766 183.706 155.648 183.416 154.485C183.174 153.325 182.957 152.256 182.766 151.276C182.608 150.255 182.519 149.394 182.499 148.691C182.525 147.992 182.651 147.564 182.879 147.407C183.756 146.821 184.762 146.29 185.897 145.813C187.019 145.291 188.214 144.862 189.481 144.528C190.749 144.193 192.041 143.948 193.36 143.792C194.679 143.637 195.967 143.61 197.224 143.713C198.946 143.853 200.669 144.235 202.394 144.858C204.152 145.439 205.748 146.249 207.183 147.286C208.665 148.327 209.955 149.572 211.053 151.02C212.185 152.427 213.004 154.006 213.507 155.756ZM202.945 158.378C202.725 157.615 202.308 157.033 201.693 156.633C201.124 156.236 200.444 156.005 199.652 155.94C199.001 155.887 198.341 155.965 197.674 156.173C197.054 156.386 196.552 156.695 196.169 157.102C196.068 157.226 196.038 157.596 196.08 158.212C196.167 158.833 196.281 159.544 196.42 160.344C196.593 161.103 196.76 161.84 196.92 162.554C197.114 163.227 197.243 163.676 197.308 163.9C197.334 163.99 197.379 164.147 197.443 164.371C197.495 164.551 197.553 164.753 197.618 164.977C197.729 165.205 197.834 165.411 197.932 165.594C198.03 165.778 198.126 165.873 198.219 165.881C199.01 165.945 199.747 165.742 200.43 165.272C201.1 164.757 201.644 164.122 202.063 163.368C202.516 162.572 202.816 161.72 202.964 160.812C203.158 159.907 203.152 159.096 202.945 158.378ZM208.266 177.809C208.046 177.046 207.612 176.485 206.963 176.125C206.314 175.765 205.64 175.557 204.942 175.5C204.291 175.447 203.638 175.547 202.983 175.801C202.363 176.013 201.878 176.302 201.529 176.668C201.415 176.746 201.363 176.961 201.373 177.313C201.43 177.668 201.5 178.068 201.582 178.513C201.699 178.917 201.792 179.319 201.861 179.719C201.965 180.078 202.036 180.325 202.075 180.459C202.1 180.549 202.152 180.729 202.23 180.998C202.307 181.267 202.391 181.559 202.481 181.873C202.606 182.146 202.73 182.419 202.854 182.692C203.011 182.924 203.137 183.044 203.23 183.051C203.881 183.105 204.551 182.984 205.239 182.689C205.927 182.395 206.519 182.005 207.016 181.52C207.559 181.038 207.943 180.478 208.168 179.839C208.427 179.159 208.459 178.482 208.266 177.809Z" fill="#FBFFFF"/>
<path d="M905.054 70.4585L837.137 70.1989L785.996 17.2485L820.638 -62.2637L889.213 -53.8193L942.571 -7.44442L905.054 70.4585Z" fill="#FF953B"/>
<path d="M837.13 70.1999L875.062 -13.5518L942.564 -7.44343L905.047 70.4594L837.13 70.1999Z" fill="#E0771E"/>
<path d="M844.038 7.89386C843.676 8.7038 843.212 9.47412 842.646 10.2048C842.113 10.9684 841.509 11.5694 840.834 12.0077C840.159 12.446 839.442 12.6577 838.683 12.6428C837.924 12.628 837.163 12.2422 836.401 11.4855C835.241 10.3339 834.494 9.22275 834.159 8.1519C833.844 7.03842 833.751 5.96156 833.882 4.92132C834.012 3.88107 834.261 2.8969 834.628 1.9688C835.048 1.03098 835.422 0.140646 835.751 -0.702194C836.08 -1.54503 836.26 -2.32093 836.29 -3.02987C836.372 -3.74854 836.115 -4.40398 835.518 -4.99619C834.856 -5.6542 834.133 -5.91025 833.349 -5.76433C832.585 -5.66104 831.802 -5.30012 830.998 -4.68157C830.195 -4.06303 829.385 -3.26724 828.566 -2.29422C827.781 -1.2883 827.029 -0.249481 826.311 0.822241C825.644 1.88423 825.03 2.9365 824.468 3.97904C823.925 4.97895 823.501 5.81993 823.195 6.50199C822.795 7.39718 822.335 8.47934 821.815 9.74847C821.328 11.0505 820.96 12.4086 820.71 13.8228C820.479 15.1943 820.448 16.5483 820.616 17.8846C820.803 19.1783 821.394 20.3187 822.388 21.3057C823.051 21.9637 823.745 22.4987 824.47 22.9107C825.195 23.3226 825.929 23.7133 826.674 24.0826C827.437 24.4093 828.181 24.7787 828.906 25.1907C829.664 25.6355 830.375 26.187 831.037 26.845C831.8 27.6017 832.248 28.6318 832.383 29.9352C832.537 31.196 832.395 32.3167 831.956 33.2971C831.346 34.6612 830.442 35.6111 829.245 36.1467C828.068 36.6396 826.781 36.8402 825.387 36.7484C824.025 36.6895 822.65 36.34 821.261 35.7C819.905 35.0929 818.763 34.3288 817.835 33.4076C815.449 31.0388 813.742 28.3285 812.714 25.2767C811.667 22.2676 811.117 19.166 811.062 15.972C811.026 12.7354 811.377 9.54404 812.114 6.39784C812.904 3.24192 813.9 0.32116 815.101 -2.36443C815.902 -4.15482 816.912 -5.98413 818.13 -7.85235C819.349 -9.72056 820.7 -11.4572 822.184 -13.0622C823.687 -14.7098 825.284 -16.1406 826.976 -17.3545C828.701 -18.5356 830.453 -19.3505 832.234 -19.7994C834.014 -20.2483 835.793 -20.2672 837.572 -19.8561C839.383 -19.4122 841.118 -18.3676 842.775 -16.7226C844.399 -15.1105 845.519 -13.2287 846.136 -11.0773C846.772 -8.96848 847.059 -6.77514 846.997 -4.49725C846.955 -2.26198 846.637 -0.0536119 846.044 2.12787C845.47 4.26673 844.801 6.18872 844.038 7.89386Z" fill="#FBFFFF"/>
<path d="M559.638 552.679C651.021 552.679 725.101 548.49 725.101 543.324C725.101 538.157 651.021 533.969 559.638 533.969C468.255 533.969 394.174 538.157 394.174 543.324C394.174 548.49 468.255 552.679 559.638 552.679Z" fill="#3D4250"/>
<path d="M736.438 361.064L708.406 355.813L687.636 466.587L715.669 471.838L736.438 361.064Z" fill="#FFBF3B"/>
<path d="M736.433 361.063L725.406 358.998L704.637 469.772L715.663 471.837L736.433 361.063Z" fill="#FFBF3B"/>
<path d="M727.087 367.465L734.963 368.935" stroke="#3D4250" stroke-width="2.67285" stroke-miterlimit="10"/>
<path d="M725.106 377.967L732.994 379.437" stroke="#3D4250" stroke-width="2.67285" stroke-miterlimit="10"/>
<path d="M723.144 388.476L731.033 389.959" stroke="#3D4250" stroke-width="2.67285" stroke-miterlimit="10"/>
<path d="M721.17 398.991L729.046 400.461" stroke="#3D4250" stroke-width="2.67285" stroke-miterlimit="10"/>
<path d="M719.2 409.495L727.089 410.965" stroke="#3D4250" stroke-width="2.67285" stroke-miterlimit="10"/>
<path d="M717.227 420.001L725.116 421.484" stroke="#3D4250" stroke-width="2.67285" stroke-miterlimit="10"/>
<path d="M715.261 430.506L723.136 431.989" stroke="#3D4250" stroke-width="2.67285" stroke-miterlimit="10"/>
<path d="M713.287 441.023L721.176 442.494" stroke="#3D4250" stroke-width="2.67285" stroke-miterlimit="10"/>
<path d="M711.325 451.525L719.214 453.009" stroke="#3D4250" stroke-width="2.67285" stroke-miterlimit="10"/>
<path d="M709.356 462.029L717.231 463.513" stroke="#3D4250" stroke-width="2.67285" stroke-miterlimit="10"/>
<path d="M473.101 457.713L451.467 464.69L427.748 391.24C425.822 385.266 429.098 378.864 435.075 376.94C441.052 375.016 447.456 378.29 449.382 384.264L473.101 457.713Z" fill="#FFBF3B"/>
<path d="M435.075 376.954C429.098 378.878 425.822 385.28 427.748 391.253L430.007 398.243L451.641 391.267L449.382 384.277C447.456 378.303 441.052 375.029 435.075 376.954Z" fill="#FF7907"/>
<path d="M436.72 382.045C439.876 381.029 443.272 382.767 444.288 385.921" stroke="#FBFFFF" stroke-width="2.67285" stroke-miterlimit="10" stroke-linecap="round" stroke-linejoin="round"/>
<path d="M451.628 391.249L429.998 398.229L432.771 406.813L454.401 399.833L451.628 391.249Z" fill="#FBFFFF"/>
<path d="M440.003 404.511L458.695 462.378" stroke="#3D4250" stroke-width="2.67285" stroke-miterlimit="10"/>
<path d="M448.476 401.771L467.168 459.638" stroke="#3D4250" stroke-width="2.67285" stroke-miterlimit="10"/>
<path d="M494.146 514.375H456.373C445.73 514.375 437.093 505.742 437.093 495.104V434.631H494.146V514.375Z" fill="#D16000"/>
<path d="M494.15 514.375V434.631H466.967C466.967 458.245 456.391 514.375 456.391 514.375H494.15Z" fill="#A64C00"/>
<path d="M670.191 514.375H707.964C718.607 514.375 727.245 505.742 727.245 495.104V434.631H670.191V514.375Z" fill="#D16000"/>
<path d="M670.191 514.375V434.631H697.374C697.374 458.245 707.95 514.375 707.95 514.375H670.191Z" fill="#A64C00"/>
<path d="M671.084 544.221H493.694C478.919 544.221 466.952 532.26 466.952 517.493V344.626C466.952 294.938 507.252 254.658 556.964 254.658H607.813C657.526 254.658 697.825 294.938 697.825 344.626V517.493C697.825 532.26 685.858 544.221 671.084 544.221Z" fill="#FF7907"/>
<path d="M601.822 331.729H557.605V375.924H601.822V331.729Z" fill="#B85909"/>
<path d="M604.495 329.057H560.278V373.252H604.495V329.057Z" fill="#FF7907"/>
<path d="M573.034 340.99V362.373" stroke="#B85909" stroke-width="2.67285" stroke-miterlimit="10" stroke-linecap="round" stroke-linejoin="round"/>
<path d="M591.758 340.99V362.373" stroke="#B85909" stroke-width="2.67285" stroke-miterlimit="10" stroke-linecap="round" stroke-linejoin="round"/>
<path d="M680.45 371.379L608.408 359.605C581.894 355.275 561.771 333.385 559.685 306.616L556.984 272.043L680.45 371.379Z" fill="#FF9F2F"/>
<path d="M484.328 371.379V344.624C484.328 304.598 516.912 272.029 556.958 272.029H607.807C647.852 272.029 680.437 304.598 680.437 344.624V371.379" stroke="#A45008" stroke-width="2.67285" stroke-miterlimit="10" stroke-linecap="round" stroke-linejoin="round"/>
<path d="M680.444 371.379V344.624C680.444 304.598 647.859 272.029 607.814 272.029H556.965L680.444 371.379Z" fill="#A45008"/>
<path d="M466.952 505.904V517.491C466.952 532.259 478.919 544.22 493.694 544.22H671.084C685.858 544.22 697.825 532.259 697.825 517.491V505.904H466.952Z" fill="#FF7907"/>
<path d="M512.21 450.695V515.458C512.21 522.475 517.893 528.155 524.913 528.155H639.901C646.921 528.155 652.604 522.475 652.604 515.458V450.695H512.21Z" fill="#C05800"/>
<path d="M508.533 441.983V510.141C508.533 517.518 514.523 523.505 521.903 523.505H642.909C650.29 523.505 656.28 517.518 656.28 510.141V441.983H508.533Z" fill="#BC5600"/>
<path d="M532.261 477.84V523.505" stroke="#9E4900" stroke-width="2.67285" stroke-miterlimit="10" stroke-linecap="round" stroke-linejoin="round"/>
<path d="M632.545 477.84V523.505" stroke="#9E4900" stroke-width="2.67285" stroke-miterlimit="10" stroke-linecap="round" stroke-linejoin="round"/>
<path d="M508.533 468.084C511.675 476.877 520.045 483.185 529.926 483.185H634.887C644.768 483.185 653.138 476.877 656.28 468.084V441.983H508.533V468.084Z" fill="#974500" fill-opacity="0.71"/>
<path d="M634.891 477.839H529.93C517.375 477.839 507.2 467.669 507.2 455.12V419.932H657.621V455.12C657.621 467.669 647.446 477.839 634.891 477.839Z" fill="#FF9439"/>
<path d="M648.262 419.932V455.12C648.262 462.483 642.259 468.484 634.891 468.484H529.931C522.564 468.484 516.56 462.483 516.56 455.12V419.932" stroke="#C05800" stroke-width="2.67285" stroke-miterlimit="10" stroke-linecap="round" stroke-linejoin="round"/>
<path d="M532.275 457.859C535.324 457.859 537.797 455.388 537.797 452.34C537.797 449.291 535.324 446.82 532.275 446.82C529.225 446.82 526.753 449.291 526.753 452.34C526.753 455.388 529.225 457.859 532.275 457.859Z" fill="#FBFFFF"/>
<path d="M632.554 457.859C635.604 457.859 638.076 455.388 638.076 452.34C638.076 449.291 635.604 446.82 632.554 446.82C629.504 446.82 627.032 449.291 627.032 452.34C627.032 455.388 629.504 457.859 632.554 457.859Z" fill="#FBFFFF"/>
<path d="M539.402 293.988L545.566 298.491C547.411 299.841 550.018 299.373 551.275 297.462L560.702 283.189C562.761 280.062 562.012 275.879 558.99 273.674C555.968 271.469 551.743 272.017 549.39 274.93L538.653 288.241C537.209 290.018 537.557 292.638 539.402 293.988ZM555.541 278.391C557.105 279.541 557.453 281.733 556.303 283.296C555.153 284.86 552.96 285.207 551.396 284.058C549.831 282.909 549.484 280.717 550.634 279.153C551.783 277.59 553.976 277.242 555.541 278.391Z" fill="#FBFFFF"/>
<path d="M467.163 424.301C467.163 409.908 478.836 398.241 493.236 398.241H671.749C686.15 398.241 697.822 409.908 697.822 424.301" stroke="#D16000" stroke-width="2.67285" stroke-miterlimit="10" stroke-linecap="round" stroke-linejoin="round"/>
<path d="M556.233 261.552L538.41 267.098V246.45H556.233V261.552Z" fill="#A45008"/>
<path d="M626.655 267.098L608.831 261.552V246.45H626.655V267.098Z" fill="#A45008"/>
<path d="M617.401 236.521H547.592C542.485 236.521 538.34 240.664 538.34 245.77V257.864C538.34 254.804 540.827 252.318 543.889 252.318H621.092C624.154 252.318 626.64 254.804 626.64 257.864V245.77C626.654 240.664 622.509 236.521 617.401 236.521Z" fill="#FF910F"/>
<path d="M830.971 304.643C856.434 284.522 860.764 247.568 840.643 222.105C820.522 196.642 783.568 192.312 758.105 212.433C732.642 232.554 728.312 269.508 748.433 294.971C768.554 320.434 805.508 324.764 830.971 304.643Z" fill="#FFBF3B"/>
<path d="M810.407 303.321C804.861 307.277 800.117 312.169 795.52 317.247C800.01 317.167 804.567 316.592 809.098 315.43C815.192 313.866 820.805 311.407 825.856 308.226C833.968 297.842 841.693 285.975 838.071 279.44C832.819 274.722 823.451 294.007 810.407 303.321Z" fill="#FFE297"/>
<path d="M851.46 243.929C850.163 238.838 848.212 234.08 845.766 229.71C820.481 243.355 787.084 263.575 784.09 259.379C778.611 251.694 807.491 227.745 811.741 224.097C814.775 221.491 821.711 216.519 828.754 210.746C824.758 207.886 820.401 205.534 815.804 203.743C801.785 212.684 788.006 221.972 774.228 231.274C761.585 239.813 748.475 248.059 735.779 256.839C735.632 262.185 736.193 267.624 737.583 273.063C738.839 277.955 740.67 282.539 742.982 286.762C752.163 281.844 762.881 276.097 765.487 278.262C767.586 280.013 760.583 290.036 752.644 299.698C758.872 306.02 766.463 310.871 774.802 313.851C797.722 293.39 830.13 265.165 851.647 244.705C851.58 244.451 851.526 244.183 851.46 243.929Z" fill="#FFE297"/>
<path d="M849.554 237.848C850.115 239.345 850.609 240.869 851.05 242.432C869.052 241.724 874.719 244.825 875.213 246.789C875.721 248.754 872.206 254.246 855.875 262.332C841.589 269.401 821.93 276.324 800.507 281.803C779.084 287.283 758.516 290.664 742.586 291.319C724.371 292.067 718.664 288.94 718.156 286.975C717.662 285.024 721.137 279.572 737.254 271.553C736.893 269.989 736.586 268.412 736.358 266.849C736.051 266.996 735.73 267.143 735.436 267.303C719.479 275.202 712.156 282.218 713.679 288.138C716.94 300.874 760.401 296.852 801.643 286.307C823.373 280.748 843.353 273.718 857.92 266.501C873.877 258.603 881.2 251.587 879.69 245.68C878.046 239.225 866.192 237.06 849.554 237.848Z" fill="#FBFFFF"/>
</svg>
