<svg width="1091" height="337" viewBox="0 0 1091 337" fill="none" xmlns="http://www.w3.org/2000/svg">
<path d="M527.376 -408.167L378.948 -420.452C405.626 -384.442 246.381 -180.27 495.982 -122.818C609.754 -39.3948 392.82 -55.7967 467.161 79.739C503.213 145.445 635.905 151.428 652.622 213.269C673.166 289.281 394.607 346.771 394.607 346.771L478.999 446C583.042 387.694 761.116 437.924 821.029 403.957C917.09 349.49 825.13 267.068 884.067 209.014C939.77 154.127 1210.17 186.732 1188.31 93.4286C1121.53 -191.548 1295.13 -79.3881 1309.79 -116.929C1319.49 -141.735 1335.13 -148.676 1353.48 -154.179L527.388 -408.182L527.376 -408.167Z" fill="white" fill-opacity="0.2"/>
<path d="M863.138 45.862C863.138 47.8578 861.513 49.4827 859.517 49.4827C857.521 49.4827 855.896 47.8578 855.896 45.862C855.896 43.8662 857.521 42.2413 859.517 42.2413C861.531 42.2413 863.138 43.8662 863.138 45.862Z" fill="#FBFFFF"/>
<path d="M1000.79 130.897C1000.79 132.493 999.493 133.793 997.897 133.793C996.3 133.793 995 132.493 995 130.897C995 129.3 996.3 128 997.897 128C999.507 128 1000.79 129.3 1000.79 130.897Z" fill="#FBFFFF"/>
<path d="M638.793 95.8965C638.793 97.4932 637.493 98.7931 635.897 98.7931C634.3 98.7931 633 97.4932 633 95.8965C633 94.2999 634.3 93 635.897 93C637.493 93 638.793 94.2999 638.793 95.8965Z" fill="#FBFFFF"/>
<path d="M1009.41 48.7586C1002.35 50.5625 996.831 55.8061 994.932 62.5172C993.033 55.8061 987.514 50.5625 980.449 48.7586C987.514 46.9547 993.033 41.7111 994.932 35C996.831 41.7111 1002.35 46.9547 1009.41 48.7586Z" fill="#FBFFFF"/>
<path d="M873.275 126.242C866.564 128.14 861.32 133.66 859.516 140.724C857.713 133.66 852.469 128.14 845.758 126.242C852.469 124.343 857.713 118.823 859.516 111.759C861.32 118.807 866.564 124.327 873.275 126.242Z" fill="#FBFFFF"/>
<path d="M906.586 77C902.352 78.1375 899.034 81.4554 897.896 85.6896C896.759 81.4554 893.441 78.1375 889.207 77C893.441 75.8624 896.759 72.5445 897.896 68.3103C899.05 72.5445 902.352 75.8466 906.586 77Z" fill="#FBFFFF"/>
<path d="M951.483 194.311C947.249 195.448 943.931 198.766 942.793 203C941.656 198.766 938.338 195.448 934.104 194.311C938.338 193.173 941.656 189.855 942.793 185.621C943.931 189.855 947.249 193.173 951.483 194.311Z" fill="#FBFFFF"/>
<path d="M1042.73 84.2414C1038.49 85.379 1035.17 88.6968 1034.04 92.9311C1032.9 88.6968 1029.58 85.379 1025.35 84.2414C1029.58 83.1039 1032.9 79.786 1034.04 75.5518C1035.17 79.786 1038.47 83.1039 1042.73 84.2414Z" fill="#FBFFFF"/>
<path d="M813.517 304.483C806.806 306.382 801.563 311.901 799.759 318.966C797.955 311.901 792.711 306.382 786 304.483C792.711 302.584 797.955 297.064 799.759 290C801.578 297.064 806.821 302.584 813.517 304.483Z" fill="#FBFFFF"/>
<path d="M671.517 39.7586C664.806 41.5625 659.563 46.8061 657.759 53.5172C655.955 46.8061 650.711 41.5625 644 39.7586C650.711 37.9547 655.955 32.7111 657.759 26C659.578 32.7111 664.806 37.9547 671.517 39.7586Z" fill="#FBFFFF"/>
<path d="M826.354 93.8975L826.263 126.107L716.539 189.872L716.63 157.662L826.354 93.8975Z" fill="#1567A3"/>
<path d="M716.631 157.663L716.54 189.872L662.096 158.441L662.187 126.231L716.631 157.663Z" fill="#00B1EA"/>
<path d="M826.355 93.8981L716.631 157.663L662.188 126.232L771.911 62.4668L826.355 93.8981Z" fill="#DAEBF7"/>
<path d="M778.913 77.0355V83.484C778.913 84.9161 777.961 86.3482 776.073 87.4408C772.282 89.6511 766.14 89.6511 762.29 87.4408C760.37 86.3316 759.41 84.8747 759.418 83.4178V76.9775C759.418 78.4345 760.37 79.8914 762.29 81.0006C766.115 83.2025 772.282 83.2025 776.082 81.0006C777.969 79.9079 778.904 78.4758 778.913 77.0355Z" fill="#02A4D8"/>
<path d="M776.033 73.0207C779.85 75.2226 779.874 78.8152 776.083 81.0006C772.292 83.186 766.15 83.2108 762.292 81.0006C758.435 78.7904 758.459 75.206 762.292 73.0124C766.125 70.8187 772.217 70.8187 776.033 73.0207Z" fill="#FBFFFF"/>
<path d="M805.444 92.3656C805.444 94.5123 805.444 96.659 805.444 98.8058C805.444 100.238 804.5 101.67 802.613 102.763C798.821 104.973 792.679 104.973 788.83 102.763C786.909 101.653 785.949 100.205 785.949 98.7478V92.3076C785.949 93.7563 786.909 95.2132 788.83 96.3224C792.646 98.5326 798.821 98.5326 802.621 96.3224C804.5 95.2297 805.444 93.7976 805.444 92.3656Z" fill="#02A4D8"/>
<path d="M802.572 88.3427C806.388 90.5446 806.413 94.1372 802.621 96.3226C798.83 98.508 792.688 98.5328 788.83 96.3226C784.973 94.1124 784.998 90.5281 788.789 88.3427C792.58 86.1573 798.747 86.1325 802.572 88.3427Z" fill="#FBFFFF"/>
<path d="M753.475 91.8202V98.2604C753.475 99.7008 752.531 101.133 750.644 102.226C746.844 104.427 740.71 104.436 736.861 102.226C734.941 101.116 733.98 99.6594 733.98 98.2107V91.7705C733.98 93.2191 734.932 94.6761 736.853 95.7853C740.669 97.9872 746.844 97.9872 750.636 95.7853C752.531 94.6926 753.475 93.2523 753.475 91.8202Z" fill="#02A4D8"/>
<path d="M750.603 87.7968C754.419 90.007 754.435 93.5913 750.644 95.785C746.853 97.9786 740.71 97.9869 736.861 95.785C733.012 93.5831 733.029 89.9904 736.861 87.7968C740.694 85.6031 746.778 85.5949 750.603 87.7968Z" fill="#FBFFFF"/>
<path d="M780.014 107.142V113.582C780.014 115.023 779.062 116.455 777.183 117.547C773.383 119.749 767.25 119.749 763.392 117.547C761.472 116.438 760.511 114.981 760.52 113.532V107.084C760.52 108.541 761.472 109.998 763.392 111.107C767.216 113.309 773.392 113.309 777.183 111.107C779.07 110.014 780.006 108.574 780.014 107.142Z" fill="#02A4D8"/>
<path d="M777.142 103.119C780.958 105.329 780.983 108.914 777.192 111.107C773.4 113.301 767.258 113.309 763.401 111.107C759.543 108.905 759.568 105.313 763.359 103.119C767.151 100.925 773.318 100.917 777.142 103.119Z" fill="#FBFFFF"/>
<path d="M728.045 106.596V113.044C728.045 114.476 727.101 115.908 725.214 117.009C721.423 119.211 715.28 119.211 711.431 117.009C709.511 115.9 708.55 114.443 708.559 112.994V106.546C708.559 108.003 709.511 109.46 711.431 110.569C715.255 112.771 721.423 112.771 725.214 110.569C727.093 109.468 728.037 108.036 728.045 106.596Z" fill="#02A4D8"/>
<path d="M725.165 102.581C728.989 104.791 728.998 108.376 725.206 110.561C721.415 112.746 715.273 112.771 711.424 110.561C707.574 108.351 707.591 104.767 711.424 102.573C715.256 100.379 721.349 100.379 725.165 102.581Z" fill="#FBFFFF"/>
<path d="M754.577 121.926V128.366C754.577 129.798 753.633 131.231 751.746 132.323C747.954 134.533 741.812 134.533 737.963 132.323C736.042 131.214 735.082 129.765 735.082 128.308V121.868C735.082 123.317 736.042 124.774 737.963 125.883C741.779 128.093 747.954 128.093 751.754 125.883C753.633 124.79 754.577 123.358 754.577 121.926Z" fill="#02A4D8"/>
<path d="M751.695 117.903C755.52 120.105 755.536 123.698 751.753 125.883C747.97 128.069 741.778 128.093 737.962 125.883C734.146 123.673 734.121 120.089 737.921 117.903C741.721 115.718 747.879 115.693 751.695 117.903Z" fill="#FBFFFF"/>
<path d="M702.641 121.381V127.821C702.641 129.261 701.689 130.693 699.802 131.786C696.01 133.988 689.868 133.996 686.027 131.786C684.107 130.677 683.146 129.228 683.146 127.771V121.331C683.146 122.78 684.098 124.237 686.019 125.346C689.835 127.556 696.01 127.548 699.793 125.346C701.656 124.253 702.641 122.813 702.641 121.381Z" fill="#02A4D8"/>
<path d="M699.734 117.365C703.551 119.567 703.567 123.16 699.734 125.345C695.902 127.531 689.801 127.555 685.96 125.345C682.119 123.135 682.127 119.551 685.91 117.365C689.693 115.18 695.91 115.196 699.734 117.365Z" fill="#FBFFFF"/>
<path d="M729.131 136.719V143.159C729.131 144.6 728.187 146.032 726.3 147.124C722.517 149.326 716.366 149.326 712.517 147.124C710.597 146.015 709.636 144.558 709.645 143.11V136.661C709.645 138.118 710.597 139.575 712.517 140.684C716.341 142.886 722.517 142.886 726.3 140.684C728.195 139.575 729.131 138.143 729.131 136.719Z" fill="#02A4D8"/>
<path d="M726.266 132.679C730.082 134.889 730.107 138.474 726.266 140.667C722.425 142.861 716.333 142.869 712.484 140.667C708.634 138.465 708.651 134.873 712.442 132.687C716.233 130.502 722.45 130.477 726.266 132.679Z" fill="white"/>
<path d="M803.754 130.966L803.845 163.175L913.569 226.94L913.478 194.731L803.754 130.966Z" fill="#6866C0"/>
<path d="M913.48 194.731L913.572 226.941L968.015 195.509L967.924 163.3L913.48 194.731Z" fill="#37359E"/>
<path d="M803.754 130.966L913.478 194.731L967.922 163.3L858.198 99.5352L803.754 130.966Z" fill="#AD2254"/>
<path d="M851.203 114.112V120.552C851.203 121.984 852.147 123.417 854.034 124.509C857.825 126.719 863.968 126.719 867.817 124.509C869.737 123.4 870.698 121.943 870.698 120.486V114.046C870.698 115.503 869.746 116.96 867.825 118.069C864.009 120.271 857.834 120.271 854.042 118.069C852.147 116.976 851.203 115.544 851.203 114.112Z" fill="black"/>
<path d="M854.078 110.089C850.262 112.299 850.237 115.884 854.036 118.069C857.836 120.254 863.97 120.279 867.819 118.069C871.668 115.859 871.652 112.274 867.819 110.081C863.986 107.887 857.902 107.887 854.078 110.089Z" fill="#BF3A3D"/>
<path d="M824.666 129.435C824.666 131.579 824.666 133.731 824.666 135.875C824.666 137.307 825.61 138.739 827.497 139.832C831.297 142.042 837.431 142.042 841.288 139.832C843.209 138.731 844.169 137.274 844.161 135.817V129.377C844.161 130.834 843.209 132.282 841.288 133.392C837.464 135.602 831.288 135.602 827.497 133.392C825.61 132.299 824.666 130.867 824.666 129.435Z" fill="black"/>
<path d="M827.547 125.411C823.731 127.613 823.698 131.206 827.497 133.391C831.297 135.576 837.431 135.601 841.288 133.391C845.146 131.181 845.121 127.596 841.33 125.411C837.538 123.226 831.363 123.201 827.547 125.411Z" fill="#BF3A3D"/>
<path d="M876.635 128.889V135.329C876.635 136.769 877.587 138.201 879.474 139.294C883.265 141.504 889.408 141.504 893.257 139.294C895.177 138.185 896.138 136.736 896.129 135.279V128.839C896.129 130.288 895.177 131.744 893.257 132.854C889.432 135.064 883.265 135.056 879.466 132.854C877.587 131.753 876.643 130.329 876.635 128.889Z" fill="black"/>
<path d="M879.514 124.873C875.69 127.075 875.682 130.668 879.465 132.853C883.248 135.039 889.398 135.063 893.256 132.853C897.113 130.643 897.088 127.059 893.256 124.873C889.423 122.688 883.331 122.647 879.514 124.873Z" fill="#BF3A3D"/>
<path d="M850.104 144.211V150.651C850.104 152.091 851.047 153.523 852.935 154.616C856.726 156.818 862.868 156.818 866.718 154.616C868.638 153.507 869.598 152.05 869.598 150.601V144.161C869.598 145.61 868.638 147.067 866.718 148.176C862.901 150.378 856.726 150.378 852.927 148.176C851.047 147.083 850.104 145.651 850.104 144.211Z" fill="black"/>
<path d="M852.983 140.187C849.159 142.398 849.142 145.982 852.925 148.176C856.708 150.369 862.9 150.378 866.716 148.176C870.533 145.974 870.549 142.381 866.758 140.187C862.967 137.994 856.8 137.985 852.983 140.187Z" fill="#BF3A3D"/>
<path d="M902.072 143.672V150.112C902.072 151.545 903.024 152.977 904.903 154.078C908.703 156.279 914.837 156.279 918.686 154.078C920.607 152.968 921.567 151.511 921.567 150.063V143.614C921.567 145.071 920.615 146.528 918.694 147.637C914.878 149.839 908.703 149.839 904.912 147.637C903.016 146.536 902.072 145.104 902.072 143.672Z" fill="black"/>
<path d="M904.944 139.65C901.128 141.86 901.111 145.444 904.902 147.629C908.694 149.815 914.836 149.84 918.685 147.629C922.534 145.419 922.518 141.835 918.727 139.641C914.935 137.448 908.76 137.448 904.944 139.65Z" fill="#BF3A3D"/>
<path d="M875.533 158.994V165.435C875.533 166.867 876.485 168.299 878.364 169.4C882.156 171.602 888.339 171.602 892.155 169.4C894.076 168.291 895.036 166.834 895.028 165.377V158.937C895.028 160.393 894.076 161.85 892.155 162.951C888.331 165.162 882.156 165.162 878.364 162.951C876.477 161.859 875.541 160.427 875.533 158.994Z" fill="black"/>
<path d="M878.414 154.972C874.59 157.174 874.573 160.766 878.364 162.952C882.156 165.137 888.298 165.162 892.155 162.952C896.013 160.741 895.988 157.157 892.197 154.972C888.405 152.786 882.271 152.761 878.414 154.972Z" fill="#BF3A3D"/>
<path d="M927.502 158.449V164.889C927.502 166.33 928.446 167.762 930.333 168.863C934.124 171.065 940.267 171.065 944.116 168.863C946.036 167.745 946.996 166.297 946.988 164.84V158.399C946.988 159.856 946.036 161.305 944.107 162.414C940.291 164.624 934.124 164.616 930.333 162.414C928.454 161.322 927.51 159.898 927.502 158.449Z" fill="black"/>
<path d="M930.384 154.434C926.56 156.635 926.552 160.228 930.343 162.413C934.134 164.599 940.277 164.624 944.118 162.413C947.958 160.203 947.958 156.619 944.167 154.434C940.376 152.248 934.201 152.223 930.384 154.434Z" fill="#BF3A3D"/>
<path d="M900.973 173.771V180.212C900.973 181.652 901.925 183.084 903.804 184.177C907.595 186.387 913.737 186.387 917.586 184.177C919.515 183.067 920.467 181.611 920.467 180.162V173.722C920.467 175.17 919.507 176.627 917.586 177.736C913.77 179.938 907.595 179.938 903.804 177.736C901.916 176.644 900.973 175.212 900.973 173.771Z" fill="black"/>
<path d="M903.844 169.749C900.028 171.959 900.012 175.543 903.803 177.737C907.594 179.93 913.736 179.939 917.586 177.737C921.435 175.535 921.427 171.942 917.635 169.757C913.844 167.571 907.669 167.547 903.844 169.749Z" fill="#BF3A3D"/>
<path d="M803.754 98.6992L803.845 130.909L913.569 194.674L913.478 162.464L803.754 98.6992Z" fill="#6D6BD0"/>
<path d="M913.48 162.464L913.572 194.673L968.015 163.233L967.924 131.032L913.48 162.464Z" fill="#3734B3"/>
<path d="M803.754 98.6989L913.478 162.464L967.922 131.032L858.198 67.2676L803.754 98.6989Z" fill="#FF540A"/>
<path d="M851.203 81.8363V88.2848C851.203 89.7169 852.147 91.1489 854.034 92.2416C857.825 94.4518 863.968 94.4518 867.817 92.2416C869.737 91.1324 870.698 89.6755 870.698 88.2185V81.7783C870.698 83.2352 869.746 84.6839 867.825 85.7931C864.009 88.0033 857.834 88.0033 854.042 85.7931C852.147 84.7087 851.203 83.2766 851.203 81.8363Z" fill="#FE470B"/>
<path d="M854.078 77.822C850.262 80.0239 850.237 83.6166 854.036 85.8019C857.836 87.9873 863.97 88.0121 867.819 85.8019C871.668 83.5917 871.652 80.0074 867.819 77.822C863.986 75.6366 857.902 75.6201 854.078 77.822Z" fill="#FF540A"/>
<path d="M824.666 97.1591C824.666 99.3113 824.666 101.455 824.666 103.608C824.666 105.04 825.61 106.472 827.497 107.564C831.297 109.775 837.431 109.775 841.288 107.564C843.209 106.455 844.169 105.007 844.161 103.55V97.1094C844.161 98.558 843.209 100.015 841.288 101.124C837.464 103.326 831.288 103.326 827.497 101.124C825.61 100.031 824.666 98.6408 824.666 97.1591Z" fill="#FE470B"/>
<path d="M827.547 93.1356C823.731 95.3459 823.698 98.9302 827.497 101.124C831.297 103.317 837.431 103.326 841.288 101.124C845.146 98.9219 845.121 95.3293 841.33 93.1356C837.538 90.942 831.363 90.9337 827.547 93.1356Z" fill="#FF540A"/>
<path d="M876.635 96.621V103.061C876.635 104.493 877.587 105.934 879.474 107.026C883.265 109.228 889.408 109.237 893.257 107.026C895.177 105.917 896.138 104.46 896.129 103.012V96.5713C896.129 98.0199 895.177 99.4768 893.257 100.586C889.432 102.788 883.265 102.788 879.466 100.586C877.587 99.4686 876.643 98.053 876.635 96.621Z" fill="#FE470B"/>
<path d="M879.514 92.5983C875.69 94.8085 875.682 98.3929 879.465 100.587C883.248 102.78 889.398 102.788 893.256 100.587C897.113 98.3846 897.088 94.7919 893.256 92.5983C889.423 90.4046 883.331 90.3633 879.514 92.5983Z" fill="#FF540A"/>
<path d="M850.104 111.944V118.384C850.104 119.824 851.047 121.256 852.935 122.349C856.726 124.551 862.868 124.551 866.717 122.349C868.638 121.24 869.598 119.783 869.598 118.326V111.886C869.598 113.343 868.638 114.8 866.717 115.909C862.901 118.111 856.726 118.111 852.926 115.909C851.047 114.808 850.104 113.376 850.104 111.944Z" fill="#FE470B"/>
<path d="M852.983 107.92C849.159 110.13 849.142 113.714 852.925 115.908C856.708 118.102 862.9 118.11 866.716 115.908C870.533 113.706 870.549 110.113 866.758 107.92C862.967 105.726 856.8 105.718 852.983 107.92Z" fill="#FF540A"/>
<path d="M902.072 111.397V117.845C902.072 119.277 903.024 120.709 904.903 121.802C908.703 124.012 914.837 124.012 918.686 121.802C920.607 120.693 921.567 119.236 921.567 117.779V111.339C921.567 112.796 920.615 114.253 918.694 115.362C914.878 117.564 908.703 117.564 904.912 115.362C903.016 114.269 902.072 112.837 902.072 111.397Z" fill="#FE470B"/>
<path d="M904.944 107.383C901.128 109.585 901.111 113.178 904.902 115.363C908.694 117.548 914.836 117.573 918.685 115.363C922.534 113.153 922.518 109.568 918.727 107.375C914.935 105.181 908.76 105.181 904.944 107.383Z" fill="#FF540A"/>
<path d="M875.533 126.728V133.168C875.533 134.6 876.485 136.032 878.364 137.125C882.156 139.335 888.339 139.335 892.155 137.125C894.076 136.016 895.036 134.567 895.028 133.11V126.67C895.028 128.119 894.076 129.575 892.155 130.685C888.331 132.895 882.156 132.895 878.364 130.685C876.477 129.592 875.541 128.16 875.533 126.728Z" fill="#FE470B"/>
<path d="M878.414 122.704C874.59 124.906 874.573 128.499 878.364 130.684C882.156 132.869 888.298 132.894 892.155 130.684C896.013 128.474 895.988 124.889 892.197 122.704C888.405 120.519 882.271 120.494 878.414 122.704Z" fill="#FF540A"/>
<path d="M927.502 126.182V132.622C927.502 134.062 928.446 135.494 930.333 136.587C934.124 138.789 940.267 138.797 944.116 136.587C946.036 135.478 946.996 134.021 946.988 132.572V126.132C946.988 127.58 946.036 129.037 944.107 130.147C940.291 132.357 934.124 132.349 930.333 130.147C928.454 129.054 927.51 127.614 927.502 126.182Z" fill="#FE470B"/>
<path d="M930.384 122.167C926.56 124.369 926.552 127.961 930.343 130.147C934.134 132.332 940.277 132.357 944.118 130.147C947.958 127.937 947.958 124.352 944.167 122.167C940.376 119.982 934.201 119.957 930.384 122.167Z" fill="#FF540A"/>
<path d="M900.973 141.503V147.943C900.973 149.384 901.925 150.816 903.804 151.909C907.595 154.111 913.737 154.111 917.586 151.909C919.515 150.799 920.467 149.342 920.467 147.894V141.445C920.467 142.902 919.507 144.359 917.586 145.468C913.77 147.67 907.595 147.67 903.804 145.468C901.916 144.376 900.973 142.944 900.973 141.503Z" fill="#FE470B"/>
<path d="M903.844 137.481C900.028 139.691 900.012 143.276 903.803 145.469C907.594 147.663 913.736 147.671 917.586 145.469C921.435 143.267 921.427 139.675 917.635 137.489C913.844 135.304 907.669 135.279 903.844 137.481Z" fill="#FF540A"/>
<path d="M803.754 66.4316L803.845 98.6411L913.569 162.406L913.478 130.197L803.754 66.4316Z" fill="#7370E3"/>
<path d="M913.48 130.196L913.572 162.406L968.015 130.966L967.924 98.7568L913.48 130.196Z" fill="#413EB7"/>
<path d="M803.754 66.4313L913.478 130.196L967.922 98.7566L858.198 35L803.754 66.4313Z" fill="#9C9AFF"/>
<path d="M851.205 49.5692V56.0094C851.205 57.4498 852.149 58.8819 854.036 59.9746C857.827 62.1765 863.97 62.1848 867.819 59.9746C869.739 58.8653 870.7 57.4167 870.7 55.9598V49.5195C870.7 50.9682 869.748 52.4251 867.827 53.5343C864.011 55.7445 857.836 55.7363 854.044 53.5343C852.149 52.4416 851.205 51.0013 851.205 49.5692Z" fill="#413EB7"/>
<path d="M854.078 45.5546C850.262 47.7565 850.237 51.3492 854.036 53.5345C857.836 55.7199 863.97 55.7447 867.819 53.5345C871.668 51.3243 871.652 47.74 867.819 45.5546C863.986 43.3692 857.902 43.3444 854.078 45.5546Z" fill="#FBFFFF"/>
<path d="M824.666 64.8915C824.666 67.0437 824.666 69.1877 824.666 71.3317C824.666 72.7721 825.61 74.2041 827.497 75.2968C831.297 77.4988 837.431 77.4988 841.288 75.2968C843.209 74.1876 844.169 72.7307 844.161 71.282V64.8418C844.161 66.2904 843.209 67.7474 841.288 68.8566C837.464 71.0585 831.288 71.0585 827.497 68.8566C825.61 67.7639 824.666 66.3567 824.666 64.8915Z" fill="#413EB7"/>
<path d="M827.547 60.869C823.731 63.0793 823.698 66.6636 827.497 68.8573C831.297 71.0509 837.431 71.0592 841.288 68.8573C845.146 66.6553 845.121 63.0627 841.33 60.869C837.538 58.6754 831.363 58.6671 827.547 60.869Z" fill="#FBFFFF"/>
<path d="M876.635 64.3534V70.7936C876.635 72.2257 877.587 73.6578 879.474 74.7587C883.265 76.9607 889.408 76.9607 893.257 74.7587C895.177 73.6495 896.138 72.1926 896.129 70.7439V64.3037C896.129 65.7523 895.177 67.2093 893.257 68.3185C889.432 70.5204 883.265 70.5204 879.466 68.3185C877.587 67.1844 876.643 65.7855 876.635 64.3534Z" fill="#E3A728"/>
<path d="M879.514 60.3302C875.69 62.5404 875.682 66.1248 879.465 68.3101C883.248 70.4955 889.398 70.5204 893.256 68.3101C897.113 66.0999 897.088 62.5156 893.256 60.3219C889.423 58.1283 883.331 58.1283 879.514 60.3302Z" fill="#FBFFFF"/>
<path d="M850.104 79.6761V86.1163C850.104 87.5484 851.047 88.9888 852.935 90.0815C856.726 92.2834 862.868 92.2834 866.718 90.0815C868.638 88.9722 869.598 87.5153 869.598 86.0584V79.6182C869.598 81.0751 868.638 82.5237 866.718 83.633C862.901 85.8432 856.726 85.8432 852.927 83.633C851.047 82.5403 850.104 81.1082 850.104 79.6761Z" fill="#413EB7"/>
<path d="M852.983 75.6532C849.159 77.8552 849.142 81.4478 852.925 83.6332C856.708 85.8185 862.9 85.8434 866.716 83.6332C870.533 81.423 870.549 77.8386 866.758 75.6532C862.967 73.4679 856.8 73.443 852.983 75.6532Z" fill="#FBFFFF"/>
<path d="M902.072 79.1302V85.5704C902.072 87.0108 903.024 88.4429 904.903 89.5356C908.703 91.7458 914.837 91.7458 918.686 89.5356C920.607 88.4263 921.567 86.9694 921.567 85.5125V79.0723C921.567 80.5292 920.615 81.9778 918.694 83.0871C914.878 85.2973 908.703 85.289 904.912 83.0871C903.016 82.0027 902.072 80.5706 902.072 79.1302Z" fill="#E3A728"/>
<path d="M904.944 75.1152C901.128 77.3171 901.111 80.9097 904.902 83.0951C908.694 85.2805 914.836 85.3053 918.685 83.0951C922.534 80.8849 922.518 77.3005 918.727 75.1152C914.935 72.9298 908.76 72.9049 904.944 75.1152Z" fill="#FFDE2D"/>
<path d="M875.533 94.452V100.901C875.533 102.333 876.485 103.765 878.364 104.857C882.156 107.068 888.339 107.068 892.155 104.857C894.076 103.748 895.036 102.291 895.028 100.843V94.4023C895.028 95.851 894.076 97.3079 892.155 98.4171C888.331 100.619 882.156 100.619 878.364 98.4171C876.477 97.3244 875.541 95.8924 875.533 94.452Z" fill="#E3A728"/>
<path d="M878.414 90.4286C874.59 92.6388 874.573 96.2232 878.364 98.4168C882.156 100.61 888.298 100.619 892.155 98.4168C896.013 96.2149 895.988 92.6223 892.197 90.4286C888.405 88.235 882.271 88.2267 878.414 90.4286Z" fill="#FFDE2D"/>
<path d="M927.502 93.9139V100.354C927.502 101.786 928.446 103.227 930.333 104.319C934.124 106.521 940.267 106.521 944.116 104.319C946.036 103.21 946.996 101.753 946.988 100.304V93.8643C946.988 95.3129 946.036 96.7698 944.107 97.8791C940.291 100.081 934.124 100.081 930.333 97.8791C928.454 96.7781 927.51 95.3294 927.502 93.9139Z" fill="#E3A728"/>
<path d="M930.384 89.8911C926.56 92.1013 926.552 95.6857 930.343 97.8793C934.134 100.073 940.277 100.081 944.118 97.8793C947.958 95.6774 947.958 92.0848 944.167 89.8994C940.376 87.714 934.201 87.6892 930.384 89.8911Z" fill="#FFDE2D"/>
<path d="M900.973 109.237V115.677C900.973 117.109 901.925 118.549 903.804 119.642C907.595 121.844 913.737 121.844 917.586 119.642C919.515 118.533 920.467 117.076 920.467 115.619V109.179C920.467 110.636 919.507 112.093 917.586 113.202C913.77 115.404 907.595 115.404 903.804 113.202C901.916 112.109 900.973 110.669 900.973 109.237Z" fill="#E3A728"/>
<path d="M903.844 105.214C900.028 107.416 900.012 111.008 903.803 113.202C907.594 115.396 913.736 115.404 917.586 113.202C921.435 111 921.427 107.407 917.635 105.214C913.844 103.02 907.669 103.012 903.844 105.214Z" fill="#FFDE2D"/>
<path d="M762.051 194.342L762.142 226.543L871.858 290.308L871.766 258.098L762.051 194.342Z" fill="#E1AA39"/>
<path d="M871.766 258.098L871.857 290.308L926.301 258.876L926.21 226.667L871.766 258.098Z" fill="#FFBF3B"/>
<path d="M762.051 194.342L871.766 258.099L926.21 226.667L816.495 162.902L762.051 194.342Z" fill="#FFD989"/>
<path d="M809.492 177.48V183.92C809.492 185.352 810.444 186.784 812.332 187.885C816.123 190.087 822.265 190.087 826.114 187.885C828.035 186.776 828.995 185.319 828.987 183.87V177.422C828.987 178.879 828.035 180.336 826.114 181.445C822.29 183.647 816.123 183.647 812.323 181.445C810.444 180.344 809.5 178.937 809.492 177.48Z" fill="#E1AA39"/>
<path d="M812.374 173.456C808.558 175.666 808.533 179.251 812.324 181.436C816.115 183.621 822.258 183.646 826.115 181.436C829.973 179.226 829.948 175.642 826.115 173.448C822.282 171.254 816.19 171.254 812.374 173.456Z" fill="white"/>
<path d="M782.936 192.802C782.936 194.946 782.936 197.098 782.936 199.242C782.936 200.674 783.879 202.106 785.767 203.207C789.558 205.409 795.7 205.409 799.558 203.207C801.478 202.098 802.43 200.641 802.43 199.184V192.744C802.43 194.201 801.47 195.658 799.549 196.767C795.733 198.969 789.558 198.969 785.758 196.767C783.904 195.666 782.936 194.234 782.936 192.802Z" fill="#E1AA39"/>
<path d="M785.842 188.779C782.018 190.981 781.993 194.574 785.784 196.768C789.575 198.961 795.759 198.97 799.575 196.768C803.391 194.566 803.416 190.973 799.575 188.779C795.734 186.586 789.658 186.569 785.842 188.779Z" fill="white"/>
<path d="M834.93 192.256V198.705C834.93 200.137 835.882 201.569 837.761 202.662C841.56 204.872 847.694 204.872 851.544 202.662C853.464 201.552 854.424 200.095 854.424 198.638V192.198C854.424 193.655 853.464 195.104 851.544 196.213C847.727 198.423 841.552 198.415 837.761 196.213C835.915 195.129 834.93 193.697 834.93 192.256Z" fill="#E1AA39"/>
<path d="M837.802 188.241C833.986 190.443 833.969 194.036 837.802 196.221C841.635 198.406 847.735 198.431 851.585 196.221C855.434 194.011 855.417 190.427 851.626 188.241C847.835 186.056 841.626 186.031 837.802 188.241Z" fill="white"/>
<path d="M808.391 207.578V214.018C808.391 215.459 809.334 216.891 811.213 217.983C815.013 220.194 821.188 220.194 825.004 217.983C826.925 216.874 827.885 215.417 827.877 213.969V207.528C827.877 208.977 826.925 210.434 825.004 211.543C821.18 213.745 815.005 213.745 811.213 211.543C809.343 210.45 808.399 209.018 808.391 207.578Z" fill="#E1AA39"/>
<path d="M811.272 203.556C807.456 205.766 807.431 209.35 811.222 211.544C815.014 213.737 821.156 213.746 825.013 211.544C828.871 209.342 828.846 205.749 825.013 203.556C821.181 201.362 815.088 201.354 811.272 203.556Z" fill="white"/>
<path d="M860.367 207.082V213.522C860.367 214.954 861.311 216.395 863.198 217.487C866.99 219.689 873.132 219.689 876.981 217.487C878.901 216.378 879.862 214.921 879.853 213.472V207.032C879.853 208.481 878.901 209.938 876.981 211.047C873.157 213.249 866.99 213.249 863.198 211.047C861.311 209.905 860.367 208.473 860.367 207.082Z" fill="#E1AA39"/>
<path d="M863.232 203.017C859.408 205.227 859.399 208.811 863.191 211.005C866.982 213.198 873.124 213.207 876.973 211.005C880.823 208.803 880.806 205.21 877.015 203.017C873.224 200.823 867.056 200.815 863.232 203.017Z" fill="white"/>
<path d="M833.83 222.363V228.803C833.83 230.235 834.774 231.675 836.661 232.768C840.452 234.97 846.595 234.97 850.452 232.768C852.373 231.659 853.325 230.202 853.325 228.745V222.305C853.325 223.762 852.364 225.219 850.444 226.328C846.628 228.53 840.452 228.53 836.653 226.328C834.774 225.227 833.83 223.795 833.83 222.363Z" fill="#E1AA39"/>
<path d="M836.743 218.34C832.919 220.542 832.902 224.134 836.685 226.328C840.468 228.522 846.66 228.53 850.476 226.328C854.292 224.126 854.317 220.533 850.518 218.34C846.718 216.146 840.526 216.138 836.743 218.34Z" fill="white"/>
<path d="M885.797 221.816V228.256C885.797 229.697 886.749 231.129 888.636 232.23C892.427 234.432 898.57 234.432 902.411 232.23C904.339 231.121 905.291 229.664 905.291 228.207C905.291 226.063 905.291 223.911 905.291 221.767C905.291 223.224 904.331 224.672 902.411 225.79C898.595 227.992 892.419 227.983 888.636 225.79C886.749 224.689 885.805 223.257 885.797 221.816Z" fill="#E1AA39"/>
<path d="M888.671 217.843C884.855 220.045 884.838 223.637 888.671 225.823C892.504 228.008 898.605 228.033 902.446 225.823C906.286 223.613 906.278 220.028 902.495 217.835C898.712 215.641 892.495 215.6 888.671 217.843Z" fill="white"/>
<path d="M859.258 237.139V243.588C859.258 245.02 860.201 246.452 862.089 247.553C865.88 249.755 872.022 249.755 875.872 247.553C877.792 246.443 878.752 244.987 878.752 243.538V237.098C878.752 238.546 877.8 240.003 875.88 241.112C872.055 243.323 865.88 243.323 862.097 241.112C860.21 240.011 859.266 238.579 859.258 237.139Z" fill="#E1AA39"/>
<path d="M862.138 233.124C858.322 235.326 858.297 238.919 862.097 241.104C865.897 243.289 872.03 243.314 875.88 241.104C879.729 238.894 879.712 235.309 875.921 233.124C872.13 230.939 865.954 230.914 862.138 233.124Z" fill="white"/>
<path d="M780.18 221.626L780.08 253.835L693.443 304.19L693.534 271.981L780.18 221.626Z" fill="#413EB7"/>
<path d="M693.535 271.981L693.444 304.191L639 272.751L639.091 240.55L693.535 271.981Z" fill="#7370E3"/>
<path d="M780.179 221.626L693.534 271.98L639.09 240.549L725.727 190.194L780.179 221.626Z" fill="#9C9AFF"/>
<path d="M732.44 201.602V208.042C732.44 209.474 731.496 210.915 729.609 212.007C725.817 214.209 719.675 214.217 715.826 212.007C713.906 210.898 712.945 209.441 712.945 207.984V201.544C712.945 203.001 713.897 204.458 715.818 205.567C719.642 207.769 725.809 207.769 729.601 205.567C731.513 204.474 732.44 203.034 732.44 201.602Z" fill="#7370E3"/>
<path d="M729.586 197.579C733.41 199.789 733.418 203.373 729.627 205.567C725.836 207.76 719.693 207.769 715.844 205.567C711.995 203.365 712.012 199.772 715.795 197.587C719.578 195.402 725.769 195.377 729.586 197.579Z" fill="#FBFFFF"/>
<path d="M758.997 216.916V223.364C758.997 224.796 758.045 226.229 756.157 227.33C752.366 229.531 746.224 229.531 742.383 227.33C740.462 226.22 739.494 224.763 739.502 223.306V216.866C739.502 218.323 740.462 219.78 742.383 220.889C746.199 223.091 752.374 223.091 756.157 220.889C758.045 219.788 758.988 218.356 758.997 216.916Z" fill="#7370E3"/>
<path d="M756.117 212.876C759.941 215.078 759.957 218.671 756.117 220.865C752.276 223.058 746.183 223.066 742.342 220.865C738.501 218.663 738.501 215.07 742.292 212.876C746.084 210.683 752.309 210.699 756.117 212.876Z" fill="#FBFFFF"/>
<path d="M707.028 216.378V222.818C707.028 224.258 706.076 225.69 704.188 226.791C700.397 228.993 694.255 228.993 690.414 226.791C688.485 225.674 687.525 224.225 687.533 222.768V216.328C687.533 217.777 688.493 219.234 690.414 220.351C694.23 222.553 700.397 222.553 704.188 220.351C706.076 219.25 707.02 217.843 707.028 216.378Z" fill="#7370E3"/>
<path d="M704.157 212.363C707.973 214.565 707.989 218.158 704.157 220.351C700.324 222.545 694.223 222.553 690.382 220.351C686.541 218.149 686.533 214.557 690.333 212.363C694.132 210.17 700.332 210.161 704.157 212.363Z" fill="#FBFFFF"/>
<path d="M733.559 231.7V238.14C733.559 239.581 732.607 241.013 730.728 242.105C726.928 244.316 720.794 244.316 716.945 242.105C715.024 240.996 714.064 239.539 714.064 238.091V231.65C714.064 233.099 715.016 234.556 716.937 235.665C720.761 237.875 726.92 237.875 730.719 235.665C732.615 234.573 733.559 233.132 733.559 231.7Z" fill="#7370E3"/>
<path d="M730.685 227.677C734.501 229.887 734.518 233.472 730.726 235.665C726.935 237.859 720.793 237.876 716.944 235.665C713.094 233.455 713.103 229.871 716.902 227.686C720.702 225.5 726.869 225.475 730.685 227.677Z" fill="#FBFFFF"/>
<path d="M681.598 231.162V237.603C681.598 239.043 680.654 240.475 678.767 241.568C674.967 243.778 668.833 243.778 664.984 241.568C663.064 240.459 662.104 239.002 662.104 237.545V231.104C662.104 232.561 663.064 234.018 664.984 235.128C668.809 237.33 674.976 237.33 678.767 235.128C680.646 234.035 681.59 232.595 681.598 231.162Z" fill="#7370E3"/>
<path d="M678.717 227.139C682.542 229.349 682.55 232.934 678.759 235.127C674.967 237.321 668.825 237.329 664.976 235.127C661.127 232.925 661.135 229.333 664.926 227.147C668.718 224.962 674.901 224.937 678.717 227.139Z" fill="#FBFFFF"/>
<path d="M708.129 246.476V252.925C708.129 254.357 707.177 255.789 705.29 256.89C701.499 259.092 695.356 259.092 691.516 256.89C689.587 255.781 688.627 254.324 688.635 252.867V246.427C688.635 247.884 689.595 249.341 691.516 250.45C695.332 252.652 701.499 252.652 705.29 250.45C707.177 249.349 708.121 247.917 708.129 246.476Z" fill="#7370E3"/>
<path d="M705.255 242.462C709.071 244.672 709.088 248.256 705.255 250.45C701.423 252.644 695.322 252.652 691.481 250.45C687.64 248.248 687.64 244.655 691.431 242.462C695.222 240.268 701.431 240.26 705.255 242.462Z" fill="#FBFFFF"/>
<path d="M968.271 68.7744L968.188 98.3929L913.637 130.097L913.728 100.471L968.271 68.7744Z" fill="#413EB7"/>
<path d="M913.728 100.47L913.637 130.097L863.572 101.182L863.655 71.5635L913.728 100.47Z" fill="#7370E3"/>
<path d="M968.271 68.7742L913.727 100.47L863.654 71.5638L918.206 39.8594L968.271 68.7742Z" fill="#9C9AFF"/>
<path d="M924.43 53.3934V59.3121C924.43 60.6366 923.561 61.9528 921.831 62.9627C919.867 63.9629 917.694 64.4843 915.49 64.4843C913.286 64.4843 911.113 63.9629 909.149 62.9627C907.377 61.9362 906.5 60.6035 906.5 59.2625V53.3438C906.5 54.6765 907.377 56.0175 909.149 57.0357C911.113 58.0359 913.286 58.5573 915.49 58.5573C917.694 58.5573 919.867 58.0359 921.831 57.0357C923.561 56.0258 924.43 54.7096 924.43 53.3934Z" fill="#413EB7"/>
<path d="M921.783 49.6934C925.293 51.7214 925.318 55.0078 921.833 57.0359C919.869 58.0361 917.696 58.5574 915.492 58.5574C913.288 58.5574 911.115 58.0361 909.151 57.0359C905.633 55.0078 905.624 51.7214 909.109 49.6934C911.072 48.6932 913.243 48.1719 915.446 48.1719C917.649 48.1719 919.82 48.6932 921.783 49.6934Z" fill="#FBFFFF"/>
<path d="M948.835 67.4828V73.4015C948.835 74.7259 948.007 76.0421 946.235 77.052C944.271 78.0522 942.098 78.5736 939.894 78.5736C937.69 78.5736 935.518 78.0522 933.553 77.052C931.782 76.0339 930.905 74.6928 930.905 73.3518V67.4248C930.905 68.7658 931.782 70.1069 933.553 71.125C935.518 72.1252 937.69 72.6466 939.894 72.6466C942.098 72.6466 944.271 72.1252 946.235 71.125C947.965 70.1151 948.835 68.8403 948.835 67.4828Z" fill="#413EB7"/>
<path d="M946.186 63.7822C949.696 65.8103 949.721 69.0967 946.236 71.1247C944.272 72.1249 942.099 72.6463 939.895 72.6463C937.691 72.6463 935.518 72.1249 933.554 71.1247C930.044 69.0967 930.028 65.8103 933.513 63.7822C935.475 62.7821 937.647 62.2607 939.849 62.2607C942.052 62.2607 944.224 62.7821 946.186 63.7822Z" fill="#FBFFFF"/>
<path d="M901.039 66.9862V72.9132C901.039 74.2294 900.211 75.5456 898.44 76.5555C896.476 77.5557 894.303 78.077 892.099 78.077C889.895 78.077 887.722 77.5557 885.758 76.5555C883.995 75.529 883.109 74.1963 883.117 72.8553V66.9365C883.117 68.2693 883.995 69.6103 885.758 70.6285C887.722 71.6287 889.895 72.15 892.099 72.15C894.303 72.15 896.476 71.6287 898.44 70.6285C900.17 69.6186 901.039 68.3024 901.039 66.9862Z" fill="#413EB7"/>
<path d="M898.388 63.2854C901.906 65.3135 901.923 68.5999 898.438 70.628C896.474 71.6281 894.301 72.1495 892.097 72.1495C889.893 72.1495 887.72 71.6281 885.756 70.628C882.246 68.5999 882.229 65.3135 885.756 63.2854C887.713 62.2909 889.877 61.7725 892.072 61.7725C894.267 61.7725 896.431 62.2909 898.388 63.2854Z" fill="#FBFFFF"/>
<path d="M925.441 81.0751V87.0021C925.441 88.3182 924.572 89.6344 922.842 90.6443C920.878 91.6445 918.705 92.1659 916.501 92.1659C914.297 92.1659 912.124 91.6445 910.16 90.6443C908.397 89.6262 907.511 88.2851 907.52 86.9441V81.0254C907.52 82.3581 908.397 83.6992 910.16 84.7173C912.124 85.7175 914.297 86.2389 916.501 86.2389C918.705 86.2389 920.878 85.7175 922.842 84.7173C924.572 83.7405 925.441 82.3912 925.441 81.0751Z" fill="#413EB7"/>
<path d="M922.835 77.375C926.353 79.4031 926.369 82.6894 922.884 84.7175C920.92 85.7177 918.747 86.2391 916.543 86.2391C914.339 86.2391 912.166 85.7177 910.202 84.7175C906.693 82.6894 906.676 79.4031 910.161 77.375C912.124 76.3749 914.295 75.8535 916.498 75.8535C918.7 75.8535 920.872 76.3749 922.835 77.375Z" fill="#FBFFFF"/>
</svg>
