<svg width="738" height="337" viewBox="0 0 738 337" fill="none" xmlns="http://www.w3.org/2000/svg">
<path d="M174.376 -408.167L25.9484 -420.452C52.6264 -384.442 -106.619 -180.27 142.982 -122.818C256.754 -39.3948 39.8203 -55.7967 114.161 79.739C150.213 145.445 282.905 151.428 299.622 213.269C320.166 289.281 41.6067 346.771 41.6067 346.771L125.999 446C230.042 387.694 408.116 437.924 468.029 403.957C564.09 349.49 472.13 267.068 531.067 209.014C586.77 154.127 857.174 186.732 835.31 93.4286C768.531 -191.548 942.128 -79.3881 956.794 -116.929C966.494 -141.735 982.13 -148.676 1000.48 -154.179L174.388 -408.182L174.376 -408.167Z" fill="white" fill-opacity="0.2"/>
</svg>
