<svg width="901" height="594" viewBox="0 0 901 594" fill="none" xmlns="http://www.w3.org/2000/svg">
<path d="M-18.2999 -526.517L-249.116 -545.622C-207.63 -489.623 -455.268 -172.121 -67.1199 -82.7798C109.804 46.9499 -227.544 21.4438 -111.939 232.212C-55.8759 334.389 150.47 343.693 176.466 439.861C208.413 558.065 -16.2232 571.307 -16.2232 571.307L115.012 725.615C276.807 634.945 345.183 789.215 438.352 736.394C587.733 651.694 444.729 523.522 536.38 433.244C623.002 347.891 1043.5 398.593 1009.5 253.5C905.653 -189.659 1175.61 -15.2425 1198.42 -73.6221C1213.5 -112.197 1237.82 -122.99 1266.35 -131.548L-18.2822 -526.541L-18.2999 -526.517Z" fill="white" fill-opacity="0.14"/>
</svg>
