<svg width="98" height="40" viewBox="0 0 98 40" fill="none" xmlns="http://www.w3.org/2000/svg">
<path fill-rule="evenodd" clip-rule="evenodd" d="M43.9648 10.6907C43.9648 9.56067 44.5319 8.99364 45.6618 8.99364H54.1673C55.2973 8.99364 55.8643 8.42661 55.8643 7.29662C55.8521 6.16664 55.2851 5.59961 54.1673 5.59961H43.9648C41.713 5.59961 40.583 6.7296 40.5708 8.99364V15.7817C40.5708 18.0417 41.7008 19.1757 43.9648 19.1757L52.4499 19.1594C54.7099 19.1594 55.8521 18.0294 55.8602 15.7654V14.0847C55.8602 11.8206 54.7262 10.6907 52.4662 10.6907H43.9648ZM51.1975 13.4034C52.042 13.4034 52.4703 14.1418 52.4703 14.7047C52.4703 15.2718 52.1562 16.0101 51.3933 16.0101H45.6659C44.5359 16.0101 43.9689 14.5334 43.9689 13.4075H51.1975V13.4034Z" fill="#E40023" stroke="#E40023" stroke-width="0.578168" stroke-miterlimit="22.9256"/>
<path fill-rule="evenodd" clip-rule="evenodd" d="M20.9697 15.7442C20.9697 17.8083 21.908 18.9301 23.7886 19.1137L23.8824 19.1423H24.3638H32.5143H34.5458C36.8058 19.1423 37.9399 18.0245 37.9399 15.7809V15.7442V8.98875V8.95203C37.9399 6.70838 36.8058 5.59064 34.5458 5.59064H32.5143H26.0852H24.3638H23.8824L23.7886 5.61919C21.908 5.80276 20.9697 6.92459 20.9697 8.98875V15.7442ZM24.8655 15.4015L24.837 15.377C24.8166 15.3607 24.8002 15.3444 24.7839 15.3281L24.7595 15.3036L24.735 15.275L24.7105 15.2465L24.686 15.2179L24.6615 15.1894L24.6412 15.1608L24.6208 15.1282L24.6004 15.0955L24.58 15.0629L24.5596 15.0303L24.5432 14.9976L24.5269 14.9609L24.5106 14.9242L24.4943 14.8875L24.478 14.8508L24.4657 14.8141L24.4535 14.7733L24.4413 14.7325L24.429 14.6917L24.4168 14.6509L24.4086 14.6101L24.4005 14.5652L24.3923 14.5204L24.3842 14.4755L24.376 14.4306L24.3719 14.3857L24.3678 14.3368L24.3638 14.2878L24.3597 14.2389L24.3556 14.1899V14.141V14.0879V10.6572V10.6042V10.5552L24.3597 10.5063L24.3638 10.4573L24.3678 10.4084L24.3719 10.3594L24.376 10.3145L24.3842 10.2697L24.3923 10.2248L24.4005 10.1799L24.4086 10.135L24.4168 10.0943L24.429 10.0535L24.4413 10.0127L24.4535 9.97187L24.4657 9.93108L24.478 9.89436L24.4943 9.85765L24.5106 9.82094L24.5269 9.78422L24.5432 9.74751L24.5596 9.71487L24.58 9.68224L24.6004 9.64144L24.6208 9.60881L24.6412 9.57617L24.6615 9.54762L24.686 9.51906L24.7105 9.4905L24.735 9.46195L24.7595 9.43339L24.7839 9.40892C24.8002 9.3926 24.8206 9.37628 24.837 9.35997L24.8655 9.33549C24.8941 9.31101 24.9226 9.29062 24.9553 9.27022C25.2245 9.08665 25.5876 8.9969 26.0404 8.9969H32.8284C33.9584 8.9969 34.5336 9.56394 34.5418 10.6939V14.0553C34.5295 15.1853 33.9584 15.7523 32.8284 15.7523H26.0444C25.5916 15.7523 25.2286 15.6626 24.9593 15.479C24.9267 15.4504 24.8941 15.426 24.8655 15.4015Z" fill="#E40023" stroke="#E40023" stroke-width="0.578168" stroke-miterlimit="22.9256"/>
<path fill-rule="evenodd" clip-rule="evenodd" d="M75.1798 19.1757H63.317C59.923 19.1757 58.2178 17.4787 58.2056 14.0847V7.29662C58.2056 6.16664 58.7726 5.59961 59.9026 5.59961C61.0366 5.59961 61.5996 6.16664 61.5996 7.29662L61.6159 14.0847C61.6159 15.2147 62.1789 15.7817 63.2966 15.7817H71.7817V7.29662C71.7817 6.16664 72.3446 5.59961 73.4624 5.59961C74.5924 5.59961 75.1594 6.16664 75.1594 7.29662L75.1798 19.1757Z" fill="#E40023" stroke="#E40023" stroke-width="0.578168" stroke-miterlimit="22.9256"/>
<path fill-rule="evenodd" clip-rule="evenodd" d="M35.6104 39.0248C34.6395 39.6 33.8603 39.3961 33.2851 38.4252L28.4266 30.2257L23.5681 38.4252C22.9929 39.3961 22.2178 39.6 21.2429 39.0248C20.272 38.4537 20.0599 37.6827 20.6269 36.7322L26.7255 26.44C27.1743 25.6853 27.7413 25.3957 28.4266 25.5711C29.112 25.3957 29.6831 25.6853 30.1277 26.44L36.2264 36.7322C36.7934 37.6827 36.5813 38.4537 35.6104 39.0248Z" fill="#FF953B" stroke="#FF953B" stroke-width="0.578168" stroke-miterlimit="22.9256"/>
<path fill-rule="evenodd" clip-rule="evenodd" d="M54.5756 39.0849H42.7128C39.3188 39.0849 37.6136 37.3879 37.6055 33.9939V27.2058C37.6055 26.0758 38.1725 25.5088 39.3025 25.5088C40.4365 25.5088 40.9995 26.0758 40.9995 27.2058L41.0158 33.9939C41.0158 35.1238 41.5788 35.6909 42.6965 35.6909H51.1816V27.2058C51.1816 26.0758 51.7445 25.5088 52.8623 25.5088C53.9923 25.5088 54.5593 26.0758 54.5593 27.2058L54.5756 39.0849Z" fill="#FF953B" stroke="#FF953B" stroke-width="0.578168" stroke-miterlimit="22.9256"/>
<path fill-rule="evenodd" clip-rule="evenodd" d="M94.8751 6.67207C95.3076 7.71639 95.0016 8.45883 93.9614 8.89125L85.2397 12.4974L93.9736 15.9281C94.4019 16.0954 94.6956 16.3279 94.867 16.6135L94.8996 16.6257V16.6706C95.1036 17.0663 95.0791 17.564 94.8303 18.1432C94.3815 19.1794 93.6513 19.4405 92.5989 19.0285L81.3439 14.6105L81.3602 17.462C81.3602 18.6042 80.7932 19.1753 79.6632 19.1753C78.5332 19.1753 77.9662 18.6083 77.9662 17.4783V14.8838C77.6766 14.7084 77.444 14.4025 77.2605 13.966C76.8566 12.9951 77.0932 12.2853 77.9662 11.8406V2.16438C77.9662 1.05887 78.5332 0.5 79.6632 0.5C80.7809 0.5 81.3439 1.05479 81.3439 2.16438V10.4332L92.6927 5.7379C93.7125 5.32181 94.4427 5.62776 94.8751 6.67207Z" fill="#E40023" stroke="#E40023" stroke-width="0.578168" stroke-miterlimit="22.9256"/>
<path fill-rule="evenodd" clip-rule="evenodd" d="M3.08979 20.3703C4.20753 20.3703 4.77048 20.9251 4.77048 22.0347V30.3076L16.1193 25.6123C17.1432 25.188 17.8734 25.4981 18.3058 26.5383C18.7382 27.5826 18.4363 28.3251 17.392 28.7575L8.67035 32.3636L17.4043 35.7944C17.8326 35.9616 18.1263 36.1941 18.2976 36.4797L18.3303 36.4919V36.5368C18.5342 36.9325 18.5098 37.4302 18.2609 38.0095C17.8122 39.0456 17.082 39.3067 16.0295 38.8947L4.77456 34.4767L4.79088 37.3282C4.79088 38.4704 4.22385 39.0415 3.09387 39.0415C1.96388 39.0415 1.39685 38.4745 1.39685 37.3445V34.75C1.10722 34.5746 0.870616 34.2687 0.691124 33.8322C0.287267 32.8613 0.52387 32.1515 1.39685 31.7068V22.0306C1.39277 20.9251 1.9598 20.3703 3.08979 20.3703Z" fill="#FF953B" stroke="#FF953B" stroke-width="0.578168" stroke-miterlimit="22.9256"/>
<path fill-rule="evenodd" clip-rule="evenodd" d="M58.9194 20.3703C60.0371 20.3703 60.6001 20.9251 60.6001 22.0347V30.3076L71.9489 25.6123C72.9728 25.188 73.703 25.4981 74.1354 26.5383C74.5678 27.5826 74.2619 28.3251 73.2216 28.7575L64.4999 32.3636L73.2339 35.7944C73.6622 35.9616 73.9559 36.1941 74.1272 36.4797L74.1599 36.4919V36.5368C74.3638 36.9325 74.3394 37.4302 74.0905 38.0095C73.6418 39.0456 72.9116 39.3067 71.8591 38.8947L60.6042 34.4767L60.6205 37.3282C60.6205 38.4704 60.0534 39.0415 58.9235 39.0415C57.7935 39.0415 57.2264 38.4745 57.2264 37.3445V34.75C56.9368 34.5746 56.7002 34.2687 56.5207 33.8322C56.1169 32.8613 56.3535 32.1515 57.2264 31.7068V22.0306C57.2224 20.9251 57.7894 20.3703 58.9194 20.3703Z" fill="#FF953B" stroke="#FF953B" stroke-width="0.578168" stroke-miterlimit="22.9256"/>
<path fill-rule="evenodd" clip-rule="evenodd" d="M83.4612 37.3461C84.5953 37.0279 85.0032 36.2977 84.685 35.1677L83.0573 29.3097L91.8524 38.4475C92.6683 39.296 93.4923 39.3368 94.349 38.5332C95.2098 37.7295 95.2587 36.8892 94.4592 36.0611L85.0807 26.3196L91.6893 27.8697C92.8356 28.1389 93.5454 27.7025 93.8187 26.5562C94.0879 25.4099 93.6637 24.7 92.5419 24.4349L80.4058 21.5916C80.365 21.5834 80.3282 21.5753 80.2875 21.5671C79.7163 21.3183 79.133 21.4692 78.5333 22.0281C78.1335 22.4034 77.9092 22.7868 77.8725 23.1784C77.8235 23.4599 77.848 23.7822 77.95 24.1493L81.2869 36.159C81.5969 37.2686 82.3271 37.6643 83.4612 37.3461Z" fill="#009EE3"/>
<path fill-rule="evenodd" clip-rule="evenodd" d="M4.78314 15.7822H13.2804C14.386 15.7822 14.9448 15.2152 14.9448 14.0852V10.6912C14.9448 9.56118 14.3778 8.99415 13.2478 8.99415H4.8117L4.78314 15.7822ZM3.12692 5.15139C3.70619 5.15139 4.1386 5.30233 4.42008 5.60012H13.2478C16.6418 5.60012 18.3389 7.29714 18.3389 10.6912V14.0852C18.3389 17.4792 16.6459 19.1762 13.2641 19.1762H4.7709L4.75867 21.7258V22.5703C4.75867 23.7002 4.19571 24.2673 3.07797 24.2673C2.7761 24.2673 2.57213 24.2265 2.43343 24.1449C1.71546 23.9613 1.3524 23.4147 1.35648 22.5172L1.42175 6.80761C1.42991 5.70211 1.99694 5.14731 3.12692 5.15139Z" fill="#E40023" stroke="#E40023" stroke-width="0.578168" stroke-miterlimit="22.9256"/>
</svg>
