<svg width="346" height="193" viewBox="0 0 346 193" fill="none" xmlns="http://www.w3.org/2000/svg">
<g filter="url(#filter0_ddiiii_79_8892)">
<path fill-rule="evenodd" clip-rule="evenodd" d="M36.4999 158C36.4789 151.932 31.786 147.02 25.9999 147.02C31.7989 147.02 36.4999 142.086 36.4999 136C36.5208 142.068 41.2138 146.98 46.9999 146.98C41.2008 146.98 36.4999 151.914 36.4999 158Z" fill="white"/>
</g>
<g filter="url(#filter1_ddiiii_79_8892)">
<path fill-rule="evenodd" clip-rule="evenodd" d="M241 49C240.986 45.1388 237.857 42.013 234 42.013C237.866 42.013 241 38.8731 241 35C241.014 38.8612 244.142 41.987 248 41.987C244.134 41.987 241 45.1269 241 49Z" fill="white"/>
</g>
<path d="M132.545 126.052C133.577 124.264 135.863 123.651 137.651 124.683L161.999 138.741C163.787 139.773 164.399 142.059 163.367 143.847L143.743 177.837C141.995 180.864 137.421 180.051 136.823 176.608L134.602 163.818C134.203 161.521 131.821 160.146 129.632 160.949L117.445 165.42C114.165 166.624 111.173 163.068 112.921 160.042L132.545 126.052Z" fill="#AD222A"/>
<path d="M208.074 126.052C207.042 124.264 204.756 123.651 202.968 124.683L178.62 138.741C176.832 139.773 176.22 142.059 177.252 143.847L196.876 177.837C198.624 180.864 203.198 180.051 203.796 176.608L206.017 163.818C206.416 161.521 208.798 160.146 210.987 160.949L223.174 165.42C226.455 166.624 229.446 163.068 227.699 160.042L208.074 126.052Z" fill="#AD222A"/>
<path d="M140.533 33.5374C143 28.9315 148.438 26.7874 153.385 28.4698L168.073 33.4651C170.184 34.1831 172.467 34.2222 174.602 33.5769L189.452 29.0875C194.454 27.5755 199.815 29.9045 202.124 34.5922L208.977 48.5103C209.962 50.5109 211.549 52.153 213.515 53.2061L227.19 60.5323C231.796 62.9998 233.94 68.4377 232.258 73.3847L227.262 88.0725C226.544 90.1838 226.505 92.4669 227.151 94.6015L231.64 109.452C233.152 114.454 230.823 119.815 226.135 122.123L212.217 128.977C210.217 129.962 208.575 131.549 207.522 133.514L200.195 147.19C197.728 151.796 192.29 153.94 187.343 152.257L172.655 147.262C170.544 146.544 168.261 146.505 166.126 147.15L151.276 151.64C146.274 153.152 140.913 150.823 138.604 146.135L131.751 132.217C130.766 130.216 129.179 128.574 127.213 127.521L113.538 120.195C108.932 117.727 106.788 112.289 108.47 107.342L113.466 92.6545C114.184 90.5433 114.223 88.2601 113.577 86.1255L109.088 71.2752C107.576 66.2735 109.905 60.9123 114.593 58.6039L128.511 51.7502C130.511 50.7651 132.153 49.1783 133.207 47.2126L140.533 33.5374Z" fill="white"/>
<circle cx="170.241" cy="90.2416" r="41.3831" stroke="#FFDEDA" stroke-width="6.94168"/>
<path d="M168.134 67.6293C169.127 65.6966 171.89 65.6966 172.883 67.6293L178.111 77.8015C178.494 78.5463 179.204 79.0684 180.029 79.2116L191.214 81.1531C193.32 81.5187 194.164 84.0876 192.686 85.6309L184.693 93.9711C184.125 94.564 183.862 95.3854 183.978 96.1982L185.629 107.683C185.937 109.82 183.711 111.419 181.783 110.446L171.712 105.361C170.955 104.979 170.062 104.979 169.305 105.361L159.234 110.446C157.306 111.419 155.081 109.82 155.388 107.683L157.039 96.1982C157.156 95.3854 156.892 94.564 156.324 93.9711L148.332 85.6309C146.853 84.0876 147.697 81.5187 149.803 81.1531L160.988 79.2116C161.813 79.0684 162.523 78.5463 162.906 77.8015L168.134 67.6293Z" fill="#E40023"/>
<g filter="url(#filter2_ddiiii_79_8892)">
<path d="M61.9754 35.0941C61.9754 34.8318 61.7627 34.6191 61.5004 34.6191C61.2381 34.6191 61.0254 34.8318 61.0254 35.0941V42.5214C61.0254 42.7837 61.2381 42.9964 61.5004 42.9964C61.7627 42.9964 61.9754 42.7837 61.9754 42.5214V35.0941Z" fill="white"/>
<path d="M61.9754 27.475C61.9754 27.2127 61.7627 27 61.5004 27C61.2381 27 61.0254 27.2127 61.0254 27.475V31.988C61.0254 32.2503 61.2381 32.463 61.5004 32.463C61.7627 32.463 61.9754 32.2503 61.9754 31.988V27.475Z" fill="white"/>
<path d="M60.1724 42.7502L56.4587 36.3179C56.3272 36.0904 56.0361 36.0125 55.8098 36.144C55.5825 36.2753 55.5048 36.5657 55.6358 36.7929L59.3495 43.2252C59.4377 43.3775 59.5972 43.4627 59.7614 43.4627C59.8419 43.4627 59.9238 43.4423 59.9985 43.3991C60.2258 43.2678 60.3035 42.9775 60.1724 42.7502Z" fill="white"/>
<path d="M54.0819 34.1025C54.17 34.2549 54.3296 34.34 54.4938 34.34C54.5743 34.34 54.6561 34.3196 54.7308 34.2764C54.9581 34.1451 55.0358 33.8548 54.9048 33.6275L52.6483 29.7192C52.5165 29.4919 52.2262 29.4139 51.9993 29.5452C51.772 29.6765 51.6943 29.9669 51.8254 30.1942L54.0819 34.1025Z" fill="white"/>
<path d="M51.8177 40.959L58.2499 44.6728C58.3248 44.7159 58.4065 44.7363 58.4869 44.7363C58.6511 44.7363 58.8107 44.6512 58.8989 44.4988C59.0299 44.2715 58.9522 43.9811 58.7249 43.8499L52.2927 40.1361C52.0645 40.0046 51.7748 40.0828 51.6437 40.3101C51.5127 40.5374 51.5904 40.8278 51.8177 40.959Z" fill="white"/>
<path d="M49.6014 38.5821L45.6931 36.3256C45.4651 36.1939 45.1752 36.2725 45.0441 36.4996C44.9131 36.7269 44.9908 37.0173 45.2181 37.1485L49.1264 39.405C49.2013 39.4482 49.2829 39.4686 49.3634 39.4686C49.5276 39.4686 49.6872 39.3835 49.7753 39.2311C49.9064 39.0038 49.8287 38.7134 49.6014 38.5821Z" fill="white"/>
<path d="M50.1191 46.0004C50.1191 46.2627 50.3318 46.4754 50.5941 46.4754H58.0214C58.2837 46.4754 58.4964 46.2627 58.4964 46.0004C58.4964 45.7381 58.2837 45.5254 58.0214 45.5254H50.5941C50.3318 45.5254 50.1191 45.7381 50.1191 46.0004Z" fill="white"/>
<path d="M42.975 46.4754H47.488C47.7503 46.4754 47.963 46.2627 47.963 46.0004C47.963 45.7381 47.7503 45.5254 47.488 45.5254H42.975C42.7127 45.5254 42.5 45.7381 42.5 46.0004C42.5 46.2627 42.7127 46.4754 42.975 46.4754Z" fill="white"/>
<path d="M58.8991 47.5016C58.7676 47.2743 58.4767 47.1964 58.2501 47.3277L51.8179 51.0414C51.5906 51.1727 51.5129 51.4631 51.644 51.6904C51.7321 51.8427 51.8917 51.9279 52.0559 51.9279C52.1364 51.9279 52.2183 51.9074 52.2929 51.8643L58.7251 48.1506C58.9524 48.0193 59.0301 47.7289 58.8991 47.5016Z" fill="white"/>
<path d="M49.1264 52.5951L45.2181 54.8516C44.9908 54.9828 44.9131 55.2732 45.0441 55.5005C45.1323 55.6529 45.2918 55.738 45.456 55.738C45.5365 55.738 45.6184 55.7176 45.6931 55.6745L49.6014 53.418C49.8287 53.2867 49.9064 52.9963 49.7753 52.769C49.6441 52.542 49.3535 52.4636 49.1264 52.5951Z" fill="white"/>
<path d="M55.8098 55.856C55.8847 55.8991 55.9663 55.9195 56.0468 55.9195C56.211 55.9195 56.3706 55.8344 56.4587 55.682L60.1724 49.2498C60.3035 49.0225 60.2258 48.7321 59.9985 48.6009C59.7707 48.4696 59.4806 48.5475 59.3495 48.7748L55.6358 55.207C55.5048 55.4343 55.5825 55.7247 55.8098 55.856Z" fill="white"/>
<path d="M54.0819 57.8971L51.8254 61.8054C51.6943 62.0327 51.772 62.323 51.9993 62.4543C52.0742 62.4975 52.1559 62.5179 52.2364 62.5179C52.4006 62.5179 52.5601 62.4327 52.6483 62.2804L54.9048 58.3721C55.0358 58.1448 54.9581 57.8544 54.7308 57.7231C54.5024 57.5914 54.2129 57.67 54.0819 57.8971Z" fill="white"/>
<path d="M61.9754 49.4779C61.9754 49.2156 61.7627 49.0029 61.5004 49.0029C61.2381 49.0029 61.0254 49.2156 61.0254 49.4779V56.9051C61.0254 57.1675 61.2381 57.3801 61.5004 57.3801C61.7627 57.3801 61.9754 57.1675 61.9754 56.9051V49.4779Z" fill="white"/>
<path d="M61.5004 59.5371C61.2381 59.5371 61.0254 59.7498 61.0254 60.0121V64.5251C61.0254 64.7874 61.2381 65.0001 61.5004 65.0001C61.7627 65.0001 61.9754 64.7874 61.9754 64.5251V60.0121C61.9754 59.7498 61.7627 59.5371 61.5004 59.5371Z" fill="white"/>
<path d="M62.8273 49.2498L66.5411 55.682C66.6292 55.8344 66.7888 55.9195 66.953 55.9195C67.0334 55.9195 67.1153 55.8991 67.19 55.856C67.4173 55.7247 67.495 55.4343 67.364 55.207L63.6502 48.7748C63.5187 48.5475 63.2279 48.4696 63.0013 48.6009C62.774 48.7321 62.6963 49.0225 62.8273 49.2498Z" fill="white"/>
<path d="M68.2689 57.7233C68.0416 57.8546 67.9639 58.145 68.0949 58.3723L70.3514 62.2806C70.4395 62.433 70.5991 62.5181 70.7633 62.5181C70.8438 62.5181 70.9257 62.4977 71.0003 62.4546C71.2276 62.3233 71.3053 62.0329 71.1743 61.8056L68.9178 57.8973C68.7861 57.6702 68.4959 57.5916 68.2689 57.7233Z" fill="white"/>
<path d="M71.3559 51.6901C71.4869 51.4628 71.4092 51.1724 71.1819 51.0412L64.7497 47.3274C64.522 47.1962 64.2318 47.2741 64.1008 47.5014C63.9697 47.7287 64.0474 48.0191 64.2747 48.1503L70.7069 51.8641C70.7819 51.9072 70.8635 51.9276 70.944 51.9276C71.1082 51.9276 71.2678 51.8425 71.3559 51.6901Z" fill="white"/>
<path d="M73.3978 53.418L77.3061 55.6745C77.381 55.7176 77.4626 55.738 77.5431 55.738C77.7073 55.738 77.8669 55.6529 77.955 55.5005C78.0861 55.2732 78.0084 54.9828 77.7811 54.8516L73.8728 52.5951C73.6445 52.4636 73.3551 52.542 73.2238 52.769C73.0928 52.9963 73.1705 53.2867 73.3978 53.418Z" fill="white"/>
<path d="M72.8811 46.0004C72.8811 45.7381 72.6684 45.5254 72.4061 45.5254H64.9789C64.7166 45.5254 64.5039 45.7381 64.5039 46.0004C64.5039 46.2627 64.7166 46.4754 64.9789 46.4754H72.4061C72.6684 46.4754 72.8811 46.2627 72.8811 46.0004Z" fill="white"/>
<path d="M80.5001 46.0004C80.5001 45.7381 80.2874 45.5254 80.0251 45.5254H75.5121C75.2498 45.5254 75.0371 45.7381 75.0371 46.0004C75.0371 46.2627 75.2498 46.4754 75.5121 46.4754H80.0251C80.2874 46.4754 80.5001 46.2627 80.5001 46.0004Z" fill="white"/>
<path d="M64.1008 44.4988C64.1889 44.6512 64.3485 44.7363 64.5127 44.7363C64.5932 44.7363 64.675 44.7159 64.7497 44.6728L71.1819 40.959C71.4092 40.8278 71.4869 40.5374 71.3559 40.3101C71.2241 40.0828 70.9338 40.0046 70.7069 40.1361L64.2747 43.8499C64.0474 43.9811 63.9697 44.2715 64.1008 44.4988Z" fill="white"/>
<path d="M73.6357 39.4686C73.7162 39.4686 73.7981 39.4482 73.8728 39.405L77.7811 37.1485C78.0084 37.0173 78.0861 36.7269 77.955 36.4996C77.8235 36.2725 77.5327 36.1939 77.3061 36.3256L73.3978 38.5821C73.1705 38.7134 73.0928 39.0038 73.2238 39.2311C73.312 39.3835 73.4715 39.4686 73.6357 39.4686Z" fill="white"/>
<path d="M67.19 36.144C66.9616 36.0125 66.6723 36.0904 66.5411 36.3179L62.8273 42.7502C62.6963 42.9775 62.774 43.2678 63.0013 43.3991C63.0762 43.4423 63.1578 43.4627 63.2383 43.4627C63.4025 43.4627 63.5621 43.3775 63.6502 43.2252L67.364 36.7929C67.495 36.5657 67.4173 36.2753 67.19 36.144Z" fill="white"/>
<path d="M68.5059 34.34C68.6701 34.34 68.8297 34.2549 68.9178 34.1025L71.1743 30.1942C71.3053 29.9669 71.2276 29.6765 71.0003 29.5452C70.7721 29.4139 70.4822 29.4919 70.3514 29.7192L68.0949 33.6275C67.9639 33.8548 68.0416 34.1451 68.2689 34.2764C68.3438 34.3196 68.4254 34.34 68.5059 34.34Z" fill="white"/>
</g>
<g filter="url(#filter3_ddiiii_79_8892)">
<path d="M301.256 47.8223C302.035 48.3653 302.449 48.0651 302.174 47.1554L302.055 46.7622C301.779 45.8525 302.174 44.6385 302.931 44.0645L303.259 43.8162C304.016 43.2422 303.858 42.7566 302.908 42.737L302.497 42.7288C301.547 42.7092 300.514 41.959 300.202 41.0615L300.067 40.6734C299.755 39.7755 299.244 39.7755 298.932 40.6734L298.797 41.0611C298.485 41.959 297.453 42.7092 296.502 42.7284L296.092 42.7366C295.141 42.7562 294.984 43.2418 295.741 43.8158L296.068 44.064C296.825 44.638 297.22 45.8521 296.945 46.7618L296.826 47.1549C296.551 48.0647 296.964 48.3649 297.744 47.8218L298.081 47.5872C298.861 47.0442 300.138 47.0442 300.918 47.5872L301.256 47.8223Z" fill="white"/>
<path d="M300.911 49.7395C300.793 48.9605 300.067 48.4244 299.288 48.5414C298.509 48.659 297.973 49.3851 298.09 50.1641L299.501 59.5274L300.911 50.1641C300.931 50.0293 300.932 49.8821 300.911 49.7395Z" fill="white"/>
<path d="M297.744 73.1769C296.964 72.6339 296.551 72.9341 296.826 73.8438L296.945 74.2369C297.22 75.1467 296.825 76.3607 296.068 76.9347L295.741 77.183C294.984 77.757 295.141 78.2426 296.092 78.2622L296.502 78.2704C297.453 78.2899 298.485 79.0402 298.797 79.9377L298.932 80.3258C299.244 81.2237 299.755 81.2237 300.067 80.3258L300.202 79.9377C300.514 79.0398 301.547 78.2895 302.497 78.2704L302.908 78.2622C303.858 78.2426 304.016 77.757 303.259 77.183L302.931 76.9347C302.174 76.3607 301.779 75.1467 302.055 74.2369L302.174 73.8438C302.449 72.9341 302.035 72.6339 301.256 73.1769L300.918 73.4115C300.139 73.9545 298.862 73.9545 298.082 73.4115L297.744 73.1769Z" fill="white"/>
<path d="M298.09 71.2596C298.207 72.0385 298.933 72.5747 299.712 72.4576C300.491 72.3401 301.027 71.614 300.91 70.835L299.5 61.4717L298.09 70.835C298.07 70.9698 298.068 71.117 298.09 71.2596Z" fill="white"/>
<path d="M312.177 62.2546C311.634 63.0345 311.934 63.4477 312.844 63.1725L313.237 63.0536C314.147 62.7785 315.361 63.173 315.935 63.9301L316.183 64.2577C316.757 65.0148 317.243 64.8572 317.262 63.9069L317.27 63.496C317.29 62.5457 318.04 61.513 318.938 61.2009L319.326 61.0661C320.224 60.754 320.224 60.2434 319.326 59.9313L318.938 59.7965C318.04 59.4844 317.289 58.4517 317.27 57.5014L317.262 57.0905C317.243 56.1403 316.757 55.9827 316.183 56.7398L315.935 57.0673C315.361 57.8244 314.147 58.2189 313.237 57.9438L312.844 57.8249C311.934 57.5497 311.634 57.9629 312.177 58.7428L312.411 59.0799C312.955 59.8598 312.955 61.1367 312.411 61.9166L312.177 62.2546Z" fill="white"/>
<path d="M310.26 61.9098C311.039 61.7923 311.576 61.0661 311.458 60.2871C311.341 59.5081 310.615 58.972 309.836 59.089L300.473 60.4994L309.836 61.9098C309.971 61.9294 310.118 61.9312 310.26 61.9098Z" fill="white"/>
<path d="M286.822 58.7438C287.365 57.9639 287.065 57.5507 286.155 57.8259L285.762 57.9448C284.853 58.2199 283.638 57.8254 283.064 57.0683L282.816 56.7407C282.242 55.9836 281.757 56.1412 281.737 57.0915L281.729 57.5024C281.709 58.4527 280.959 59.4854 280.062 59.7975L279.673 59.9323C278.776 60.2444 278.776 60.755 279.673 61.0671L280.062 61.2019C280.959 61.514 281.71 62.5467 281.729 63.497L281.737 63.9079C281.757 64.8581 282.242 65.0157 282.816 64.2586L283.064 63.9311C283.638 63.174 284.853 62.7795 285.762 63.0546L286.155 63.1735C287.065 63.4487 287.365 63.0355 286.822 62.2556L286.588 61.9185C286.045 61.1386 286.045 59.8617 286.588 59.0818L286.822 58.7438Z" fill="white"/>
<path d="M288.74 59.0886C287.961 59.2062 287.424 59.9323 287.541 60.7113C287.659 61.4903 288.385 62.0264 289.164 61.9094L298.527 60.499L289.164 59.0886C289.029 59.069 288.882 59.0672 288.74 59.0886Z" fill="white"/>
<path d="M309.706 52.7769C309.874 53.7121 310.378 53.7923 310.827 52.9545L311.021 52.5924C311.47 51.7546 312.607 51.1752 313.549 51.3045L313.956 51.3606C314.897 51.49 315.129 51.0353 314.471 50.3497L314.186 50.0532C313.528 49.3676 313.328 48.1066 313.743 47.2516L313.922 46.8816C314.336 46.0261 313.974 45.6653 313.119 46.0794L312.749 46.2585C311.894 46.6726 310.633 46.473 309.948 45.8148L309.651 45.53C308.966 44.8718 308.511 45.1037 308.64 46.0453L308.696 46.4525C308.826 47.3941 308.246 48.5312 307.409 48.9799L307.047 49.174C306.209 49.6227 306.288 50.127 307.224 50.2946L307.629 50.367C308.564 50.5347 309.467 51.4376 309.634 52.3728L309.706 52.7769Z" fill="white"/>
<path d="M308.106 53.8886C308.574 53.2549 308.44 52.362 307.806 51.8942C307.172 51.4263 306.279 51.5607 305.811 52.1944L300.188 59.8129L307.806 54.1892C307.916 54.1072 308.021 54.0043 308.106 53.8886Z" fill="white"/>
<path d="M289.294 68.2221C289.126 67.2868 288.622 67.2066 288.173 68.0444L287.979 68.4066C287.53 69.2443 286.393 69.8238 285.451 69.6944L285.044 69.6383C284.103 69.509 283.871 69.9636 284.529 70.6492L284.814 70.9458C285.472 71.6314 285.671 72.8923 285.257 73.7474L285.078 74.1173C284.664 74.9728 285.025 75.3336 285.881 74.9195L286.25 74.7405C287.106 74.3264 288.366 74.5259 289.052 75.1842L289.349 75.4689C290.034 76.1272 290.489 75.8953 290.359 74.9537L290.303 74.5464C290.174 73.6048 290.754 72.4678 291.591 72.019L291.953 71.825C292.791 71.3763 292.711 70.872 291.776 70.7043L291.371 70.6319C290.436 70.4643 289.533 69.5614 289.365 68.6261L289.294 68.2221Z" fill="white"/>
<path d="M290.892 67.1105C290.424 67.7441 290.559 68.637 291.192 69.1048C291.826 69.5727 292.719 69.4383 293.187 68.8046L298.81 61.1865L291.192 66.8098C291.083 66.8918 290.977 66.9947 290.892 67.1105Z" fill="white"/>
<path d="M307.224 70.7052C306.289 70.8729 306.208 71.3772 307.046 71.8259L307.408 72.0199C308.246 72.4686 308.826 73.6061 308.696 74.5473L308.64 74.9546C308.511 75.8962 308.965 76.128 309.651 75.4698L309.948 75.1851C310.633 74.5268 311.894 74.3273 312.749 74.7414L313.119 74.9204C313.975 75.3345 314.335 74.9732 313.921 74.1182L313.742 73.7483C313.328 72.8928 313.528 71.6323 314.186 70.9467L314.471 70.6501C315.129 69.9645 314.897 69.5094 313.956 69.6392L313.548 69.6953C312.607 69.8246 311.47 69.2452 311.021 68.4074L310.827 68.0453C310.378 67.2075 309.874 67.2873 309.706 68.2229L309.634 68.6275C309.466 69.5627 308.563 70.4656 307.628 70.6332L307.224 70.7052Z" fill="white"/>
<path d="M306.112 69.1053C306.746 69.5731 307.638 69.4387 308.106 68.8046C308.574 68.171 308.44 67.2781 307.806 66.8102L300.188 61.1865L305.811 68.8046C305.893 68.9149 305.996 69.0201 306.112 69.1053Z" fill="white"/>
<path d="M291.778 50.2936C292.713 50.126 292.793 49.6217 291.956 49.173L291.593 48.9789C290.756 48.5302 290.176 47.3927 290.306 46.4515L290.362 46.0443C290.491 45.1027 290.036 44.8708 289.351 45.5291L289.054 45.8138C288.369 46.472 287.108 46.6716 286.253 46.2575L285.883 46.0785C285.027 45.6644 284.666 46.0256 285.08 46.8807L285.259 47.2506C285.674 48.1061 285.474 49.3666 284.816 50.0522L284.531 50.3487C283.873 51.0343 284.105 51.4894 285.046 51.3596L285.453 51.3036C286.395 51.1742 287.532 51.7537 287.981 52.5914L288.175 52.9536C288.624 53.7913 289.128 53.7116 289.296 52.7759L289.368 52.3714C289.536 51.4361 290.439 50.5332 291.374 50.3656L291.778 50.2936Z" fill="white"/>
<path d="M292.891 51.8932C292.257 51.4254 291.364 51.5597 290.896 52.1934C290.428 52.8271 290.563 53.7199 291.196 54.1878L298.814 59.8115L293.191 52.1934C293.109 52.0836 293.006 51.9784 292.891 51.8932Z" fill="white"/>
</g>
<g filter="url(#filter4_d_79_8892)">
<path d="M255.477 104.903L252.228 93.5032C252.06 92.9146 252.671 92.4063 253.227 92.6722L263.993 97.8226C264.566 98.0964 264.523 98.9181 263.925 99.1299L259.497 100.699C259.336 100.756 259.201 100.868 259.117 101.015L256.789 105.063C256.474 105.61 255.65 105.509 255.477 104.903Z" fill="#E40023"/>
<path d="M254.994 105.037L255.477 104.903L254.994 105.037C255.288 106.069 256.69 106.24 257.225 105.31L259.553 101.262C259.579 101.218 259.619 101.184 259.667 101.167L264.095 99.5986C265.112 99.2382 265.185 97.8403 264.211 97.3744L253.445 92.224C252.499 91.7715 251.459 92.6363 251.745 93.6378L254.994 105.037Z" stroke="white"/>
</g>
<g filter="url(#filter5_d_79_8892)">
<path d="M60.8903 107.198L69.08 102.734C69.5029 102.503 69.9987 102.885 69.8906 103.357L67.7972 112.512C67.6859 112.999 67.0477 113.108 66.7818 112.686L64.8123 109.558C64.7408 109.444 64.6314 109.36 64.5039 109.32L60.9939 108.233C60.52 108.086 60.4549 107.436 60.8903 107.198Z" fill="#FF953B"/>
<path d="M68.8425 102.292L60.6529 106.756C59.8293 107.205 59.9524 108.435 60.8488 108.713L64.3588 109.8C64.3726 109.805 64.3845 109.814 64.3923 109.826L66.3618 112.954C66.8648 113.753 68.0718 113.547 68.2823 112.626L70.3757 103.471C70.5801 102.577 69.6423 101.856 68.8425 102.292Z" stroke="white"/>
</g>
<g filter="url(#filter6_ddiiii_79_8892)">
<path fill-rule="evenodd" clip-rule="evenodd" d="M258.62 165.85C257.216 163.041 253.808 161.893 250.998 163.285C253.815 161.89 254.965 158.471 253.567 155.649C254.971 158.457 258.379 159.606 261.189 158.213C258.372 159.609 257.222 163.028 258.62 165.85Z" fill="white"/>
</g>
<g filter="url(#filter7_ddiiii_79_8892)">
<path fill-rule="evenodd" clip-rule="evenodd" d="M303.93 134.787C303.071 133.069 300.987 132.366 299.267 133.218C300.99 132.364 301.694 130.273 300.839 128.546C301.698 130.264 303.783 130.967 305.502 130.115C303.779 130.969 303.075 133.061 303.93 134.787Z" fill="white"/>
</g>
<defs>
<filter id="filter0_ddiiii_79_8892" x="0.483509" y="119.597" width="72.0327" height="73.0327" filterUnits="userSpaceOnUse" color-interpolation-filters="sRGB">
<feFlood flood-opacity="0" result="BackgroundImageFix"/>
<feColorMatrix in="SourceAlpha" type="matrix" values="0 0 0 0 0 0 0 0 0 0 0 0 0 0 0 0 0 0 127 0" result="hardAlpha"/>
<feOffset dy="9.11299"/>
<feGaussianBlur stdDeviation="12.7582"/>
<feColorMatrix type="matrix" values="0 0 0 0 0.625 0 0 0 0 0.819999 0 0 0 0 1 0 0 0 0.16 0"/>
<feBlend mode="normal" in2="BackgroundImageFix" result="effect1_dropShadow_79_8892"/>
<feColorMatrix in="SourceAlpha" type="matrix" values="0 0 0 0 0 0 0 0 0 0 0 0 0 0 0 0 0 0 127 0" result="hardAlpha"/>
<feOffset dy="2.89553"/>
<feGaussianBlur stdDeviation="6.44913"/>
<feComposite in2="hardAlpha" operator="out"/>
<feColorMatrix type="matrix" values="0 0 0 0 1 0 0 0 0 1 0 0 0 0 1 0 0 0 0.56 0"/>
<feBlend mode="normal" in2="effect1_dropShadow_79_8892" result="effect2_dropShadow_79_8892"/>
<feBlend mode="normal" in="SourceGraphic" in2="effect2_dropShadow_79_8892" result="shape"/>
<feColorMatrix in="SourceAlpha" type="matrix" values="0 0 0 0 0 0 0 0 0 0 0 0 0 0 0 0 0 0 127 0" result="hardAlpha"/>
<feOffset dy="1.05292"/>
<feGaussianBlur stdDeviation="0.394845"/>
<feComposite in2="hardAlpha" operator="arithmetic" k2="-1" k3="1"/>
<feColorMatrix type="matrix" values="0 0 0 0 1 0 0 0 0 1 0 0 0 0 1 0 0 0 1 0"/>
<feBlend mode="normal" in2="shape" result="effect3_innerShadow_79_8892"/>
<feColorMatrix in="SourceAlpha" type="matrix" values="0 0 0 0 0 0 0 0 0 0 0 0 0 0 0 0 0 0 127 0" result="hardAlpha"/>
<feOffset dy="2.89553"/>
<feGaussianBlur stdDeviation="2.76391"/>
<feComposite in2="hardAlpha" operator="arithmetic" k2="-1" k3="1"/>
<feColorMatrix type="matrix" values="0 0 0 0 1 0 0 0 0 1 0 0 0 0 1 0 0 0 0.6 0"/>
<feBlend mode="normal" in2="effect3_innerShadow_79_8892" result="effect4_innerShadow_79_8892"/>
<feColorMatrix in="SourceAlpha" type="matrix" values="0 0 0 0 0 0 0 0 0 0 0 0 0 0 0 0 0 0 127 0" result="hardAlpha"/>
<feOffset dx="3.42199" dy="-3.42199"/>
<feGaussianBlur stdDeviation="2.23745"/>
<feComposite in2="hardAlpha" operator="arithmetic" k2="-1" k3="1"/>
<feColorMatrix type="matrix" values="0 0 0 0 1 0 0 0 0 1 0 0 0 0 1 0 0 0 0.25 0"/>
<feBlend mode="normal" in2="effect4_innerShadow_79_8892" result="effect5_innerShadow_79_8892"/>
<feColorMatrix in="SourceAlpha" type="matrix" values="0 0 0 0 0 0 0 0 0 0 0 0 0 0 0 0 0 0 127 0" result="hardAlpha"/>
<feOffset dy="-1.31615"/>
<feGaussianBlur stdDeviation="1.31615"/>
<feComposite in2="hardAlpha" operator="arithmetic" k2="-1" k3="1"/>
<feColorMatrix type="matrix" values="0 0 0 0 1 0 0 0 0 1 0 0 0 0 1 0 0 0 1 0"/>
<feBlend mode="normal" in2="effect5_innerShadow_79_8892" result="effect6_innerShadow_79_8892"/>
</filter>
<filter id="filter1_ddiiii_79_8892" x="222.518" y="27.6185" width="36.9647" height="36.9647" filterUnits="userSpaceOnUse" color-interpolation-filters="sRGB">
<feFlood flood-opacity="0" result="BackgroundImageFix"/>
<feColorMatrix in="SourceAlpha" type="matrix" values="0 0 0 0 0 0 0 0 0 0 0 0 0 0 0 0 0 0 127 0" result="hardAlpha"/>
<feOffset dy="4.10084"/>
<feGaussianBlur stdDeviation="5.74118"/>
<feColorMatrix type="matrix" values="0 0 0 0 0.149059 0 0 0 0 0.115801 0 0 0 0 0.525284 0 0 0 0.16 0"/>
<feBlend mode="normal" in2="BackgroundImageFix" result="effect1_dropShadow_79_8892"/>
<feColorMatrix in="SourceAlpha" type="matrix" values="0 0 0 0 0 0 0 0 0 0 0 0 0 0 0 0 0 0 127 0" result="hardAlpha"/>
<feOffset dy="1.30299"/>
<feGaussianBlur stdDeviation="2.90211"/>
<feComposite in2="hardAlpha" operator="out"/>
<feColorMatrix type="matrix" values="0 0 0 0 0.93668 0 0 0 0 0.570833 0 0 0 0 1 0 0 0 0.56 0"/>
<feBlend mode="normal" in2="effect1_dropShadow_79_8892" result="effect2_dropShadow_79_8892"/>
<feBlend mode="normal" in="SourceGraphic" in2="effect2_dropShadow_79_8892" result="shape"/>
<feColorMatrix in="SourceAlpha" type="matrix" values="0 0 0 0 0 0 0 0 0 0 0 0 0 0 0 0 0 0 127 0" result="hardAlpha"/>
<feOffset dy="0.473814"/>
<feGaussianBlur stdDeviation="0.17768"/>
<feComposite in2="hardAlpha" operator="arithmetic" k2="-1" k3="1"/>
<feColorMatrix type="matrix" values="0 0 0 0 1 0 0 0 0 1 0 0 0 0 1 0 0 0 1 0"/>
<feBlend mode="normal" in2="shape" result="effect3_innerShadow_79_8892"/>
<feColorMatrix in="SourceAlpha" type="matrix" values="0 0 0 0 0 0 0 0 0 0 0 0 0 0 0 0 0 0 127 0" result="hardAlpha"/>
<feOffset dy="1.30299"/>
<feGaussianBlur stdDeviation="1.24376"/>
<feComposite in2="hardAlpha" operator="arithmetic" k2="-1" k3="1"/>
<feColorMatrix type="matrix" values="0 0 0 0 1 0 0 0 0 1 0 0 0 0 1 0 0 0 0.6 0"/>
<feBlend mode="normal" in2="effect3_innerShadow_79_8892" result="effect4_innerShadow_79_8892"/>
<feColorMatrix in="SourceAlpha" type="matrix" values="0 0 0 0 0 0 0 0 0 0 0 0 0 0 0 0 0 0 127 0" result="hardAlpha"/>
<feOffset dx="1.53989" dy="-1.53989"/>
<feGaussianBlur stdDeviation="1.00685"/>
<feComposite in2="hardAlpha" operator="arithmetic" k2="-1" k3="1"/>
<feColorMatrix type="matrix" values="0 0 0 0 1 0 0 0 0 1 0 0 0 0 1 0 0 0 0.25 0"/>
<feBlend mode="normal" in2="effect4_innerShadow_79_8892" result="effect5_innerShadow_79_8892"/>
<feColorMatrix in="SourceAlpha" type="matrix" values="0 0 0 0 0 0 0 0 0 0 0 0 0 0 0 0 0 0 127 0" result="hardAlpha"/>
<feOffset dy="-0.592267"/>
<feGaussianBlur stdDeviation="0.592267"/>
<feComposite in2="hardAlpha" operator="arithmetic" k2="-1" k3="1"/>
<feColorMatrix type="matrix" values="0 0 0 0 1 0 0 0 0 1 0 0 0 0 1 0 0 0 1 0"/>
<feBlend mode="normal" in2="effect5_innerShadow_79_8892" result="effect6_innerShadow_79_8892"/>
</filter>
<filter id="filter2_ddiiii_79_8892" x="16.9836" y="10.5966" width="89.0329" height="89.0327" filterUnits="userSpaceOnUse" color-interpolation-filters="sRGB">
<feFlood flood-opacity="0" result="BackgroundImageFix"/>
<feColorMatrix in="SourceAlpha" type="matrix" values="0 0 0 0 0 0 0 0 0 0 0 0 0 0 0 0 0 0 127 0" result="hardAlpha"/>
<feOffset dy="9.11299"/>
<feGaussianBlur stdDeviation="12.7582"/>
<feColorMatrix type="matrix" values="0 0 0 0 0.625 0 0 0 0 0.819999 0 0 0 0 1 0 0 0 0.16 0"/>
<feBlend mode="normal" in2="BackgroundImageFix" result="effect1_dropShadow_79_8892"/>
<feColorMatrix in="SourceAlpha" type="matrix" values="0 0 0 0 0 0 0 0 0 0 0 0 0 0 0 0 0 0 127 0" result="hardAlpha"/>
<feOffset dy="2.89553"/>
<feGaussianBlur stdDeviation="6.44913"/>
<feComposite in2="hardAlpha" operator="out"/>
<feColorMatrix type="matrix" values="0 0 0 0 1 0 0 0 0 1 0 0 0 0 1 0 0 0 0.56 0"/>
<feBlend mode="normal" in2="effect1_dropShadow_79_8892" result="effect2_dropShadow_79_8892"/>
<feBlend mode="normal" in="SourceGraphic" in2="effect2_dropShadow_79_8892" result="shape"/>
<feColorMatrix in="SourceAlpha" type="matrix" values="0 0 0 0 0 0 0 0 0 0 0 0 0 0 0 0 0 0 127 0" result="hardAlpha"/>
<feOffset dy="1.05292"/>
<feGaussianBlur stdDeviation="0.394845"/>
<feComposite in2="hardAlpha" operator="arithmetic" k2="-1" k3="1"/>
<feColorMatrix type="matrix" values="0 0 0 0 1 0 0 0 0 1 0 0 0 0 1 0 0 0 1 0"/>
<feBlend mode="normal" in2="shape" result="effect3_innerShadow_79_8892"/>
<feColorMatrix in="SourceAlpha" type="matrix" values="0 0 0 0 0 0 0 0 0 0 0 0 0 0 0 0 0 0 127 0" result="hardAlpha"/>
<feOffset dy="2.89553"/>
<feGaussianBlur stdDeviation="2.76391"/>
<feComposite in2="hardAlpha" operator="arithmetic" k2="-1" k3="1"/>
<feColorMatrix type="matrix" values="0 0 0 0 1 0 0 0 0 1 0 0 0 0 1 0 0 0 0.6 0"/>
<feBlend mode="normal" in2="effect3_innerShadow_79_8892" result="effect4_innerShadow_79_8892"/>
<feColorMatrix in="SourceAlpha" type="matrix" values="0 0 0 0 0 0 0 0 0 0 0 0 0 0 0 0 0 0 127 0" result="hardAlpha"/>
<feOffset dx="3.42199" dy="-3.42199"/>
<feGaussianBlur stdDeviation="2.23745"/>
<feComposite in2="hardAlpha" operator="arithmetic" k2="-1" k3="1"/>
<feColorMatrix type="matrix" values="0 0 0 0 1 0 0 0 0 1 0 0 0 0 1 0 0 0 0.25 0"/>
<feBlend mode="normal" in2="effect4_innerShadow_79_8892" result="effect5_innerShadow_79_8892"/>
<feColorMatrix in="SourceAlpha" type="matrix" values="0 0 0 0 0 0 0 0 0 0 0 0 0 0 0 0 0 0 127 0" result="hardAlpha"/>
<feOffset dy="-1.31615"/>
<feGaussianBlur stdDeviation="1.31615"/>
<feComposite in2="hardAlpha" operator="arithmetic" k2="-1" k3="1"/>
<feColorMatrix type="matrix" values="0 0 0 0 1 0 0 0 0 1 0 0 0 0 1 0 0 0 1 0"/>
<feBlend mode="normal" in2="effect5_innerShadow_79_8892" result="effect6_innerShadow_79_8892"/>
</filter>
<filter id="filter3_ddiiii_79_8892" x="253.484" y="23.5966" width="92.0319" height="92.032" filterUnits="userSpaceOnUse" color-interpolation-filters="sRGB">
<feFlood flood-opacity="0" result="BackgroundImageFix"/>
<feColorMatrix in="SourceAlpha" type="matrix" values="0 0 0 0 0 0 0 0 0 0 0 0 0 0 0 0 0 0 127 0" result="hardAlpha"/>
<feOffset dy="9.11299"/>
<feGaussianBlur stdDeviation="12.7582"/>
<feColorMatrix type="matrix" values="0 0 0 0 0.625 0 0 0 0 0.819999 0 0 0 0 1 0 0 0 0.16 0"/>
<feBlend mode="normal" in2="BackgroundImageFix" result="effect1_dropShadow_79_8892"/>
<feColorMatrix in="SourceAlpha" type="matrix" values="0 0 0 0 0 0 0 0 0 0 0 0 0 0 0 0 0 0 127 0" result="hardAlpha"/>
<feOffset dy="2.89553"/>
<feGaussianBlur stdDeviation="6.44913"/>
<feComposite in2="hardAlpha" operator="out"/>
<feColorMatrix type="matrix" values="0 0 0 0 1 0 0 0 0 1 0 0 0 0 1 0 0 0 0.56 0"/>
<feBlend mode="normal" in2="effect1_dropShadow_79_8892" result="effect2_dropShadow_79_8892"/>
<feBlend mode="normal" in="SourceGraphic" in2="effect2_dropShadow_79_8892" result="shape"/>
<feColorMatrix in="SourceAlpha" type="matrix" values="0 0 0 0 0 0 0 0 0 0 0 0 0 0 0 0 0 0 127 0" result="hardAlpha"/>
<feOffset dy="1.05292"/>
<feGaussianBlur stdDeviation="0.394845"/>
<feComposite in2="hardAlpha" operator="arithmetic" k2="-1" k3="1"/>
<feColorMatrix type="matrix" values="0 0 0 0 1 0 0 0 0 1 0 0 0 0 1 0 0 0 1 0"/>
<feBlend mode="normal" in2="shape" result="effect3_innerShadow_79_8892"/>
<feColorMatrix in="SourceAlpha" type="matrix" values="0 0 0 0 0 0 0 0 0 0 0 0 0 0 0 0 0 0 127 0" result="hardAlpha"/>
<feOffset dy="2.89553"/>
<feGaussianBlur stdDeviation="2.76391"/>
<feComposite in2="hardAlpha" operator="arithmetic" k2="-1" k3="1"/>
<feColorMatrix type="matrix" values="0 0 0 0 1 0 0 0 0 1 0 0 0 0 1 0 0 0 0.6 0"/>
<feBlend mode="normal" in2="effect3_innerShadow_79_8892" result="effect4_innerShadow_79_8892"/>
<feColorMatrix in="SourceAlpha" type="matrix" values="0 0 0 0 0 0 0 0 0 0 0 0 0 0 0 0 0 0 127 0" result="hardAlpha"/>
<feOffset dx="3.42199" dy="-3.42199"/>
<feGaussianBlur stdDeviation="2.23745"/>
<feComposite in2="hardAlpha" operator="arithmetic" k2="-1" k3="1"/>
<feColorMatrix type="matrix" values="0 0 0 0 1 0 0 0 0 1 0 0 0 0 1 0 0 0 0.25 0"/>
<feBlend mode="normal" in2="effect4_innerShadow_79_8892" result="effect5_innerShadow_79_8892"/>
<feColorMatrix in="SourceAlpha" type="matrix" values="0 0 0 0 0 0 0 0 0 0 0 0 0 0 0 0 0 0 127 0" result="hardAlpha"/>
<feOffset dy="-1.31615"/>
<feGaussianBlur stdDeviation="1.31615"/>
<feComposite in2="hardAlpha" operator="arithmetic" k2="-1" k3="1"/>
<feColorMatrix type="matrix" values="0 0 0 0 1 0 0 0 0 1 0 0 0 0 1 0 0 0 1 0"/>
<feBlend mode="normal" in2="effect5_innerShadow_79_8892" result="effect6_innerShadow_79_8892"/>
</filter>
<filter id="filter4_d_79_8892" x="249.768" y="90.8887" width="17.0615" height="17.6661" filterUnits="userSpaceOnUse" color-interpolation-filters="sRGB">
<feFlood flood-opacity="0" result="BackgroundImageFix"/>
<feColorMatrix in="SourceAlpha" type="matrix" values="0 0 0 0 0 0 0 0 0 0 0 0 0 0 0 0 0 0 127 0" result="hardAlpha"/>
<feOffset dy="0.712849"/>
<feGaussianBlur stdDeviation="0.712849"/>
<feComposite in2="hardAlpha" operator="out"/>
<feColorMatrix type="matrix" values="0 0 0 0 0 0 0 0 0 0 0 0 0 0 0 0 0 0 0.08 0"/>
<feBlend mode="normal" in2="BackgroundImageFix" result="effect1_dropShadow_79_8892"/>
<feBlend mode="normal" in="SourceGraphic" in2="effect1_dropShadow_79_8892" result="shape"/>
</filter>
<filter id="filter5_d_79_8892" x="58.4806" y="101.097" width="13.5439" height="14.5391" filterUnits="userSpaceOnUse" color-interpolation-filters="sRGB">
<feFlood flood-opacity="0" result="BackgroundImageFix"/>
<feColorMatrix in="SourceAlpha" type="matrix" values="0 0 0 0 0 0 0 0 0 0 0 0 0 0 0 0 0 0 127 0" result="hardAlpha"/>
<feOffset dy="0.560933"/>
<feGaussianBlur stdDeviation="0.560933"/>
<feComposite in2="hardAlpha" operator="out"/>
<feColorMatrix type="matrix" values="0 0 0 0 0 0 0 0 0 0 0 0 0 0 0 0 0 0 0.08 0"/>
<feBlend mode="normal" in2="BackgroundImageFix" result="effect1_dropShadow_79_8892"/>
<feBlend mode="normal" in="SourceGraphic" in2="effect1_dropShadow_79_8892" result="shape"/>
</filter>
<filter id="filter6_ddiiii_79_8892" x="238.239" y="147.447" width="35.7081" height="35.7178" filterUnits="userSpaceOnUse" color-interpolation-filters="sRGB">
<feFlood flood-opacity="0" result="BackgroundImageFix"/>
<feColorMatrix in="SourceAlpha" type="matrix" values="0 0 0 0 0 0 0 0 0 0 0 0 0 0 0 0 0 0 127 0" result="hardAlpha"/>
<feOffset dy="4.55649"/>
<feGaussianBlur stdDeviation="6.37909"/>
<feColorMatrix type="matrix" values="0 0 0 0 0.149059 0 0 0 0 0.115801 0 0 0 0 0.525284 0 0 0 0.16 0"/>
<feBlend mode="normal" in2="BackgroundImageFix" result="effect1_dropShadow_79_8892"/>
<feColorMatrix in="SourceAlpha" type="matrix" values="0 0 0 0 0 0 0 0 0 0 0 0 0 0 0 0 0 0 127 0" result="hardAlpha"/>
<feOffset dy="1.44776"/>
<feGaussianBlur stdDeviation="3.22456"/>
<feComposite in2="hardAlpha" operator="out"/>
<feColorMatrix type="matrix" values="0 0 0 0 0.93668 0 0 0 0 0.570833 0 0 0 0 1 0 0 0 0.56 0"/>
<feBlend mode="normal" in2="effect1_dropShadow_79_8892" result="effect2_dropShadow_79_8892"/>
<feBlend mode="normal" in="SourceGraphic" in2="effect2_dropShadow_79_8892" result="shape"/>
<feColorMatrix in="SourceAlpha" type="matrix" values="0 0 0 0 0 0 0 0 0 0 0 0 0 0 0 0 0 0 127 0" result="hardAlpha"/>
<feOffset dy="0.52646"/>
<feGaussianBlur stdDeviation="0.197422"/>
<feComposite in2="hardAlpha" operator="arithmetic" k2="-1" k3="1"/>
<feColorMatrix type="matrix" values="0 0 0 0 1 0 0 0 0 1 0 0 0 0 1 0 0 0 1 0"/>
<feBlend mode="normal" in2="shape" result="effect3_innerShadow_79_8892"/>
<feColorMatrix in="SourceAlpha" type="matrix" values="0 0 0 0 0 0 0 0 0 0 0 0 0 0 0 0 0 0 127 0" result="hardAlpha"/>
<feOffset dy="1.44776"/>
<feGaussianBlur stdDeviation="1.38196"/>
<feComposite in2="hardAlpha" operator="arithmetic" k2="-1" k3="1"/>
<feColorMatrix type="matrix" values="0 0 0 0 1 0 0 0 0 1 0 0 0 0 1 0 0 0 0.6 0"/>
<feBlend mode="normal" in2="effect3_innerShadow_79_8892" result="effect4_innerShadow_79_8892"/>
<feColorMatrix in="SourceAlpha" type="matrix" values="0 0 0 0 0 0 0 0 0 0 0 0 0 0 0 0 0 0 127 0" result="hardAlpha"/>
<feOffset dx="1.71099" dy="-1.71099"/>
<feGaussianBlur stdDeviation="1.11873"/>
<feComposite in2="hardAlpha" operator="arithmetic" k2="-1" k3="1"/>
<feColorMatrix type="matrix" values="0 0 0 0 1 0 0 0 0 1 0 0 0 0 1 0 0 0 0.25 0"/>
<feBlend mode="normal" in2="effect4_innerShadow_79_8892" result="effect5_innerShadow_79_8892"/>
<feColorMatrix in="SourceAlpha" type="matrix" values="0 0 0 0 0 0 0 0 0 0 0 0 0 0 0 0 0 0 127 0" result="hardAlpha"/>
<feOffset dy="-0.658074"/>
<feGaussianBlur stdDeviation="0.658074"/>
<feComposite in2="hardAlpha" operator="arithmetic" k2="-1" k3="1"/>
<feColorMatrix type="matrix" values="0 0 0 0 1 0 0 0 0 1 0 0 0 0 1 0 0 0 1 0"/>
<feBlend mode="normal" in2="effect5_innerShadow_79_8892" result="effect6_innerShadow_79_8892"/>
</filter>
<filter id="filter7_ddiiii_79_8892" x="287.785" y="121.165" width="29.2" height="29.2059" filterUnits="userSpaceOnUse" color-interpolation-filters="sRGB">
<feFlood flood-opacity="0" result="BackgroundImageFix"/>
<feColorMatrix in="SourceAlpha" type="matrix" values="0 0 0 0 0 0 0 0 0 0 0 0 0 0 0 0 0 0 127 0" result="hardAlpha"/>
<feOffset dy="4.10084"/>
<feGaussianBlur stdDeviation="5.74118"/>
<feColorMatrix type="matrix" values="0 0 0 0 0.149059 0 0 0 0 0.115801 0 0 0 0 0.525284 0 0 0 0.16 0"/>
<feBlend mode="normal" in2="BackgroundImageFix" result="effect1_dropShadow_79_8892"/>
<feColorMatrix in="SourceAlpha" type="matrix" values="0 0 0 0 0 0 0 0 0 0 0 0 0 0 0 0 0 0 127 0" result="hardAlpha"/>
<feOffset dy="1.30299"/>
<feGaussianBlur stdDeviation="2.90211"/>
<feComposite in2="hardAlpha" operator="out"/>
<feColorMatrix type="matrix" values="0 0 0 0 0.93668 0 0 0 0 0.570833 0 0 0 0 1 0 0 0 0.56 0"/>
<feBlend mode="normal" in2="effect1_dropShadow_79_8892" result="effect2_dropShadow_79_8892"/>
<feBlend mode="normal" in="SourceGraphic" in2="effect2_dropShadow_79_8892" result="shape"/>
<feColorMatrix in="SourceAlpha" type="matrix" values="0 0 0 0 0 0 0 0 0 0 0 0 0 0 0 0 0 0 127 0" result="hardAlpha"/>
<feOffset dy="0.473814"/>
<feGaussianBlur stdDeviation="0.17768"/>
<feComposite in2="hardAlpha" operator="arithmetic" k2="-1" k3="1"/>
<feColorMatrix type="matrix" values="0 0 0 0 1 0 0 0 0 1 0 0 0 0 1 0 0 0 1 0"/>
<feBlend mode="normal" in2="shape" result="effect3_innerShadow_79_8892"/>
<feColorMatrix in="SourceAlpha" type="matrix" values="0 0 0 0 0 0 0 0 0 0 0 0 0 0 0 0 0 0 127 0" result="hardAlpha"/>
<feOffset dy="1.30299"/>
<feGaussianBlur stdDeviation="1.24376"/>
<feComposite in2="hardAlpha" operator="arithmetic" k2="-1" k3="1"/>
<feColorMatrix type="matrix" values="0 0 0 0 1 0 0 0 0 1 0 0 0 0 1 0 0 0 0.6 0"/>
<feBlend mode="normal" in2="effect3_innerShadow_79_8892" result="effect4_innerShadow_79_8892"/>
<feColorMatrix in="SourceAlpha" type="matrix" values="0 0 0 0 0 0 0 0 0 0 0 0 0 0 0 0 0 0 127 0" result="hardAlpha"/>
<feOffset dx="1.53989" dy="-1.53989"/>
<feGaussianBlur stdDeviation="1.00685"/>
<feComposite in2="hardAlpha" operator="arithmetic" k2="-1" k3="1"/>
<feColorMatrix type="matrix" values="0 0 0 0 1 0 0 0 0 1 0 0 0 0 1 0 0 0 0.25 0"/>
<feBlend mode="normal" in2="effect4_innerShadow_79_8892" result="effect5_innerShadow_79_8892"/>
<feColorMatrix in="SourceAlpha" type="matrix" values="0 0 0 0 0 0 0 0 0 0 0 0 0 0 0 0 0 0 127 0" result="hardAlpha"/>
<feOffset dy="-0.592267"/>
<feGaussianBlur stdDeviation="0.592267"/>
<feComposite in2="hardAlpha" operator="arithmetic" k2="-1" k3="1"/>
<feColorMatrix type="matrix" values="0 0 0 0 1 0 0 0 0 1 0 0 0 0 1 0 0 0 1 0"/>
<feBlend mode="normal" in2="effect5_innerShadow_79_8892" result="effect6_innerShadow_79_8892"/>
</filter>
</defs>
</svg>
