<svg width="225" height="168" viewBox="0 0 225 168" fill="none" xmlns="http://www.w3.org/2000/svg">
<rect width="224.303" height="167.746" rx="13.6216" fill="white"/>
<path d="M23.2676 24.0812H27.6265C29.2611 24.0812 30.4235 24.3839 31.1137 24.9893C31.8159 25.5947 32.1671 26.4422 32.1671 27.532C32.1671 28.7065 31.6282 29.5843 30.5506 30.1655V30.2018C31.8704 30.7588 32.5303 31.7335 32.5303 33.1259C32.5303 34.3246 32.1792 35.2388 31.4769 35.8684C30.7867 36.4859 29.6244 36.7947 27.9898 36.7947H23.2676V24.0812ZM25.4471 26.079V29.3482H27.5357C28.4196 29.3482 29.0311 29.2089 29.3701 28.9305C29.7091 28.652 29.8786 28.2464 29.8786 27.7136C29.8786 27.1808 29.7091 26.7752 29.3701 26.4967C29.0311 26.2182 28.4196 26.079 27.5357 26.079H25.4471ZM25.4471 31.1644V34.7968H27.8989C28.7828 34.7968 29.3943 34.6515 29.7333 34.3609C30.0724 34.0582 30.2419 33.5981 30.2419 32.9806C30.2419 32.3631 30.0724 31.9091 29.7333 31.6185C29.3943 31.3158 28.7828 31.1644 27.8989 31.1644H25.4471ZM42.6851 27.7136H44.7919V36.7947H42.6851V27.7136ZM34.2578 27.7136H36.3646V30.4379H37.8903C39.1979 30.4379 40.1605 30.7225 40.7781 31.2915C41.3956 31.8606 41.7043 32.6355 41.7043 33.6163C41.7043 34.5971 41.3895 35.372 40.7599 35.9411C40.1424 36.5101 39.1858 36.7947 37.8903 36.7947H34.2578V27.7136ZM36.3646 32.1815V35.0511H37.7995C38.4049 35.0511 38.8347 34.93 39.089 34.6879C39.3553 34.4457 39.4885 34.0885 39.4885 33.6163C39.4885 33.1562 39.3553 32.8051 39.089 32.5629C38.8226 32.3086 38.3928 32.1815 37.7995 32.1815H36.3646ZM50.8755 36.9763C49.5194 36.9763 48.4539 36.5525 47.679 35.7049C46.904 34.8574 46.5166 33.5315 46.5166 31.7274V30.9646C46.5166 30.2745 46.559 29.6206 46.6437 29.0031C46.7285 28.3735 46.8677 27.8044 47.0614 27.2959C47.2552 26.7752 47.5094 26.3212 47.8243 25.9337C48.1512 25.5341 48.5447 25.2072 49.0048 24.9529C49.4165 24.735 49.816 24.5897 50.2035 24.5171C50.6031 24.4444 51.0147 24.3899 51.4385 24.3536C51.8744 24.3173 52.3406 24.2749 52.837 24.2265C53.3335 24.178 53.8904 24.0691 54.5079 23.8995V25.7158C54.0478 25.8611 53.6059 25.9579 53.1821 26.0064C52.7704 26.0548 52.3709 26.0911 51.9834 26.1153C51.5959 26.1395 51.2266 26.1819 50.8755 26.2425C50.5365 26.2909 50.2156 26.3999 49.9129 26.5694C49.5254 26.7873 49.1864 27.084 48.8958 27.4593C48.6173 27.8226 48.4297 28.3311 48.3328 28.9849H48.3691C48.6839 28.5854 49.1017 28.2766 49.6223 28.0587C50.143 27.8286 50.712 27.7136 51.3296 27.7136C51.9107 27.7136 52.4375 27.8105 52.9097 28.0042C53.394 28.1979 53.8057 28.4825 54.1447 28.8578C54.4958 29.2332 54.7622 29.6993 54.9438 30.2563C55.1376 30.8012 55.2344 31.4308 55.2344 32.1452V32.5447C55.2344 33.9372 54.847 35.0269 54.072 35.8139C53.2971 36.5888 52.2316 36.9763 50.8755 36.9763ZM50.8755 35.0511C51.5414 35.0511 52.0621 34.8453 52.4375 34.4336C52.8249 34.0219 53.0186 33.3923 53.0186 32.5447V32.1452C53.0186 31.3097 52.8249 30.6861 52.4375 30.2745C52.05 29.8507 51.5293 29.6388 50.8755 29.6388C50.2217 29.6388 49.701 29.8507 49.3136 30.2745C48.9261 30.6861 48.7324 31.3097 48.7324 32.1452V32.5447C48.7324 33.3802 48.9261 34.0098 49.3136 34.4336C49.701 34.8453 50.2217 35.0511 50.8755 35.0511ZM60.6774 36.9763C59.3092 36.9763 58.2376 36.5888 57.4627 35.8139C56.6999 35.0269 56.3185 33.9069 56.3185 32.4539V32.0544C56.3185 31.34 56.4153 30.7043 56.6091 30.1473C56.8149 29.5782 57.0994 29.1 57.4627 28.7125C57.838 28.3251 58.286 28.0345 58.8067 27.8407C59.3394 27.6349 59.9327 27.532 60.5866 27.532C61.9064 27.532 62.9477 27.9255 63.7105 28.7125C64.4733 29.4995 64.8547 30.6438 64.8547 32.1452V32.908H58.4434C58.504 33.7071 58.7038 34.2883 59.0428 34.6515C59.3818 35.0148 59.8964 35.1964 60.5866 35.1964C61.6763 35.1964 62.3423 34.8211 62.5844 34.0704H64.7639C64.558 35.0148 64.0979 35.7352 63.3836 36.2317C62.6813 36.7281 61.7792 36.9763 60.6774 36.9763ZM60.5866 29.3119C59.9449 29.3119 59.4545 29.4753 59.1154 29.8022C58.7764 30.1171 58.5585 30.6317 58.4616 31.346H62.7116C62.6268 30.6317 62.4149 30.1171 62.0759 29.8022C61.7369 29.4753 61.2404 29.3119 60.5866 29.3119ZM66.49 27.7136H68.1246L68.3062 28.8033H68.3425C69.0811 27.9558 70.0498 27.532 71.2485 27.532C71.8176 27.532 72.3322 27.6288 72.7923 27.8226C73.2645 28.0042 73.6641 28.2827 73.991 28.658C74.3179 29.0334 74.5722 29.5056 74.7538 30.0747C74.9354 30.6317 75.0262 31.2915 75.0262 32.0544V32.4539C75.0262 33.9553 74.6751 35.0874 73.9728 35.8502C73.2826 36.6009 72.3745 36.9763 71.2485 36.9763C70.7278 36.9763 70.2314 36.8794 69.7592 36.6857C69.2991 36.492 68.9237 36.2256 68.6331 35.8866H68.5968V40.4271H66.49V27.7136ZM70.7036 35.0511C71.3575 35.0511 71.8721 34.8453 72.2474 34.4336C72.6228 34.0219 72.8104 33.362 72.8104 32.4539V32.0544C72.8104 31.1705 72.6167 30.5166 72.2292 30.0928C71.8539 29.6691 71.3453 29.4572 70.7036 29.4572C70.0498 29.4572 69.5352 29.6691 69.1598 30.0928C68.7845 30.5045 68.5968 31.1644 68.5968 32.0725V32.4721C68.5968 33.3439 68.7845 33.9917 69.1598 34.4154C69.5473 34.8392 70.0619 35.0511 70.7036 35.0511ZM76.6665 27.7136H78.7733V34.0704H78.8096L82.1151 27.7136H84.8395V36.7947H82.7326V30.4379H82.6963L79.3908 36.7947H76.6665V27.7136ZM88.7821 29.6388H86.0214V27.7136H93.6495V29.6388H90.8889V36.7947H88.7821V29.6388ZM98.2972 36.9763C96.929 36.9763 95.8574 36.5888 95.0825 35.8139C94.3197 35.0269 93.9383 33.9069 93.9383 32.4539V32.0544C93.9383 31.34 94.0351 30.7043 94.2289 30.1473C94.4347 29.5782 94.7192 29.1 95.0825 28.7125C95.4578 28.3251 95.9058 28.0345 96.4265 27.8407C96.9592 27.6349 97.5525 27.532 98.2064 27.532C99.5262 27.532 100.567 27.9255 101.33 28.7125C102.093 29.4995 102.474 30.6438 102.474 32.1452V32.908H96.0632C96.1238 33.7071 96.3236 34.2883 96.6626 34.6515C97.0016 35.0148 97.5162 35.1964 98.2064 35.1964C99.2961 35.1964 99.9621 34.8211 100.204 34.0704H102.384C102.178 35.0148 101.718 35.7352 101.003 36.2317C100.301 36.7281 99.399 36.9763 98.2972 36.9763ZM98.2064 29.3119C97.5647 29.3119 97.0743 29.4753 96.7352 29.8022C96.3962 30.1171 96.1783 30.6317 96.0814 31.346H100.331C100.247 30.6317 100.035 30.1171 99.6957 29.8022C99.3567 29.4753 98.8602 29.3119 98.2064 29.3119ZM108.469 27.7136H112.101C112.755 27.7136 113.312 27.7741 113.772 27.8952C114.232 28.0163 114.608 28.1919 114.898 28.4219C115.189 28.6399 115.401 28.9062 115.534 29.2211C115.667 29.5359 115.734 29.887 115.734 30.2745C115.734 30.6498 115.637 30.9949 115.443 31.3097C115.249 31.6124 114.977 31.8606 114.626 32.0544V32.0907C115.086 32.2723 115.443 32.5447 115.697 32.908C115.964 33.2712 116.097 33.6829 116.097 34.143C116.097 34.9664 115.818 35.6141 115.261 36.0864C114.717 36.5586 113.784 36.7947 112.464 36.7947H108.469V27.7136ZM113.518 30.4016C113.518 30.111 113.409 29.887 113.191 29.7296C112.985 29.5722 112.592 29.4935 112.01 29.4935H110.576V31.3824H112.01C112.592 31.3824 112.985 31.2915 113.191 31.1099C113.409 30.9283 113.518 30.6922 113.518 30.4016ZM113.881 33.9795C113.881 33.6647 113.766 33.4165 113.536 33.2349C113.318 33.0412 112.931 32.9443 112.374 32.9443H110.576V35.0148H112.374C112.931 35.0148 113.318 34.924 113.536 34.7424C113.766 34.5486 113.881 34.2944 113.881 33.9795ZM121.537 36.9763C120.169 36.9763 119.097 36.5888 118.322 35.8139C117.559 35.0269 117.178 33.9069 117.178 32.4539V32.0544C117.178 31.34 117.275 30.7043 117.469 30.1473C117.674 29.5904 117.965 29.1181 118.34 28.7307C118.728 28.3432 119.188 28.0466 119.721 27.8407C120.254 27.6349 120.859 27.532 121.537 27.532C122.905 27.532 123.971 27.9255 124.734 28.7125C125.508 29.4874 125.896 30.6014 125.896 32.0544V32.4539C125.896 33.1683 125.793 33.804 125.587 34.3609C125.393 34.9179 125.103 35.3901 124.715 35.7776C124.34 36.1651 123.88 36.4617 123.335 36.6675C122.802 36.8734 122.203 36.9763 121.537 36.9763ZM121.537 35.0511C122.203 35.0511 122.724 34.8453 123.099 34.4336C123.486 34.0098 123.68 33.3499 123.68 32.4539V32.0544C123.68 31.1826 123.486 30.5348 123.099 30.111C122.711 29.6751 122.191 29.4572 121.537 29.4572C120.871 29.4572 120.344 29.6691 119.957 30.0928C119.582 30.5045 119.394 31.1584 119.394 32.0544V32.4539C119.394 33.3257 119.588 33.9795 119.975 34.4154C120.362 34.8392 120.883 35.0511 121.537 35.0511ZM130.705 36.9763C129.373 36.9763 128.393 36.6978 127.763 36.1408C127.146 35.5839 126.794 34.7726 126.71 33.7071H128.925C129.022 34.2278 129.204 34.6152 129.47 34.8695C129.737 35.1117 130.148 35.2327 130.705 35.2327C131.286 35.2327 131.698 35.1359 131.94 34.9421C132.182 34.7363 132.304 34.4639 132.304 34.1248C132.304 33.7979 132.182 33.5376 131.94 33.3439C131.698 33.138 131.286 33.0351 130.705 33.0351H129.706V31.2915H130.705C131.165 31.2915 131.498 31.2007 131.704 31.0191C131.922 30.8375 132.031 30.5953 132.031 30.2926C132.031 29.9778 131.922 29.7296 131.704 29.548C131.498 29.3664 131.165 29.2755 130.705 29.2755C130.257 29.2755 129.918 29.3845 129.688 29.6025C129.458 29.8204 129.295 30.1594 129.198 30.6195H126.982C127.079 29.6267 127.418 28.8639 127.999 28.3311C128.58 27.7984 129.482 27.532 130.705 27.532C131.928 27.532 132.824 27.7862 133.393 28.2948C133.962 28.7912 134.247 29.439 134.247 30.2381C134.247 31.0615 133.866 31.679 133.103 32.0907V32.127C133.563 32.3328 133.914 32.6113 134.156 32.9625C134.398 33.3015 134.519 33.7011 134.519 34.1612C134.519 34.9966 134.217 35.6747 133.611 36.1953C133.018 36.716 132.049 36.9763 130.705 36.9763ZM136.16 27.7136H137.795L137.977 28.8033H138.013C138.751 27.9558 139.72 27.532 140.919 27.532C141.488 27.532 142.003 27.6288 142.463 27.8226C142.935 28.0042 143.334 28.2827 143.661 28.658C143.988 29.0334 144.243 29.5056 144.424 30.0747C144.606 30.6317 144.697 31.2915 144.697 32.0544V32.4539C144.697 33.9553 144.345 35.0874 143.643 35.8502C142.953 36.6009 142.045 36.9763 140.919 36.9763C140.398 36.9763 139.902 36.8794 139.43 36.6857C138.969 36.492 138.594 36.2256 138.303 35.8866H138.267V40.4271H136.16V27.7136ZM140.374 35.0511C141.028 35.0511 141.542 34.8453 141.918 34.4336C142.293 34.0219 142.481 33.362 142.481 32.4539V32.0544C142.481 31.1705 142.287 30.5166 141.9 30.0928C141.524 29.6691 141.016 29.4572 140.374 29.4572C139.72 29.4572 139.206 29.6691 138.83 30.0928C138.455 30.5045 138.267 31.1644 138.267 32.0725V32.4721C138.267 33.3439 138.455 33.9917 138.83 34.4154C139.218 34.8392 139.732 35.0511 140.374 35.0511ZM148.88 36.9763C147.802 36.9763 147.003 36.7341 146.482 36.2498C145.961 35.7655 145.701 35.0935 145.701 34.2338C145.701 33.7858 145.774 33.3802 145.919 33.0169C146.064 32.6537 146.3 32.3449 146.627 32.0907C146.954 31.8364 147.378 31.6427 147.899 31.5095C148.419 31.3642 149.049 31.2915 149.788 31.2915H151.586V30.8012C151.586 30.3289 151.446 29.9657 151.168 29.7114C150.889 29.4451 150.46 29.3119 149.878 29.3119C149.297 29.3119 148.88 29.4208 148.625 29.6388C148.371 29.8446 148.22 30.111 148.171 30.4379H146.064C146.089 30.0262 146.185 29.6448 146.355 29.2937C146.524 28.9305 146.767 28.6217 147.081 28.3674C147.396 28.1011 147.784 27.8952 148.244 27.7499C148.716 27.6046 149.261 27.532 149.878 27.532C151.174 27.532 152.131 27.8286 152.748 28.4219C153.378 29.0152 153.692 29.8688 153.692 30.9828V36.7947H152.058L151.858 35.6141H151.822C151.471 36.05 151.041 36.3891 150.532 36.6312C150.024 36.8613 149.473 36.9763 148.88 36.9763ZM149.243 35.1964C149.582 35.1964 149.891 35.1419 150.169 35.0329C150.46 34.924 150.708 34.7787 150.914 34.5971C151.12 34.4033 151.283 34.1793 151.404 33.9251C151.525 33.6587 151.586 33.3741 151.586 33.0714V32.8535H149.878C149.152 32.8535 148.643 32.9746 148.353 33.2167C148.062 33.4468 147.917 33.7616 147.917 34.1612C147.917 34.4639 148.02 34.7121 148.226 34.9058C148.444 35.0995 148.783 35.1964 149.243 35.1964ZM159.419 36.9763C158.123 36.9763 157.1 36.5888 156.349 35.8139C155.611 35.0269 155.241 33.8766 155.241 32.3631V31.9635C155.241 31.2613 155.338 30.6377 155.532 30.0928C155.726 29.548 156.004 29.0879 156.367 28.7125C156.731 28.3251 157.166 28.0345 157.675 27.8407C158.196 27.6349 158.777 27.532 159.419 27.532C160.012 27.532 160.539 27.6107 160.999 27.7681C161.471 27.9255 161.87 28.1434 162.197 28.4219C162.536 28.7004 162.803 29.0273 162.996 29.4027C163.202 29.778 163.342 30.1837 163.414 30.6195H161.198C161.065 30.2684 160.865 29.9899 160.599 29.7841C160.345 29.5661 159.982 29.4572 159.509 29.4572C158.928 29.4572 158.438 29.6509 158.038 30.0384C157.651 30.4258 157.457 31.0675 157.457 31.9635V32.3631C157.457 32.8595 157.505 33.2773 157.602 33.6163C157.711 33.9553 157.857 34.2338 158.038 34.4518C158.232 34.6576 158.45 34.8089 158.692 34.9058C158.946 35.0027 159.219 35.0511 159.509 35.0511C159.982 35.0511 160.345 34.9361 160.599 34.706C160.865 34.476 161.065 34.143 161.198 33.7071H163.414C163.342 34.1914 163.202 34.6334 162.996 35.0329C162.803 35.4325 162.536 35.7776 162.197 36.0682C161.87 36.3588 161.471 36.5828 160.999 36.7402C160.539 36.8976 160.012 36.9763 159.419 36.9763ZM166.536 29.6388H163.775V27.7136H171.403V29.6388H168.643V36.7947H166.536V29.6388Z" fill="#3D4250"/>
<rect x="21.7946" y="53.3245" width="132.511" height="28.672" rx="6.83435" fill="white"/>
<path d="M40.8214 72.089C40.3913 72.089 40.0122 72.0343 39.6842 71.9249C39.3634 71.8156 39.09 71.6661 38.8641 71.4766C38.6454 71.2798 38.4777 71.0465 38.361 70.7768C38.2517 70.507 38.197 70.2118 38.197 69.891C38.197 69.4463 38.31 69.0673 38.536 68.7538C38.7693 68.4403 39.0755 68.1925 39.4545 68.0102C39.1338 67.8425 38.8786 67.6202 38.6891 67.3432C38.5068 67.0662 38.4157 66.7272 38.4157 66.3262C38.4157 66.0346 38.474 65.7649 38.5907 65.517C38.7073 65.2619 38.8677 65.0432 39.0718 64.8609C39.2832 64.6714 39.5347 64.5256 39.8263 64.4235C40.1252 64.3142 40.4569 64.2595 40.8214 64.2595C41.1932 64.2595 41.5249 64.3106 41.8165 64.4126C42.1154 64.5147 42.3669 64.6568 42.571 64.8391C42.7824 65.0213 42.9428 65.24 43.0521 65.4952C43.1688 65.7503 43.2271 66.0273 43.2271 66.3262C43.2271 66.7199 43.1287 67.0552 42.9319 67.3322C42.7423 67.6093 42.4872 67.8316 42.1664 67.9993C42.5528 68.1815 42.8626 68.433 43.0959 68.7538C43.3292 69.0673 43.4458 69.4463 43.4458 69.891C43.4458 70.2045 43.3875 70.4961 43.2708 70.7658C43.1542 71.0283 42.9829 71.2579 42.7569 71.4547C42.5382 71.6516 42.2648 71.8083 41.9368 71.9249C41.6087 72.0343 41.2369 72.089 40.8214 72.089ZM40.8214 67.5947C40.9818 67.5728 41.1422 67.5364 41.3026 67.4853C41.4629 67.427 41.6051 67.3505 41.729 67.2557C41.8602 67.1536 41.9623 67.0297 42.0352 66.8839C42.1154 66.7308 42.1555 66.5486 42.1555 66.3372C42.1555 66.1987 42.1263 66.0638 42.068 65.9326C42.0097 65.8014 41.9222 65.6847 41.8056 65.5827C41.6962 65.4806 41.5577 65.4004 41.39 65.3421C41.2224 65.2765 41.0328 65.2437 40.8214 65.2437C40.61 65.2437 40.4205 65.2765 40.2528 65.3421C40.0851 65.4004 39.943 65.4806 39.8263 65.5827C39.717 65.6847 39.6331 65.8014 39.5748 65.9326C39.5165 66.0638 39.4873 66.1987 39.4873 66.3372C39.4873 66.5413 39.5274 66.7162 39.6076 66.862C39.6951 67.0078 39.8008 67.1318 39.9247 67.2338C40.056 67.3359 40.1981 67.4161 40.3512 67.4744C40.5116 67.5327 40.6683 67.5728 40.8214 67.5947ZM40.8214 71.1048C41.0693 71.1048 41.288 71.072 41.4775 71.0064C41.6743 70.9408 41.8384 70.8533 41.9696 70.744C42.1008 70.6273 42.1992 70.4961 42.2648 70.3503C42.3377 70.1972 42.3742 70.0405 42.3742 69.8801C42.3742 69.6614 42.3304 69.4682 42.243 69.3005C42.1555 69.1329 42.0388 68.9907 41.893 68.8741C41.7545 68.7501 41.5905 68.6517 41.401 68.5788C41.2187 68.5059 41.0255 68.4585 40.8214 68.4367C40.61 68.4585 40.4095 68.5059 40.22 68.5788C40.0305 68.6444 39.8628 68.7392 39.717 68.8631C39.5785 68.9798 39.4691 69.1219 39.3889 69.2896C39.3087 69.4573 39.2686 69.6541 39.2686 69.8801C39.2686 70.0478 39.3015 70.2045 39.3671 70.3503C39.44 70.4961 39.542 70.6273 39.6732 70.744C39.8045 70.8533 39.9648 70.9408 40.1544 71.0064C40.3512 71.072 40.5736 71.1048 40.8214 71.1048Z" fill="#313131"/>
<path d="M44.4829 68.7101H48.3102V69.6067H44.4829V68.7101Z" fill="#313131"/>
<path d="M51.8662 72.089C51.56 72.089 51.283 72.0452 51.0351 71.9577C50.7872 71.8703 50.5685 71.7463 50.379 71.5859C50.1895 71.4256 50.0327 71.236 49.9088 71.0173C49.7849 70.7986 49.6901 70.5617 49.6245 70.3066H50.7071C50.7872 70.5253 50.9185 70.7148 51.1007 70.8752C51.283 71.0283 51.5381 71.1048 51.8662 71.1048C52.0994 71.1048 52.3145 71.0684 52.5113 70.9955C52.7081 70.9153 52.8758 70.7841 53.0143 70.6018C53.1601 70.4123 53.2731 70.1644 53.3533 69.8582C53.4408 69.552 53.4955 69.1693 53.5173 68.7101C53.3205 68.9506 53.0799 69.1365 52.7956 69.2677C52.5186 69.399 52.2088 69.4646 51.8662 69.4646C51.0934 69.4646 50.4884 69.2459 50.051 68.8085C49.6208 68.3711 49.4058 67.7551 49.4058 66.9605V66.7636C49.4058 66.3845 49.4678 66.0419 49.5917 65.7357C49.7229 65.4223 49.9015 65.1562 50.1275 64.9375C50.3535 64.7188 50.6196 64.5511 50.9258 64.4345C51.2319 64.3178 51.5636 64.2595 51.9208 64.2595C52.3145 64.2595 52.6717 64.3215 52.9925 64.4454C53.3132 64.5693 53.5866 64.7625 53.8126 65.025C54.0459 65.2874 54.2245 65.6264 54.3484 66.0419C54.4796 66.4502 54.5452 66.9459 54.5452 67.5291V68.1633C54.5452 68.8777 54.4796 69.4864 54.3484 69.9894C54.2172 70.4852 54.0349 70.8898 53.8016 71.2032C53.5684 71.5094 53.2877 71.7354 52.9597 71.8812C52.6316 72.0197 52.2671 72.089 51.8662 72.089ZM50.4774 66.9605C50.4774 67.4416 50.6086 67.817 50.8711 68.0868C51.1335 68.3492 51.4871 68.4804 51.9318 68.4804C52.4129 68.4804 52.7883 68.3492 53.0581 68.0868C53.3351 67.8243 53.4736 67.4671 53.4736 67.0151V66.8183C53.4736 66.3007 53.3278 65.9107 53.0362 65.6483C52.7446 65.3785 52.3728 65.2437 51.9208 65.2437C51.4761 65.2437 51.1226 65.3785 50.8601 65.6483C50.605 65.918 50.4774 66.2898 50.4774 66.7636V66.9605Z" fill="#313131"/>
<path d="M57.9321 71.1923H58.0961C58.3075 71.1923 58.4715 71.123 58.5882 70.9845C58.7121 70.846 58.7996 70.6492 58.8506 70.394C58.9089 70.1316 58.9417 69.8181 58.949 69.4536C58.9636 69.0891 58.9709 68.6809 58.9709 68.2289V66.534H62.9075V72.0015H61.9233V67.4307H59.955V68.2289C59.955 68.7319 59.9441 69.2167 59.9222 69.6833C59.9004 70.1498 59.8311 70.5617 59.7145 70.9189C59.5978 71.2761 59.4119 71.5604 59.1568 71.7718C58.9089 71.9833 58.5554 72.089 58.0961 72.089H57.9321V71.1923Z" fill="#313131"/>
<path d="M66.6245 72.089C66.2382 72.089 65.8882 72.0306 65.5748 71.914C65.2686 71.7901 65.0061 71.6151 64.7874 71.3891C64.5687 71.1558 64.4011 70.8752 64.2844 70.5471C64.1678 70.2191 64.1095 69.8436 64.1095 69.4208V69.1146C64.1095 68.6918 64.1678 68.3164 64.2844 67.9883C64.4011 67.653 64.5651 67.3723 64.7765 67.1464C64.9952 66.9204 65.254 66.749 65.5529 66.6324C65.8591 66.5085 66.1981 66.4465 66.5698 66.4465C66.9416 66.4465 67.277 66.5085 67.5759 66.6324C67.882 66.749 68.1408 66.924 68.3522 67.1573C68.5709 67.3906 68.7386 67.6749 68.8553 68.0102C68.9719 68.3456 69.0302 68.7319 69.0302 69.1693V69.563H65.1374C65.1519 70.0806 65.2832 70.4815 65.531 70.7658C65.7862 71.0501 66.1324 71.1923 66.5698 71.1923C66.9198 71.1923 67.2077 71.1267 67.4337 70.9955C67.6597 70.8642 67.831 70.6528 67.9476 70.3612H68.9755C68.8443 70.9299 68.5746 71.36 68.1663 71.6516C67.7654 71.9432 67.2515 72.089 66.6245 72.089ZM66.5698 67.3432C66.1543 67.3432 65.8263 67.4635 65.5857 67.704C65.3451 67.9446 65.1993 68.2945 65.1483 68.7538H68.0023C67.9148 67.8134 67.4374 67.3432 66.5698 67.3432Z" fill="#313131"/>
<path d="M71.1134 67.4307H69.3638V66.534H73.8472V67.4307H72.0976V72.0015H71.1134V67.4307Z" fill="#313131"/>
<rect x="21.7947" y="81.9966" width="179.805" height="34.5081" rx="8.00901" fill="#CCE2FF" fill-opacity="0.62"/>
<path d="M42.9733 96.3122L41.0164 97.6392V96.272L42.9733 94.9183H44.2332V104.301H42.9733V96.3122Z" fill="#0064E3"/>
<path d="M49.3883 104.408C48.8969 104.408 48.4501 104.328 48.048 104.167C47.6548 104.006 47.3197 103.751 47.0427 103.403C46.7657 103.045 46.5512 102.59 46.3993 102.036C46.2474 101.473 46.1715 100.793 46.1715 99.9982V99.2208C46.1715 98.4345 46.2474 97.7643 46.3993 97.2103C46.5512 96.6473 46.7657 96.1916 47.0427 95.8431C47.3286 95.4857 47.6682 95.2265 48.0614 95.0657C48.4635 94.8959 48.9058 94.811 49.3883 94.811C49.8798 94.811 50.3221 94.8915 50.7153 95.0523C51.1174 95.2131 51.4569 95.4723 51.7339 95.8297C52.0109 96.1782 52.2254 96.6339 52.3773 97.1969C52.5292 97.7509 52.6052 98.4255 52.6052 99.2208V99.9982C52.6052 100.785 52.5292 101.459 52.3773 102.022C52.2254 102.576 52.0065 103.032 51.7205 103.389C51.4435 103.738 51.104 103.997 50.7019 104.167C50.3087 104.328 49.8708 104.408 49.3883 104.408ZM49.3883 103.202C49.6832 103.202 49.9468 103.152 50.1791 103.054C50.4204 102.947 50.6214 102.773 50.7823 102.531C50.9431 102.281 51.0682 101.951 51.1576 101.54C51.2469 101.129 51.2916 100.615 51.2916 99.9982V99.2208C51.2916 98.6042 51.2469 98.0949 51.1576 97.6928C51.0682 97.2818 50.9387 96.9511 50.7689 96.7009C50.608 96.4507 50.407 96.2765 50.1657 96.1782C49.9334 96.071 49.6743 96.0174 49.3883 96.0174C49.0934 96.0174 48.8254 96.071 48.5841 96.1782C48.3518 96.2765 48.1552 96.4507 47.9944 96.7009C47.8335 96.9422 47.7084 97.2683 47.6191 97.6794C47.5297 98.0904 47.485 98.6042 47.485 99.2208V99.9982C47.485 100.615 47.5297 101.129 47.6191 101.54C47.7084 101.942 47.8335 102.268 47.9944 102.518C48.1641 102.768 48.3652 102.947 48.5975 103.054C48.8388 103.152 49.1024 103.202 49.3883 103.202Z" fill="#0064E3"/>
<path d="M54.0173 100.266H58.7085V101.365H54.0173V100.266Z" fill="#0064E3"/>
<path d="M61.4722 96.3122L59.5153 97.6392V96.272L61.4722 94.9183H62.7322V104.301H61.4722V96.3122Z" fill="#0064E3"/>
<path d="M64.3353 103.148L67.5388 100.052C68.1107 99.4889 68.5262 99.0287 68.7853 98.6712C69.0534 98.3049 69.1874 97.9519 69.1874 97.6124C69.1874 97.1388 69.0266 96.7545 68.7049 96.4597C68.3832 96.1648 67.9543 96.0174 67.4182 96.0174C66.882 96.0174 66.4531 96.1693 66.1314 96.4731C65.8097 96.7679 65.6489 97.1656 65.6489 97.666H64.3353C64.3353 97.246 64.4068 96.8618 64.5498 96.5133C64.7017 96.1648 64.9117 95.8654 65.1798 95.6152C65.4478 95.3561 65.7695 95.1595 66.1448 95.0255C66.5291 94.8825 66.9535 94.811 67.4182 94.811C67.8828 94.811 68.3028 94.8825 68.6781 95.0255C69.0623 95.1595 69.3885 95.3516 69.6565 95.6018C69.9246 95.852 70.1301 96.1514 70.2731 96.4999C70.425 96.8394 70.501 97.2103 70.501 97.6124C70.501 98.1128 70.3267 98.6176 69.9782 99.127C69.6297 99.6363 69.1249 100.199 68.4636 100.816L65.9974 103.148H70.501V104.301H64.3353V103.148Z" fill="#0064E3"/>
<path d="M74.4524 103.309H74.6534C74.9126 103.309 75.1136 103.224 75.2566 103.054C75.4085 102.884 75.5157 102.643 75.5783 102.33C75.6498 102.009 75.69 101.624 75.6989 101.178C75.7168 100.731 75.7257 100.231 75.7257 99.6765V97.599H80.551V104.301H79.3447V98.6981H76.932V99.6765C76.932 100.293 76.9186 100.887 76.8918 101.459C76.865 102.031 76.7801 102.536 76.6372 102.974C76.4942 103.412 76.2663 103.76 75.9536 104.019C75.6498 104.278 75.2164 104.408 74.6534 104.408H74.4524V103.309Z" fill="#0064E3"/>
<path d="M85.1071 104.408C84.6335 104.408 84.2046 104.336 83.8204 104.194C83.4451 104.042 83.1234 103.827 82.8553 103.55C82.5873 103.264 82.3818 102.92 82.2388 102.518C82.0958 102.116 82.0243 101.656 82.0243 101.137V100.762C82.0243 100.244 82.0958 99.7837 82.2388 99.3816C82.3818 98.9706 82.5828 98.6266 82.8419 98.3496C83.11 98.0726 83.4272 97.8626 83.7936 97.7196C84.1689 97.5677 84.5844 97.4917 85.0401 97.4917C85.4958 97.4917 85.9069 97.5677 86.2732 97.7196C86.6485 97.8626 86.9658 98.077 87.2249 98.363C87.493 98.6489 87.6985 98.9974 87.8415 99.4084C87.9844 99.8195 88.0559 100.293 88.0559 100.829V101.312H83.2843C83.3021 101.946 83.463 102.438 83.7668 102.786C84.0795 103.135 84.504 103.309 85.0401 103.309C85.469 103.309 85.822 103.228 86.099 103.068C86.376 102.907 86.586 102.648 86.729 102.29H87.9889C87.8281 102.987 87.4974 103.514 86.997 103.872C86.5056 104.229 85.8756 104.408 85.1071 104.408ZM85.0401 98.5908C84.5308 98.5908 84.1287 98.7383 83.8338 99.0331C83.5389 99.328 83.3602 99.7569 83.2977 100.32H86.796C86.6888 99.1672 86.1035 98.5908 85.0401 98.5908Z" fill="#0064E3"/>
<path d="M90.6094 98.6981H88.4648V97.599H93.9603V98.6981H91.8157V104.301H90.6094V98.6981Z" fill="#0064E3"/>
<rect x="21.7947" y="116.505" width="132.511" height="29.4469" rx="6.83435" fill="white"/>
<path d="M39.7935 128.664L38.197 129.747V128.632L39.7935 127.527H40.8214V135.182H39.7935V128.664Z" fill="#313131"/>
<path d="M42.1293 134.241L44.7428 131.715C45.2094 131.256 45.5483 130.881 45.7597 130.589C45.9784 130.29 46.0878 130.002 46.0878 129.725C46.0878 129.339 45.9566 129.025 45.6941 128.785C45.4317 128.544 45.0818 128.424 44.6444 128.424C44.207 128.424 43.8571 128.548 43.5946 128.796C43.3322 129.036 43.201 129.361 43.201 129.769H42.1293C42.1293 129.426 42.1877 129.113 42.3043 128.828C42.4282 128.544 42.5995 128.3 42.8182 128.096C43.0369 127.884 43.2994 127.724 43.6056 127.615C43.919 127.498 44.2653 127.44 44.6444 127.44C45.0235 127.44 45.3661 127.498 45.6723 127.615C45.9857 127.724 46.2518 127.881 46.4705 128.085C46.6892 128.289 46.8569 128.533 46.9735 128.818C47.0975 129.095 47.1594 129.397 47.1594 129.725C47.1594 130.133 47.0173 130.545 46.733 130.961C46.4487 131.376 46.0368 131.836 45.4973 132.339L43.4853 134.241H47.1594V135.182H42.1293V134.241Z" fill="#313131"/>
<path d="M48.1414 131.89H51.9687V132.787H48.1414V131.89Z" fill="#313131"/>
<path d="M54.2234 128.664L52.6269 129.747V128.632L54.2234 127.527H55.2513V135.182H54.2234V128.664Z" fill="#313131"/>
<path d="M59.2383 135.269C58.4218 135.269 57.7839 135.047 57.3247 134.602C56.8727 134.157 56.6358 133.53 56.6139 132.721H57.6855C57.7438 133.764 58.2614 134.285 59.2383 134.285C59.7559 134.285 60.1422 134.168 60.3974 133.935C60.6598 133.694 60.7911 133.377 60.7911 132.984C60.7911 132.605 60.6635 132.298 60.4083 132.065C60.1605 131.832 59.8033 131.715 59.3367 131.715H58.3088V130.775H59.3367C59.7522 130.775 60.0693 130.669 60.288 130.458C60.514 130.239 60.627 129.955 60.627 129.605C60.627 129.248 60.5104 128.963 60.2771 128.752C60.0438 128.533 59.6976 128.424 59.2383 128.424C58.8228 128.424 58.4947 128.54 58.2541 128.774C58.0209 129 57.886 129.331 57.8495 129.769H56.7779C56.7998 129.04 57.0221 128.471 57.445 128.063C57.8751 127.647 58.4728 127.44 59.2383 127.44C59.6319 127.44 59.9819 127.494 60.288 127.604C60.5942 127.706 60.8494 127.852 61.0535 128.041C61.2649 128.223 61.4253 128.449 61.5346 128.719C61.644 128.982 61.6987 129.269 61.6987 129.583C61.6987 129.947 61.6185 130.272 61.4581 130.556C61.2977 130.84 61.0608 131.066 60.7473 131.234C61.1191 131.409 61.3961 131.65 61.5784 131.956C61.7679 132.262 61.8627 132.612 61.8627 133.006C61.8627 133.341 61.8044 133.647 61.6877 133.924C61.5784 134.201 61.4107 134.442 61.1847 134.646C60.966 134.843 60.6926 134.996 60.3646 135.105C60.0365 135.214 59.6611 135.269 59.2383 135.269Z" fill="#313131"/>
<path d="M65.144 134.372H65.3081C65.5195 134.372 65.6835 134.303 65.8001 134.165C65.9241 134.026 66.0115 133.829 66.0626 133.574C66.1209 133.312 66.1537 132.998 66.161 132.634C66.1756 132.269 66.1828 131.861 66.1828 131.409V129.714H70.1194V135.182H69.1353V130.611H67.167V131.409C67.167 131.912 67.1561 132.397 67.1342 132.863C67.1123 133.33 67.0431 133.742 66.9264 134.099C66.8098 134.456 66.6239 134.741 66.3687 134.952C66.1209 135.163 65.7673 135.269 65.3081 135.269H65.144V134.372Z" fill="#313131"/>
<path d="M73.8365 135.269C73.4501 135.269 73.1002 135.211 72.7867 135.094C72.4805 134.97 72.2181 134.795 71.9994 134.569C71.7807 134.336 71.613 134.055 71.4964 133.727C71.3798 133.399 71.3214 133.024 71.3214 132.601V132.295C71.3214 131.872 71.3798 131.497 71.4964 131.169C71.613 130.833 71.7771 130.553 71.9885 130.327C72.2072 130.101 72.466 129.929 72.7648 129.813C73.071 129.689 73.41 129.627 73.7818 129.627C74.1536 129.627 74.4889 129.689 74.7878 129.813C75.094 129.929 75.3528 130.104 75.5642 130.337C75.7829 130.571 75.9506 130.855 76.0672 131.19C76.1838 131.526 76.2422 131.912 76.2422 132.349V132.743H72.3493C72.3639 133.261 72.4951 133.662 72.743 133.946C72.9981 134.23 73.3444 134.372 73.7818 134.372C74.1317 134.372 74.4197 134.307 74.6457 134.176C74.8717 134.044 75.043 133.833 75.1596 133.541H76.1875C76.0563 134.11 75.7865 134.54 75.3783 134.832C74.9774 135.123 74.4634 135.269 73.8365 135.269ZM73.7818 130.523C73.3663 130.523 73.0382 130.644 72.7976 130.884C72.5571 131.125 72.4113 131.475 72.3603 131.934H75.2143C75.1268 130.994 74.6493 130.523 73.7818 130.523Z" fill="#313131"/>
<path d="M78.3254 130.611H76.5758V129.714H81.0591V130.611H79.3095V135.182H78.3254V130.611Z" fill="#313131"/>
</svg>
