<svg width="123" height="50" viewBox="0 0 123 50" fill="none" xmlns="http://www.w3.org/2000/svg">
<path fill-rule="evenodd" clip-rule="evenodd" d="M54.956 13.3633C54.956 11.9508 55.6648 11.2421 57.0773 11.2421H67.7091C69.1216 11.2421 69.8304 10.5333 69.8304 9.12078C69.8151 7.7083 69.1063 6.99951 67.7091 6.99951H54.956C52.1413 6.99951 50.7288 8.41199 50.7135 11.2421V19.7271C50.7135 22.5521 52.126 23.9697 54.956 23.9697L65.5624 23.9493C68.3873 23.9493 69.8151 22.5368 69.8253 19.7067V17.6059C69.8253 14.7758 68.4077 13.3633 65.5828 13.3633H54.956ZM63.9969 16.7543C65.0525 16.7543 65.5879 17.6772 65.5879 18.3809C65.5879 19.0897 65.1952 20.0127 64.2417 20.0127H57.0824C55.6699 20.0127 54.9611 18.1668 54.9611 16.7594H63.9969V16.7543Z" fill="white" stroke="white" stroke-width="0.72271" stroke-miterlimit="22.9256"/>
<path fill-rule="evenodd" clip-rule="evenodd" d="M26.2123 19.6802C26.2123 22.2604 27.3851 23.6627 29.7358 23.8921L29.8531 23.9278H30.4548H40.643H43.1824C46.0074 23.9278 47.425 22.5306 47.425 19.7261V19.6802V11.2359V11.19C47.425 8.38546 46.0074 6.98828 43.1824 6.98828H40.643H32.6067H30.4548H29.8531L29.7358 7.02398C27.3851 7.25344 26.2123 8.65572 26.2123 11.2359V19.6802ZM31.082 19.2519L31.0463 19.2213C31.0208 19.2009 31.0004 19.1805 30.98 19.1601L30.9494 19.1295L30.9188 19.0938L30.8882 19.0581L30.8576 19.0224L30.8271 18.9867L30.8016 18.951L30.7761 18.9102L30.7506 18.8694L30.7251 18.8286L30.6996 18.7878L30.6792 18.747L30.6588 18.7011L30.6384 18.6553L30.618 18.6094L30.5976 18.5635L30.5823 18.5176L30.567 18.4666L30.5517 18.4156L30.5364 18.3646L30.5211 18.3136L30.5109 18.2626L30.5007 18.2065L30.4905 18.1504L30.4803 18.0943L30.4701 18.0383L30.465 17.9822L30.4599 17.921L30.4548 17.8598L30.4497 17.7986L30.4446 17.7374V17.6762V17.6099V13.3215V13.2552V13.194L30.4497 13.1328L30.4548 13.0716L30.4599 13.0104L30.465 12.9492L30.4701 12.8932L30.4803 12.8371L30.4905 12.781L30.5007 12.7249L30.5109 12.6688L30.5211 12.6178L30.5364 12.5668L30.5517 12.5158L30.567 12.4648L30.5823 12.4138L30.5976 12.3679L30.618 12.322L30.6384 12.2762L30.6588 12.2303L30.6792 12.1844L30.6996 12.1436L30.7251 12.1028L30.7506 12.0518L30.7761 12.011L30.8016 11.9702L30.8271 11.9345L30.8576 11.8988L30.8882 11.8631L30.9188 11.8274L30.9494 11.7917L30.98 11.7611C31.0004 11.7407 31.0259 11.7203 31.0463 11.6999L31.082 11.6693C31.1177 11.6388 31.1534 11.6133 31.1942 11.5878C31.5307 11.3583 31.9846 11.2461 32.5506 11.2461H41.0357C42.4481 11.2461 43.1671 11.9549 43.1773 13.3674V17.5691C43.162 18.9816 42.4481 19.6904 41.0357 19.6904H32.5557C31.9897 19.6904 31.5358 19.5782 31.1993 19.3487C31.1585 19.313 31.1177 19.2825 31.082 19.2519Z" fill="white" stroke="white" stroke-width="0.72271" stroke-miterlimit="22.9256"/>
<path fill-rule="evenodd" clip-rule="evenodd" d="M93.9747 23.9697H79.1463C74.9037 23.9697 72.7723 21.8484 72.757 17.6059V9.12078C72.757 7.7083 73.4657 6.99951 74.8782 6.99951C76.2958 6.99951 76.9995 7.7083 76.9995 9.12078L77.0199 17.6059C77.0199 19.0183 77.7236 19.7271 79.1208 19.7271H89.7271V9.12078C89.7271 7.7083 90.4308 6.99951 91.828 6.99951C93.2405 6.99951 93.9492 7.7083 93.9492 9.12078L93.9747 23.9697Z" fill="white" stroke="white" stroke-width="0.72271" stroke-miterlimit="22.9256"/>
<path fill-rule="evenodd" clip-rule="evenodd" d="M44.513 48.781C43.2994 49.5 42.3254 49.2451 41.6064 48.0315L35.5333 37.7821L29.4601 48.0315C28.7411 49.2451 27.7723 49.5 26.5536 48.781C25.34 48.0672 25.0748 47.1034 25.7836 45.9153L33.4069 33.05C33.9678 32.1067 34.6766 31.7446 35.5333 31.9639C36.3899 31.7446 37.1038 32.1067 37.6596 33.05L45.283 45.9153C45.9917 47.1034 45.7266 48.0672 44.513 48.781Z" fill="white" stroke="white" stroke-width="0.72271" stroke-miterlimit="22.9256"/>
<path fill-rule="evenodd" clip-rule="evenodd" d="M68.2193 48.8561H53.3908C49.1483 48.8561 47.0168 46.7349 47.0066 42.4923V34.0073C47.0066 32.5948 47.7154 31.886 49.1279 31.886C50.5454 31.886 51.2491 32.5948 51.2491 34.0073L51.2695 42.4923C51.2695 43.9048 51.9732 44.6136 53.3704 44.6136H63.9767V34.0073C63.9767 32.5948 64.6804 31.886 66.0776 31.886C67.4901 31.886 68.1989 32.5948 68.1989 34.0073L68.2193 48.8561Z" fill="white" stroke="white" stroke-width="0.72271" stroke-miterlimit="22.9256"/>
<path fill-rule="evenodd" clip-rule="evenodd" d="M118.594 8.34009C119.135 9.64549 118.752 10.5735 117.452 11.1141L106.55 15.6217L117.467 19.9102C118.003 20.1192 118.37 20.4099 118.584 20.7668L118.625 20.7821V20.8382C118.88 21.3328 118.849 21.955 118.538 22.679C117.977 23.9742 117.064 24.3006 115.749 23.7856L101.68 18.2631L101.701 21.8275C101.701 23.2552 100.992 23.9691 99.5792 23.9691C98.1668 23.9691 97.458 23.2604 97.458 21.8479V18.6048C97.0959 18.3855 96.8053 18.0031 96.5758 17.4575C96.071 16.2439 96.3668 15.3566 97.458 14.8008V2.70547C97.458 1.32359 98.1668 0.625 99.5792 0.625C100.976 0.625 101.68 1.31849 101.68 2.70547V13.0416L115.866 7.17237C117.141 6.65226 118.054 7.0347 118.594 8.34009Z" fill="white" stroke="white" stroke-width="0.72271" stroke-miterlimit="22.9256"/>
<path fill-rule="evenodd" clip-rule="evenodd" d="M3.86223 25.4629C5.25942 25.4629 5.9631 26.1564 5.9631 27.5434V37.8845L20.1491 32.0154C21.429 31.485 22.3417 31.8726 22.8823 33.1729C23.4228 34.4783 23.0454 35.4063 21.74 35.9468L10.8379 40.4545L21.7553 44.743C22.2907 44.952 22.6579 45.2427 22.8721 45.5996L22.9128 45.6149V45.671C23.1678 46.1656 23.1372 46.7877 22.8262 47.5118C22.2652 48.807 21.3525 49.1334 20.0369 48.6184L5.9682 43.0959L5.9886 46.6603C5.9886 48.088 5.27981 48.8019 3.86733 48.8019C2.45486 48.8019 1.74607 48.0931 1.74607 46.6807V43.4376C1.38402 43.2183 1.08827 42.8359 0.863905 42.2903C0.359084 41.0766 0.654838 40.1894 1.74607 39.6336V27.5383C1.74097 26.1564 2.44976 25.4629 3.86223 25.4629Z" fill="white" stroke="white" stroke-width="0.72271" stroke-miterlimit="22.9256"/>
<path fill-rule="evenodd" clip-rule="evenodd" d="M73.6496 25.4629C75.0468 25.4629 75.7505 26.1564 75.7505 27.5434V37.8845L89.9364 32.0154C91.2163 31.485 92.1291 31.8726 92.6696 33.1729C93.2101 34.4783 92.8277 35.4063 91.5274 35.9468L80.6253 40.4545L91.5427 44.743C92.0781 44.952 92.4452 45.2427 92.6594 45.5996L92.7002 45.6149V45.671C92.9552 46.1656 92.9246 46.7877 92.6135 47.5118C92.0526 48.807 91.1398 49.1334 89.8242 48.6184L75.7556 43.0959L75.776 46.6603C75.776 48.088 75.0672 48.8019 73.6547 48.8019C72.2422 48.8019 71.5334 48.0931 71.5334 46.6807V43.4376C71.1714 43.2183 70.8756 42.8359 70.6513 42.2903C70.1464 41.0766 70.4422 40.1894 71.5334 39.6336V27.5383C71.5283 26.1564 72.2371 25.4629 73.6496 25.4629Z" fill="white" stroke="white" stroke-width="0.72271" stroke-miterlimit="22.9256"/>
<path fill-rule="evenodd" clip-rule="evenodd" d="M104.326 46.6826C105.744 46.2848 106.254 45.3721 105.856 43.9596L103.822 36.6372L114.816 48.0594C115.835 49.12 116.865 49.171 117.936 48.1664C119.012 47.1619 119.073 46.1115 118.074 45.0763L106.351 32.8994L114.612 34.8371C116.044 35.1737 116.932 34.6281 117.273 33.1952C117.61 31.7623 117.08 30.8751 115.677 30.5436L100.507 26.9895C100.456 26.9793 100.41 26.9691 100.359 26.9589C99.6454 26.6478 98.9162 26.8365 98.1667 27.5351C97.6669 28.0042 97.3865 28.4835 97.3406 28.9731C97.2794 29.3249 97.31 29.7277 97.4375 30.1867L101.609 45.1987C101.996 46.5857 102.909 47.0803 104.326 46.6826Z" fill="white"/>
<path fill-rule="evenodd" clip-rule="evenodd" d="M5.97868 19.7278H16.6003C17.9822 19.7278 18.6808 19.019 18.6808 17.6065V13.364C18.6808 11.9515 17.972 11.2427 16.5595 11.2427H6.01438L5.97868 19.7278ZM3.90841 6.43924C4.63249 6.43924 5.17301 6.62791 5.52485 7.00015H16.5595C20.8021 7.00015 22.9233 9.12142 22.9233 13.364V17.6065C22.9233 21.849 20.8072 23.9703 16.5799 23.9703H5.96339L5.94809 27.1573V28.2128C5.94809 29.6253 5.2444 30.3341 3.84722 30.3341C3.46988 30.3341 3.21492 30.2831 3.04154 30.1811C2.14408 29.9517 1.69026 29.2684 1.69535 28.1465L1.77694 8.50952C1.78714 7.12763 2.49593 6.43414 3.90841 6.43924Z" fill="white" stroke="white" stroke-width="0.72271" stroke-miterlimit="22.9256"/>
</svg>
