<svg width="180" height="32" viewBox="0 0 180 32" fill="none" xmlns="http://www.w3.org/2000/svg">
<path d="M0 15.36C0 8.12 0 4.499 2.25 2.25C4.5 0.000999928 8.12 0 15.36 0H16.64C23.88 0 27.501 0 29.75 2.25C31.999 4.5 32 8.12 32 15.36V16.64C32 23.88 32 27.501 29.75 29.75C27.5 31.999 23.88 32 16.64 32H15.36C8.12 32 4.499 32 2.25 29.75C0.000999928 27.5 0 23.88 0 16.64V15.36Z" fill="#147BDB"/>
<path d="M17.0923 23.333C9.87231 23.333 5.49231 18.324 5.32031 10H8.97731C9.09131 16.115 11.8723 18.706 14.0053 19.239V10H17.5093V15.277C19.5663 15.049 21.7193 12.649 22.4433 10H25.8933C25.3403 13.257 22.9963 15.657 21.3403 16.647C22.9983 17.448 25.6643 19.543 26.6933 23.333H22.9023C22.1023 20.8 20.1403 18.838 17.5113 18.571V23.333H17.0923Z" fill="white"/>
<path d="M54.646 15.7257C55.859 15.1597 56.64 14.2158 56.64 12.7618C56.64 10.5518 54.62 8.98875 51.71 8.98875H45V22.9998H52.006C55.023 22.9998 57.125 21.3568 57.125 19.1198C57.1325 18.3624 56.8952 17.6228 56.4485 17.0111C56.0019 16.3994 55.3697 15.9493 54.646 15.7257ZM48.1 11.5487H51.71C52.788 11.5487 53.542 12.1958 53.542 13.0848C53.542 13.9748 52.788 14.5938 51.71 14.5938H48.1V11.5487ZM52.007 20.4408H48.1V17.0187H52.007C53.219 17.0187 54.027 17.7188 54.027 18.7428C54.027 19.7668 53.219 20.4408 52.007 20.4408ZM68.649 22.9998H72.717L66.277 15.7238L72.178 8.98775H68.488L63.798 14.4307H63.044V8.98975H59.946V22.9998H63.044V17.4228H63.799L68.649 22.9998ZM80.626 23.2687C85.018 23.2687 88.117 20.2508 88.117 15.9938C88.117 11.7368 85.018 8.71875 80.627 8.71875C76.235 8.71875 73.136 11.7368 73.136 15.9938C73.136 20.2508 76.235 23.2687 80.626 23.2687ZM80.626 20.4387C78.094 20.4387 76.369 18.6338 76.369 15.9938C76.369 13.3538 78.094 11.5478 80.626 11.5478C83.159 11.5478 84.884 13.3528 84.884 15.9938C84.884 18.6338 83.159 20.4398 80.626 20.4398V20.4387ZM100.187 8.98875V14.5118H93.909V8.98875H90.811V22.9998H93.909V17.3417H100.187V22.9998H103.286V8.98975L100.187 8.98875ZM110.286 22.9998H113.384V11.8197H118.234V8.98975H105.436V11.8197H110.286V22.9998ZM125.573 8.71975C122.851 8.71975 120.453 10.1207 119.752 12.5457L122.609 13.0308C123.04 12.1688 124.01 11.3608 125.411 11.3608C127.108 11.3608 128.105 12.5727 128.24 14.4047H125.222C121.1 14.4047 119.052 16.2098 119.052 18.7968C119.052 21.4108 121.073 23.2698 123.929 23.2698C126.219 23.2698 127.755 21.9498 128.429 20.7908L129.075 23.0007H131.366V15.1328C131.366 11.0638 129.156 8.71975 125.573 8.71975ZM124.656 20.6558C123.147 20.6558 122.178 19.8748 122.178 18.6618C122.178 17.5848 122.959 16.8298 125.33 16.8298H128.267C128.267 19.1198 126.812 20.6558 124.656 20.6558ZM143.43 23.0007H147.499L141.059 15.7248L146.96 8.98875H143.268L138.58 14.4318H137.826V8.98975H134.727V22.9998H137.826V17.4228H138.58L143.43 23.0007ZM152.755 23.0007H155.853V11.8177H160.703V8.98775H147.905V11.8177H152.755V23.0007ZM176.071 15.8328C176.071 11.7918 173.053 8.71975 168.796 8.71975C164.539 8.71975 161.521 11.7648 161.521 15.9948C161.521 20.2248 164.539 23.2698 168.796 23.2698C171.706 23.2698 174.454 21.8958 175.505 19.2278L172.595 18.7428C171.922 19.7397 170.628 20.4408 168.985 20.4408C166.614 20.4408 165.051 18.9857 164.754 16.8307H176.017C176.044 16.5337 176.071 16.2108 176.071 15.8328ZM168.796 11.4137C170.736 11.4137 172.191 12.6537 172.703 14.4047H164.943C165.455 12.5998 166.91 11.4148 168.796 11.4148V11.4137Z" fill="white"/>
</svg>
